<svg height="512" viewBox="0 0 64 64" width="512" xmlns="http://www.w3.org/2000/svg"><path d="M9.494 44.995a1 1 0 0 0-1 1v6.002a1 1 0 0 0 1 1h17.005v10.005a1 1 0 1 0 2 0V52.997h4.002v10.005a1 1 0 1 0 2 0V52.997h.999v10.005a1 1 0 1 0 2 0V52.997h14.006c.007 0 .013-.004.02-.004h2.98a1 1 0 0 0 1-1v-5.994a1 1 0 0 0-1-1h-2.98c-.007 0-.013-.004-.02-.004h-.003V21.008a1 1 0 0 0-1-1H24.916l-1.003-1.003h27.593c.014 0 .025-.007.039-.008h2.961a1 1 0 0 0 1-1v-5.994a1 1 0 0 0-1-1H37.5V.998a1 1 0 1 0-2 0v10.005h-.999V.998a1 1 0 1 0-2 0v10.005h-4.002V.998a1 1 0 1 0-2 0v10.005H9.494a1 1 0 0 0-1 1v6.002a1 1 0 0 0 1 1h3.007v25.99zm1 2h40.012v4.002H10.494zm43.012 3.998h-1v-3.994h1zm-4.003-5.998H48.5V22.008h1.003zm4.003-27.998h-1v-3.994h1zm-43.012-3.994h40.012v4.002H10.494zm4.007 6.002h6.585l2.709 2.71a.997.997 0 0 0 .707.293H46.5v22.987H14.501z" fill="#de4a4b"/><path d="M38.5 29.997H22.501a1 1 0 1 0 0 2H38.5a1 1 0 1 0 0-2zm0 3H22.501a1 1 0 1 0 0 2H38.5a1 1 0 1 0 0-2zm-4 3h-7.999a1 1 0 1 0 0 2H34.5a1 1 0 1 0 0-2z" fill="#de4a4b"/></svg>