<svg version="1.1" id="Capa_1" xmlns="http://www.w3.org/2000/svg" x="0" y="0" viewBox="0 0 480 480" xml:space="preserve"><path d="M359.994 344a8 8 0 0 0-8 8v16a8 8 0 0 0 16 0v-16a8 8 0 0 0-8-8zm-32 16a8 8 0 0 0-8 8v16a8 8 0 0 0 16 0v-16a8 8 0 0 0-8-8zM206.051 193.946l-.002-.002a8 8 0 1 0-11.316 11.312 8 8 0 0 0 11.318-11.31zm79.2-79.204a8 8 0 0 0-11.316 11.312l.002.002a8 8 0 0 0 11.314-11.314zm-79.201.002a8 8 0 1 0-.002 11.314l.002-.002a8 8 0 0 0 0-11.312zm79.203 79.2a8 8 0 0 0-11.314-.002l-.002.002a8 8 0 1 0 11.316 0z" fill="#fff"/><circle cx="183.994" cy="160" r="8" fill="#fff"/><circle cx="295.994" cy="160" r="8" fill="#fff"/><circle cx="239.994" cy="104" r="8" fill="#fff"/><circle cx="239.994" cy="216" r="8" fill="#fff"/><path d="M261.65 170.344l-13.656-13.656V136a8 8 0 0 0-16 0v24a8 8 0 0 0 2.344 5.656l16 16a8 8 0 1 0 11.312-11.312zM239.994 16a8 8 0 0 0-8 8v40a8 8 0 0 0 16 0V24a8 8 0 0 0-8-8zm-32-16a8 8 0 0 0-8 8v8a8 8 0 0 0 16 0V8a8 8 0 0 0-8-8z" fill="#fff"/><path d="M475.994 247.4l-68-39.4 68-39.392a8 8 0 0 0 4-6.92 8 8 0 0 0-4-6.92l-32-18.536a8 8 0 0 0-8 13.848l20 11.608-64 37.072-51.064-29.6a7.831 7.831 0 0 0-5.36-.856c.24-2.752.424-5.52.424-8.336a95.479 95.479 0 0 0-29.456-69.28l13.456-7.76 62.176 36a8 8 0 1 0 8-13.839l-66.176-38.32a8 8 0 0 0-8 0L293.122 80a97.18 97.18 0 0 0-13.128-7.296V64a8 8 0 0 0-16 0v14a8 8 0 0 0 5.088 7.456 80.834 80.834 0 0 1 18.696 10.4l.168.128c35.366 26.483 42.567 76.622 16.084 111.988s-76.622 42.567-111.988 16.084A80.001 80.001 0 0 1 159.994 160c.059-31.258 18.258-59.64 46.64-72.736a78.003 78.003 0 0 1 4.28-1.816 8 8 0 0 0 5.08-7.448V40a8 8 0 0 0-16 0v32.712h-.048A95.145 95.145 0 0 0 186.93 80l-22.936-13.232a8 8 0 0 0-8 0l-152 88a8 8 0 0 0 0 13.84l68 39.392-68 39.392a8 8 0 0 0 0 13.84l76 44V384a8 8 0 0 0 4 6.92l152 88c.184.112.4.152.592.248.192.096.44.192.672.28a7.096 7.096 0 0 0 5.488 0c.232-.088.448-.176.672-.28s.408-.136.592-.248l152-88a8 8 0 0 0 3.984-6.92v-78.76l76-44a8 8 0 0 0 0-13.84zm-452-85.712l136-78.76 13.6 7.864a96.234 96.234 0 0 0-29.6 69.208c0 2.816.184 5.6.424 8.336a7.993 7.993 0 0 0-2.344-.168 8.125 8.125 0 0 0-3.016 1.024L87.994 198.76l-64-37.072zm0 92.624l64-37.072 78.904 45.68a8 8 0 1 0 8-13.839L103.994 208l42.968-24.872c12.703 51.398 64.666 82.767 116.064 70.064 34.55-8.539 61.525-35.514 70.064-70.064L375.994 208l-136 78.76-37.448-21.68a8 8 0 0 0-8 13.839L224.034 296l-64 37.072-136.04-78.76zm360 125.08l-136 78.736V440a8 8 0 0 0-16 0v18.128l-136-78.736v-64.888l60 34.728a8 8 0 0 0 8 0l68-39.36V408a8 8 0 0 0 16 0v-98.128l68 39.36a8 8 0 0 0 8 0l60-34.728v64.888zm-64-46.32l-64-37.072 136-78.76 64 37.072-136 78.76z" fill="#fff"/><path d="M419.994 122.344l-8-4.632a8 8 0 0 0-8 13.84l8 4.632a8 8 0 0 0 8-13.84zM271.994 8a8 8 0 0 0-8 8v16a8 8 0 0 0 16 0V16a8 8 0 0 0-8-8z" fill="#fff"/></svg>