<svg id="Слой_1" data-name="Слой 1" xmlns="http://www.w3.org/2000/svg" viewBox="0 0 279.89 200.16"><path d="M1 160.16l-1 .33V17.42l1 .45v142.29zm278.88 19.01l-1-.44V40.03l1.01-.33-.01 139.47zM93.18 57.62h1v142.04h-1z"/><path transform="rotate(-5.38 -11501.306 5103.348)" d="M515.76 1166.41h186.53v1H515.76z"/><path transform="rotate(-66.9 -587.932 916.532)" d="M469.08 1105.19h1v101.3h-1z"/><path d="M93.73 200.16L0 160.49l.69-.79 93.18 39.51-.14.95z"/><path d="M93.73 200.16l-.11-.99 185.7-20.94.56.94-186.15 20.99zM.55 18.37L0 17.42 186.48 0l.09 1L.55 18.37z"/><path d="M279.18 40.49L186.33.96l.39-.92 93.17 39.66-.71.79z"/><path transform="rotate(-73.65 -434.3 873.919)" d="M497.53 1150.3h51.92v1h-51.92z"/><path transform="rotate(-79.33 -269.072 837.752)" d="M615.84 1054.97h1v174.08h-1z"/><path transform="rotate(-5.6 -11032.904 4941.28)" d="M515.56 1180.64h186.76v1H515.56z"/><path transform="rotate(-67.01 -586.187 930.605)" d="M469 1120.01h1v101.04h-1z"/><path transform="matrix(.95 -.3 .3 .95 -770.69 -926.72)" d="M445.75 1147.22h1v154.34h-1z"/><path d="M26.11 113.38l-.51-.86 67.66-40.78.51.86-67.66 40.78z"/><path transform="rotate(-46.19 -946.68 1183.704)" d="M574.99 1164.9h1v164.83h-1z"/><path transform="rotate(-63.18 -451.805 1022.709)" d="M594.27 1237.69h148.3v1h-148.3z"/></svg>