<svg id="Слой_1" data-name="Слой 1" xmlns="http://www.w3.org/2000/svg" viewBox="0 0 345.04 258.13"><defs><style>.cls-1{fill:#fff}</style></defs><g id="_2" data-name="2"><path class="cls-1" d="M344.54 115.64L68.92 150.39"/><path transform="rotate(-7.18 -8532.07 3718.268)" d="M447.4 1252.87h277.8v1H447.4z"/><path class="cls-1" d="M1.15 34.41L274.82.52"/><path d="M1.21 34.9l-.12-.99L274.99 0l-.11 1.02L1.21 34.9z"/><path class="cls-1" d="M341.93 60.47L274.82.52"/><path d="M341.6 60.84L274.48.9l.51-.9 67.42 60.23-.81.61z"/><path class="cls-1" d="M68.92 95.66l273.01-35.19"/><path transform="rotate(-7.35 -8326.651 3592.596)" d="M447.36 1197.92h275.27v1H447.36z"/><path class="cls-1" d="M1.15 34.41l67.77 61.25"/><path transform="rotate(-47.89 -1036.606 1052.608)" d="M414.1 1139.72h1v91.34h-1z"/><path class="cls-1" d="M1.15 34.41v24.54"/><path d="M1.65 60.06l-1-.89V33.96l1-.12v26.22z"/><path class="cls-1" d="M68.92 95.66v23.24"/><path d="M68.42 95.66h1v23.24h-1z"/><path class="cls-1" d="M1.15 58.95l67.77 59.95"/><path transform="rotate(-48.5 -1018.658 1070.484)" d="M414.11 1164.05h1v90.47h-1z"/><path class="cls-1" d="M341.93 60.47v24.54"/><path d="M342.43 85.45l-1-.44V60.47l.98-.24.02 25.22z"/><path class="cls-1" d="M68.92 118.9l273.01-33.89"/><path d="M68.98 119.39l-.13-.99 273.02-33.88.56.93-273.45 33.94z"/><path class="cls-1" d="M68.92 150.39V257.6"/><path d="M68.42 150.39h1V257.6h-1z"/><path class="cls-1" d="M.5 88.92v103.52"/><path d="M1 193.6l-1-.95V88.41l1 .01V193.6z"/><path class="cls-1" d="M344.54 115.64v104.82"/><path d="M344.04 115.64h1v104.82h-1z"/><path class="cls-1" d="M68.92 257.6l275.77-37.35"/><path transform="rotate(-7.69 -7937.927 3623.714)" d="M447.23 1358.79h278.29v1H447.23z"/><path class="cls-1" d="M.5 192.44l68.42 65.16"/><path d="M68.74 258.13L.15 192.8l.69-.72 69.14 65.88-1.24.17z"/><path class="cls-1" d="M.5 88.92l68.42 61.47"/><path transform="rotate(-48.06 -1031.863 1105.559)" d="M413.78 1194.03h1V1286h-1z"/><path class="cls-1" d="M11.14 78.06v14.12"/><path d="M11.64 93.31l-1-.9V77.56h1v15.75z"/><path class="cls-1" d="M74.13 133.88v15.85"/><path d="M73.63 133.88h1v15.85h-1z"/><path class="cls-1" d="M11.14 78.06l62.99 55.82"/><path transform="rotate(-48.45 -1012.528 1088.014)" d="M421.71 1184.25h1v84.16h-1z"/><path class="cls-1" d="M11.14 92.18l62.99 57.55"/><path transform="rotate(-47.58 -1038.206 1111.71)" d="M421.71 1198.66h1v85.32h-1z"/><path class="cls-1" d="M.5 88.92h10.64"/><path d="M.5 88.42h10.64v1H.5z"/><path class="cls-1" d="M11.14 78.06h11.62"/><path d="M11.14 77.56h11.62v1H11.14z"/><path class="cls-1" d="M74.13 133.88l129.66-16.72"/><path transform="rotate(-7.35 -8393.094 3640.076)" d="M453.16 1245.38H583.9v1H453.16z"/><path class="cls-1" d="M204.03 133.35v-16.19"/><path d="M204.53 133.35h-1v-16.19l1-.23v16.42z"/><path class="cls-1" d="M68.92 118.9l10.75 10.75"/><path transform="rotate(-45 -1088.369 1142.577)" d="M453.36 1237.03h1v15.2h-1z"/><path class="cls-1" d="M203.79 117.16l-6.51-2.83"/><path d="M203.59 117.62l-6.51-2.83.12-.96 7.33 3.1-.94.69z"/><path class="cls-1" d="M79.67 129.65l117.61-15.32"/><path transform="rotate(-7.4 -8334.05 3617.414)" d="M458.74 1241.85h118.6v1h-118.6z"/><path class="cls-1" d="M204.03 101.95v10"/><path d="M203.53 101.95h1v9.99h-1z"/><path class="cls-1" d="M335.17 85.85V95"/><path d="M335.67 95.5l-1-.5v-9.15h1v9.65z"/><path class="cls-1" d="M204.03 111.95L335.17 95"/><path d="M203.89 112.44l.07-.99L335.1 94.51l.57.99-131.78 16.94z"/><path class="cls-1" d="M200.54 102.56v7"/><path d="M201.04 109.56l-1.01.19.01-7.19h1v7z"/><path class="cls-1" d="M204.03 111.95l-3.49-2.39"/><path d="M203.89 112.44l-3.86-2.69.79-.61 3.49 2.39-.42.91z"/><path class="cls-1" d="M323.41 96.52l21.13 19.12"/><path transform="rotate(-47.86 -738.57 1093.933)" d="M713.04 1212.2h1v28.49h-1z"/><path class="cls-1" d="M315.4 97.56l19.77 18.08"/><path transform="rotate(-47.56 -756.319 1097.42)" d="M704.35 1213.56h1v26.79h-1z"/><path class="cls-1" d="M307.17 98.62l14.13 13.33"/><path transform="rotate(-46.67 -794.395 1105.49)" d="M693.3 1215.93h1v19.42h-1z"/><path class="cls-1" d="M299.18 99.65l12.12 11.1"/><path transform="matrix(.68 -.74 .74 .68 -1061.16 -217.17)" d="M684.31 1217.34h1v16.44h-1z"/><path class="cls-1" d="M204.03 124.33l107.27-13.58"/><path transform="rotate(-7.24 -8407.453 3676.921)" d="M583.17 1237.4H691.3v1H583.17z"/><path transform="rotate(-8.1 -7525.594 3350.315)" d="M583.03 1239.96h118.4v1h-118.4z"/><path transform="rotate(-7.24 -8395.479 3683.313)" d="M583.07 1243.82h132.19v1H583.07z"/></g></svg>