<svg id="Слой_1" data-name="Слой 1" xmlns="http://www.w3.org/2000/svg" viewBox="0 0 345.12 319.23"><defs><style>.cls-1{fill:#fff}</style></defs><g id="_3" data-name="3"><path class="cls-1" d="M344.62 176.91L69.01 211.66"/><path transform="rotate(-7.18 -8285.209 3763.6)" d="M447.43 1283.17h277.8v1h-277.8z"/><path class="cls-1" d="M1.24 34.43L274.91.54"/><path d="M1.3 34.92l-.56-.94L275.23 0l-.26 1.04L1.3 34.92z"/><path class="cls-1" d="M342.02 60.49L274.91.54"/><path d="M341.69 60.86L274.57.92l.66-.92 67.29 60.27-.83.59z"/><path class="cls-1" d="M69.01 95.67l273.01-35.18"/><path transform="rotate(-7.29 -8155.033 3601.736)" d="M447.39 1166.97h275.27v1H447.39z"/><path class="cls-1" d="M1.24 34.43l67.77 61.24"/><path transform="rotate(-47.89 -1001.667 1037.067)" d="M414.14 1108.76h1v91.34h-1z"/><path class="cls-1" d="M1.24 34.43v85.79"/><path d="M1.74 120.22l-1 .22V33.98l1 .45v85.79z"/><path class="cls-1" d="M69.01 95.67v84.49"/><path d="M68.5 95.67h1v84.49h-1z"/><path class="cls-1" d="M1.24 120.22l67.77 59.94"/><path d="M68.67 180.54L.74 120.44l.83-.6 67.77 59.95-.67.75z"/><path class="cls-1" d="M342.02 60.49v85.79"/><path d="M342.52 146.72l-1-.44V60.49l1-.22v86.45z"/><path class="cls-1" d="M69.01 180.16l273.01-33.88"/><path d="M69.07 180.66l-.13-.99 273.02-33.89.56.94-273.45 33.94z"/><path class="cls-1" d="M69.01 211.66v107.2"/><path d="M68.5 211.66h1v107.21h-1z"/><path class="cls-1" d="M.59 150.19v103.52"/><path d="M1.09 253.71h-1L0 149.69l1.09.5v103.52z"/><path class="cls-1" d="M344.62 176.91v104.81"/><path d="M345.13 281.88l-1-.16V176.91l.94-.28.06 105.25z"/><path class="cls-1" d="M69.01 318.86l275.77-37.34"/><path d="M68.66 319.23l.28-.86 275.77-37.34.42.85-276.47 37.35z"/><path class="cls-1" d="M.59 253.71l68.42 65.15"/><path d="M68.66 319.23L.09 253.71l.84-.37 68.42 65.16-.69.73z"/><path class="cls-1" d="M.59 150.19l68.42 61.47"/><path transform="rotate(-48.06 -997.063 1151.283)" d="M413.81 1224.32h1v91.97h-1z"/><path class="cls-1" d="M11.23 139.33v14.12"/><path d="M11.73 153.45h-1v-14.62l1 .5v14.12z"/><path class="cls-1" d="M74.22 195.15V211"/><path d="M73.72 195.15h1V211h-1z"/><path class="cls-1" d="M11.23 139.33l62.99 55.82"/><path transform="rotate(-48.45 -978.062 1133.707)" d="M421.74 1214.54h1v84.16h-1z"/><path class="cls-1" d="M11.23 153.45L74.22 211"/><path d="M73.88 211.37l-63.15-57.92.84-.37 62.99 57.55-.68.74z"/><path class="cls-1" d="M.59 150.19h10.64"/><path d="M11.23 150.69H.59l-.59-1h11.23v1z"/><path class="cls-1" d="M11.23 139.33h11.62"/><path d="M22.85 139.83H11.23l-.5-1h12.12v1z"/><path class="cls-1" d="M74.22 195.15l129.66-16.72"/><path transform="rotate(-7.35 -8151.885 3685.35)" d="M453.19 1275.67h130.74v1H453.19z"/><path class="cls-1" d="M204.12 194.62v-16.19"/><path d="M203.62 178.43h1v16.2h-1z"/><path class="cls-1" d="M69.01 180.16l10.75 10.75"/><path transform="rotate(-45 -1050.871 1188.345)" d="M453.39 1267.32h1v15.21h-1z"/><path class="cls-1" d="M203.88 178.43l-6.51-2.83"/><path transform="rotate(-66.57 -439.252 1010.779)" d="M579.64 1262.85h1v7.1h-1z"/><path class="cls-1" d="M79.76 190.91l117.61-15.31"/><path transform="rotate(-7.4 -8094.502 3662.72)" d="M458.77 1272.14h118.6v1h-118.6z"/><path class="cls-1" d="M204.12 163.22v9.99"/><path d="M203.62 163.22h1v9.99h-1z"/><path class="cls-1" d="M335.25 147.12v9.15"/><path d="M335.75 156.71l-1-.44v-9.15h1v9.59z"/><path class="cls-1" d="M204.12 173.21l131.13-16.94"/><path d="M204.18 173.71l-.13-.99 131.14-16.94.56.93-131.57 17z"/><path class="cls-1" d="M200.62 163.83v6.99"/><path d="M200.12 163.83h1v7h-1z"/><path class="cls-1" d="M204.12 173.21l-3.5-2.39"/><path transform="rotate(-55.61 -640.702 1076.585)" d="M581.38 1259.29h1v4.23h-1z"/><path class="cls-1" d="M323.5 157.79l21.12 19.12"/><path d="M344.29 177.28l-21.13-19.12.68-.74 21.23 19.21-.78.65z"/><path class="cls-1" d="M315.49 158.83l19.76 18.08"/><path transform="rotate(-47.56 -721.087 1143.148)" d="M704.38 1243.86h1v26.79h-1z"/><path class="cls-1" d="M307.26 159.89l14.12 13.32"/><path transform="rotate(-46.67 -758.439 1151.204)" d="M693.33 1246.23h1v19.42h-1z"/><path class="cls-1" d="M299.27 160.92l12.12 11.1"/><path transform="rotate(-47.53 -741.977 1142.087)" d="M684.34 1247.64h1v16.44h-1z"/><path class="cls-1" d="M204.12 185.59l107.27-13.57"/><path d="M204.18 186.09l-.13-.99 107.68-13.45-.27.86-107.28 13.58zm0 3.44l-.13-.99 117.68-15.69-.28.86-117.27 15.82zm0 4.26l-.13-.99 130.93-16.58-.06 1.05-130.74 16.52z"/></g></svg>