<svg id="Слой_1" data-name="Слой 1" xmlns="http://www.w3.org/2000/svg" viewBox="0 0 345.04 184.86"><defs><style>.cls-1{fill:#fff}</style></defs><g id="_4" data-name="4"><path class="cls-1" d="M344.54 107.57L68.92 142.32"/><path transform="rotate(-7.18 -8826.883 3726.894)" d="M447.17 1281.78h277.8v1h-277.8z"/><path class="cls-1" d="M.72 34.87L274.82.5"/><path transform="rotate(-7.18 -8895.84 3619.597)" d="M378.99 1174.52h276.24v1H378.99z"/><path class="cls-1" d="M341.93 59.77L274.82.5"/><path transform="rotate(-48.55 -785.09 1029.338)" d="M687.22 1142.7h1v89.54h-1z"/><path class="cls-1" d="M68.92 95.94l273.01-36.01"/><path transform="rotate(-7.51 -8421.6 3547.076)" d="M447.08 1234.77h275.38v1H447.08z"/><path class="cls-1" d="M1.15 34.69l67.77 61.25"/><path transform="rotate(-47.89 -1078.341 1071.13)" d="M413.88 1176.98h1v91.34h-1z"/><path class="cls-1" d="M1.15 34.79v16.09"/><path d="M.65 34.79h1v16.09h-1z"/><path class="cls-1" d="M68.92 95.4v15.42"/><path d="M68.42 95.4h1v15.42h-1z"/><path class="cls-1" d="M1.15 50.88l67.77 59.94"/><path transform="rotate(-48.5 -1059.821 1080.648)" d="M413.88 1192.95h1v90.47h-1z"/><path class="cls-1" d="M341.93 59.77v17.17"/><path d="M341.43 59.77h1v17.17h-1z"/><path class="cls-1" d="M68.92 110.82l273.01-33.88"/><path transform="rotate(-7.07 -8972.144 3742.797)" d="M447.21 1250.72h275.11v1H447.21z"/><path class="cls-1" d="M68.92 142.32v42.05"/><path d="M68.42 142.32h1v42.05h-1z"/><path class="cls-1" d="M.5 80.85v41.04"/><path d="M1 121.89H0V80.35l1 .5v41.04z"/><path class="cls-1" d="M344.54 107.57v42.34"/><path d="M345.04 150.33l-1-.42v-42.34l1-.23v42.99z"/><path class="cls-1" d="M68.92 184.37l275.62-34.46"/><path d="M68.72 184.86l.13-.99 275.62-34.46.57.92-276.32 34.53z"/><path class="cls-1" d="M.5 121.27l68.42 63.1"/><path d="M68.72 184.86L0 121.89l.84-.98L69.25 184l-.53.86z"/><path class="cls-1" d="M.5 80.85l68.42 61.47"/><path transform="rotate(-48.06 -1073.445 1115.722)" d="M413.55 1222.93h1v91.97h-1z"/><path class="cls-1" d="M11.14 69.99v14.12"/><path d="M11.64 84.11l-.83.37-.17-14.99 1 .5v14.12z"/><path class="cls-1" d="M74.13 125.81v15.85"/><path d="M73.63 125.81h1v15.85h-1z"/><path class="cls-1" d="M11.14 69.99l62.99 55.82"/><path transform="rotate(-48.45 -1053.745 1098.157)" d="M421.48 1213.16h1v84.16h-1z"/><path class="cls-1" d="M11.14 84.11l62.99 57.55"/><path transform="rotate(-47.58 -1080.252 1121.878)" d="M421.48 1227.56h1v85.32h-1z"/><path class="cls-1" d="M.5 80.85h10.64"/><path d="M11.14 81.35H.5l-.5-1h11.14v1z"/><path class="cls-1" d="M11.14 69.99h11.62"/><path d="M22.76 70.49H11.14l-.5-1h12.12v1z"/><path class="cls-1" d="M74.13 125.81l129.66-16.72"/><path d="M74.19 126.31l-.13-1 129.67-16.72.13.99-129.67 16.73z"/><path class="cls-1" d="M204.03 125.28v-16.19"/><path d="M204.53 125.28h-1v-16.19l1-.25v16.44z"/><path class="cls-1" d="M68.92 110.82l10.75 10.76"/><path d="M79.73 122.07l-11.17-10.89.71-.71 10.75 10.75-.29.85z"/><path class="cls-1" d="M203.79 109.09l-6.51-2.83"/><path d="M203.59 109.55l-6.51-2.83.13-.95 7.32 3.07-.94.71z"/><path class="cls-1" d="M79.67 121.58l117.61-15.32"/><path transform="rotate(-7.4 -8620.097 3626.014)" d="M458.51 1270.75h118.6v1h-118.6z"/><path class="cls-1" d="M204.03 93.88v9.99"/><path d="M203.53 93.88h1v9.99h-1z"/><path class="cls-1" d="M335.17 77.78v9.15"/><path d="M334.67 77.78h1v9.15h-1z"/><path class="cls-1" d="M204.03 103.87l131.14-16.94"/><path transform="rotate(-7.4 -8488.93 3607.554)" d="M582.82 1252.24h132.23v1H582.82z"/><path class="cls-1" d="M200.54 94.49v6.99"/><path d="M200.04 94.49h1v7h-1z"/><path class="cls-1" d="M204.03 103.87l-3.49-2.39"/><path d="M204.09 104.37l-4.05-2.89.78-.41 3.49 2.39-.22.91z"/><path class="cls-1" d="M323.41 88.45l21.13 19.12"/><path d="M344.2 107.94l-21.13-19.12.68-.74 21.29 19.26-.84.6z"/><path class="cls-1" d="M315.4 89.49l19.77 18.08"/><path transform="rotate(-47.56 -798.404 1107.562)" d="M704.12 1242.47h1v26.79h-1z"/><path class="cls-1" d="M307.17 90.55l14.13 13.32"/><path transform="rotate(-46.68 -837.244 1115.394)" d="M693.08 1244.84h1v19.42h-1z"/><path class="cls-1" d="M299.18 91.58l12.12 11.1"/><path transform="rotate(-47.53 -819.378 1106.474)" d="M684.09 1246.25h1v16.44h-1z"/><path class="cls-1" d="M204.03 116.25l107.27-13.57"/><path d="M204.09 116.75l-.13-.99 107.68-13.45-.27.87-107.28 13.57zm.01 4.17l-.14-.99 117.68-16.42-.27.86-117.27 16.55zm-.01 3.42l-.12-.99L335.5 107.2l-.27.86-131.14 16.28z"/></g></svg>