<svg id="Слой_1" data-name="Слой 1" xmlns="http://www.w3.org/2000/svg" viewBox="0 0 345.04 258.13"><defs><style>.cls-1{fill:#fff}</style></defs><g id="_2" data-name="2"><path class="cls-1" d="M344.54 115.64L68.92 150.39"/><path class="cls-1" transform="rotate(-7.18 -8532.07 3718.268)" d="M447.4 1252.87h277.8v1H447.4z"/><path class="cls-1" d="M1.15 34.41L274.82.52M1.21 34.9l-.12-.99L274.99 0l-.11 1.02L1.21 34.9zm340.72 25.57L274.82.52"/><path class="cls-1" d="M341.6 60.84L274.48.9l.51-.9 67.42 60.23-.81.61zM68.92 95.66l273.01-35.19"/><path class="cls-1" transform="rotate(-7.35 -8326.651 3592.596)" d="M447.36 1197.92h275.27v1H447.36z"/><path class="cls-1" d="M1.15 34.41l67.77 61.25"/><path class="cls-1" transform="rotate(-47.89 -1036.606 1052.608)" d="M414.1 1139.72h1v91.34h-1z"/><path class="cls-1" d="M1.15 34.41v24.54m.5 1.11l-1-.89V33.96l1-.12v26.22zm67.27 35.6v23.24m-.5-23.24h1v23.24h-1zM1.15 58.95l67.77 59.95"/><path class="cls-1" transform="rotate(-48.5 -1018.658 1070.484)" d="M414.11 1164.05h1v90.47h-1z"/><path class="cls-1" d="M341.93 60.47v24.54m.5.44l-1-.44V60.47l.98-.24.02 25.22zM68.92 118.9l273.01-33.89"/><path class="cls-1" d="M68.98 119.39l-.13-.99 273.02-33.88.56.93-273.45 33.94zm-.06 31V257.6m-.5-107.21h1V257.6h-1zM.5 88.92v103.52m.5 1.16l-1-.95V88.41l1 .01V193.6zm343.54-77.96v104.82m-.5-104.82h1v104.82h-1zM68.92 257.6l275.77-37.35"/><path class="cls-1" transform="rotate(-7.69 -7937.927 3623.714)" d="M447.23 1358.79h278.29v1H447.23z"/><path class="cls-1" d="M.5 192.44l68.42 65.16m-.18.53L.15 192.8l.69-.72 69.14 65.88-1.24.17zM.5 88.92l68.42 61.47"/><path class="cls-1" transform="rotate(-48.06 -1031.863 1105.559)" d="M413.78 1194.03h1V1286h-1z"/><path class="cls-1" d="M11.14 78.06v14.12m.5 1.13l-1-.9V77.56h1v15.75zm62.49 40.57v15.85m-.5-15.85h1v15.85h-1zM11.14 78.06l62.99 55.82"/><path class="cls-1" transform="rotate(-48.45 -1012.528 1088.014)" d="M421.71 1184.25h1v84.16h-1z"/><path class="cls-1" d="M11.14 92.18l62.99 57.55"/><path class="cls-1" transform="rotate(-47.58 -1038.206 1111.71)" d="M421.71 1198.66h1v85.32h-1z"/><path class="cls-1" d="M.5 88.92h10.64M.5 88.42h10.64v1H.5zm10.64-10.36h11.62m-11.62-.5h11.62v1H11.14zm62.99 56.32l129.66-16.72"/><path class="cls-1" transform="rotate(-7.35 -8393.094 3640.076)" d="M453.16 1245.38H583.9v1H453.16z"/><path class="cls-1" d="M204.03 133.35v-16.19m.5 16.19h-1v-16.19l1-.23v16.42zM68.92 118.9l10.75 10.75"/><path class="cls-1" transform="rotate(-45 -1088.369 1142.577)" d="M453.36 1237.03h1v15.2h-1z"/><path class="cls-1" d="M203.79 117.16l-6.51-2.83m6.31 3.29l-6.51-2.83.12-.96 7.33 3.1-.94.69zM79.67 129.65l117.61-15.32"/><path class="cls-1" transform="rotate(-7.4 -8334.05 3617.414)" d="M458.74 1241.85h118.6v1h-118.6z"/><path class="cls-1" d="M204.03 101.95v10m-.5-10h1v9.99h-1zm131.64-16.1V95m.5.5l-1-.5v-9.15h1v9.65zm-131.64 16.45L335.17 95"/><path class="cls-1" d="M203.89 112.44l.07-.99L335.1 94.51l.57.99-131.78 16.94zm-3.35-9.88v7m.5 0l-1.01.19.01-7.19h1v7zm2.99 2.39l-3.49-2.39"/><path class="cls-1" d="M203.89 112.44l-3.86-2.69.79-.61 3.49 2.39-.42.91zm119.52-15.92l21.13 19.12"/><path class="cls-1" transform="rotate(-47.86 -738.57 1093.933)" d="M713.04 1212.2h1v28.49h-1z"/><path class="cls-1" d="M315.4 97.56l19.77 18.08"/><path class="cls-1" transform="rotate(-47.56 -756.319 1097.42)" d="M704.35 1213.56h1v26.79h-1z"/><path class="cls-1" d="M307.17 98.62l14.13 13.33"/><path class="cls-1" transform="rotate(-46.67 -794.395 1105.49)" d="M693.3 1215.93h1v19.42h-1z"/><path class="cls-1" d="M299.18 99.65l12.12 11.1"/><path class="cls-1" transform="matrix(.68 -.74 .74 .68 -1061.16 -217.17)" d="M684.31 1217.34h1v16.44h-1z"/><path class="cls-1" d="M204.03 124.33l107.27-13.58"/><path class="cls-1" transform="rotate(-7.24 -8407.453 3676.921)" d="M583.17 1237.4H691.3v1H583.17z"/><path class="cls-1" transform="rotate(-8.1 -7525.594 3350.315)" d="M583.03 1239.96h118.4v1h-118.4z"/><path class="cls-1" transform="rotate(-7.24 -8395.479 3683.313)" d="M583.07 1243.82h132.19v1H583.07z"/></g></svg>