<svg id="Слой_1" data-name="Слой 1" xmlns="http://www.w3.org/2000/svg" viewBox="0 0 393.33 189.55"><path d="M421.88 1230c-4.78 0-8.52-2-8.52-4.57s3.74-4.57 8.52-4.57 8.52 2 8.52 4.57-3.74 4.57-8.52 4.57zm0-8.14c-4.08 0-7.52 1.64-7.52 3.57s3.44 3.57 7.52 3.57 7.52-1.63 7.52-3.57-3.4-3.59-7.52-3.59z" transform="translate(-354.86 -1154.45)"/><path d="M421.88 1233c-4.78 0-8.52-2-8.52-4.57v-3h1s.17 3.39 7.53 3.57c7 0 7.5-3.48 7.52-3.63l1 .06v3c-.01 2.57-3.75 4.57-8.53 4.57zm-7.52-5.4v.83c0 1.94 3.44 3.57 7.52 3.57s7.52-1.63 7.52-3.57v-.93c-1 1.21-3.18 2.5-7.52 2.5s-6.48-1.29-7.52-2.42zm7.52-11.6c-4.78 0-8.52-2-8.52-4.57s3.74-4.57 8.52-4.57 8.52 2 8.52 4.57-3.74 4.57-8.52 4.57zm0-8.14c-4.08 0-7.52 1.64-7.52 3.57s3.44 3.57 7.52 3.57 7.52-1.63 7.52-3.57-3.4-3.59-7.52-3.59z" transform="translate(-354.86 -1154.45)"/><path d="M421.88 1219c-4.78 0-8.52-2-8.52-4.57v-3h1s.17 3.39 7.53 3.57c7 0 7.5-3.48 7.52-3.63l1 .06v3c-.01 2.57-3.75 4.57-8.53 4.57zm-7.52-5.4v.83c0 1.94 3.44 3.57 7.52 3.57s7.52-1.63 7.52-3.57v-.93c-1 1.21-3.18 2.5-7.52 2.5s-6.48-1.29-7.52-2.42zm7.52-11.6c-4.78 0-8.52-2-8.52-4.57s3.74-4.57 8.52-4.57 8.52 2 8.52 4.57-3.74 4.57-8.52 4.57zm0-8.14c-4.08 0-7.52 1.64-7.52 3.57s3.44 3.57 7.52 3.57 7.52-1.63 7.52-3.57-3.4-3.59-7.52-3.59z" transform="translate(-354.86 -1154.45)"/><path d="M421.88 1205c-4.78 0-8.52-2-8.52-4.57v-3h1s.17 3.39 7.53 3.57c7 0 7.5-3.48 7.52-3.63l1 .06v3c-.01 2.57-3.75 4.57-8.53 4.57zm-7.52-5.4v.83c0 1.94 3.44 3.57 7.52 3.57s7.52-1.63 7.52-3.57v-.93c-1 1.21-3.18 2.5-7.52 2.5s-6.48-1.29-7.52-2.42zm7.52-11.6c-4.78 0-8.52-2-8.52-4.57s3.74-4.57 8.52-4.57 8.52 2 8.52 4.57-3.74 4.57-8.52 4.57zm0-8.14c-4.08 0-7.52 1.64-7.52 3.57s3.44 3.57 7.52 3.57 7.52-1.63 7.52-3.57-3.4-3.59-7.52-3.59z" transform="translate(-354.86 -1154.45)"/><path d="M421.88 1191c-4.78 0-8.52-2-8.52-4.57v-3h1s.17 3.39 7.53 3.57c7 0 7.5-3.48 7.52-3.63l1 .06v3c-.01 2.57-3.75 4.57-8.53 4.57zm-7.52-5.4v.83c0 1.94 3.44 3.57 7.52 3.57s7.52-1.63 7.52-3.57v-.93c-1 1.21-3.18 2.5-7.52 2.5s-6.48-1.29-7.52-2.42zm-26.07 30.57c-4.78 0-8.52-2-8.52-4.58s3.74-4.57 8.52-4.57 8.52 2 8.52 4.57-3.74 4.58-8.52 4.58zm0-8.15c-4.08 0-7.52 1.64-7.52 3.57s3.44 3.58 7.52 3.58 7.52-1.64 7.52-3.58-3.44-3.59-7.52-3.59z" transform="translate(-354.86 -1154.45)"/><path d="M388.29 1219.16c-4.78 0-8.52-2-8.52-4.57v-3h1s.17 3.39 7.53 3.58c7 0 7.49-3.49 7.51-3.64l1 .06v3c0 2.56-3.74 4.57-8.52 4.57zm-7.52-5.4v.83c0 1.94 3.44 3.57 7.52 3.57s7.52-1.63 7.52-3.57v-.93c-1.05 1.21-3.18 2.51-7.52 2.51s-6.48-1.28-7.52-2.41zm7.52-11.59c-4.78 0-8.52-2-8.52-4.58s3.74-4.57 8.52-4.57 8.52 2 8.52 4.57-3.74 4.58-8.52 4.58zm0-8.15c-4.08 0-7.52 1.64-7.52 3.57s3.44 3.58 7.52 3.58 7.52-1.64 7.52-3.58-3.44-3.59-7.52-3.59z" transform="translate(-354.86 -1154.45)"/><path d="M388.29 1205.16c-4.78 0-8.52-2-8.52-4.57v-3h1s.17 3.39 7.53 3.58c7 0 7.49-3.49 7.51-3.64l1 .06v3c0 2.56-3.74 4.57-8.52 4.57zm-7.52-5.4v.83c0 1.94 3.44 3.57 7.52 3.57s7.52-1.63 7.52-3.57v-.93c-1.05 1.21-3.18 2.51-7.52 2.51s-6.48-1.28-7.52-2.41zm73.79 45.15c-4.78 0-8.52-2-8.52-4.57s3.74-4.57 8.52-4.57 8.52 2 8.52 4.57-3.74 4.57-8.52 4.57zm0-8.14c-4.08 0-7.52 1.64-7.52 3.57s3.44 3.57 7.52 3.57 7.52-1.63 7.52-3.57-3.45-3.57-7.52-3.57z" transform="translate(-354.86 -1154.45)"/><path d="M454.56 1247.91c-4.78 0-8.52-2-8.52-4.57v-3h1s.17 3.39 7.53 3.57c7 0 7.49-3.48 7.51-3.63l1 .06v3c0 2.56-3.74 4.57-8.52 4.57zm-7.52-5.4v.83c0 1.93 3.44 3.57 7.52 3.57s7.52-1.64 7.52-3.57v-.93c-1.05 1.21-3.18 2.5-7.52 2.5s-6.48-1.27-7.56-2.4zm7.52-11.6c-4.78 0-8.52-2-8.52-4.57s3.74-4.57 8.52-4.57 8.52 2 8.52 4.57-3.74 4.57-8.52 4.57zm0-8.14c-4.08 0-7.52 1.64-7.52 3.57s3.44 3.57 7.52 3.57 7.52-1.63 7.52-3.57-3.45-3.57-7.52-3.57z" transform="translate(-354.86 -1154.45)"/><path d="M454.56 1233.91c-4.78 0-8.52-2-8.52-4.57v-3h1s.17 3.39 7.53 3.57c7 0 7.49-3.48 7.51-3.63l1 .06v3c0 2.56-3.74 4.57-8.52 4.57zm-7.52-5.4v.83c0 1.93 3.44 3.57 7.52 3.57s7.52-1.64 7.52-3.57v-.93c-1.05 1.21-3.18 2.5-7.52 2.5s-6.48-1.27-7.56-2.4zm7.52-11.6c-4.78 0-8.52-2-8.52-4.57s3.74-4.57 8.52-4.57 8.52 2 8.52 4.57-3.74 4.57-8.52 4.57zm0-8.14c-4.08 0-7.52 1.64-7.52 3.57s3.44 3.57 7.52 3.57 7.52-1.63 7.52-3.57-3.45-3.57-7.52-3.57z" transform="translate(-354.86 -1154.45)"/><path d="M454.56 1219.91c-4.78 0-8.52-2-8.52-4.57v-3h1s.17 3.39 7.53 3.57c7 0 7.49-3.48 7.51-3.63l1 .06v3c0 2.56-3.74 4.57-8.52 4.57zm-7.52-5.4v.83c0 1.93 3.44 3.57 7.52 3.57s7.52-1.64 7.52-3.57v-.93c-1.05 1.21-3.18 2.5-7.52 2.5s-6.48-1.27-7.56-2.4zm7.52-11.6c-4.78 0-8.52-2-8.52-4.57s3.74-4.57 8.52-4.57 8.52 2 8.52 4.57-3.74 4.57-8.52 4.57zm0-8.14c-4.08 0-7.52 1.64-7.52 3.57s3.44 3.57 7.52 3.57 7.52-1.63 7.52-3.57-3.45-3.57-7.52-3.57z" transform="translate(-354.86 -1154.45)"/><path d="M454.56 1205.91c-4.78 0-8.52-2-8.52-4.57v-3h1s.17 3.39 7.53 3.57c7 0 7.49-3.48 7.51-3.63l1 .06v3c0 2.56-3.74 4.57-8.52 4.57zm-7.52-5.4v.83c0 1.93 3.44 3.57 7.52 3.57s7.52-1.64 7.52-3.57v-.93c-1.05 1.21-3.18 2.5-7.52 2.5s-6.48-1.27-7.56-2.4zm7.52-10.6c-4.78 0-8.52-2-8.52-4.57s3.74-4.57 8.52-4.57 8.52 2 8.52 4.57-3.74 4.57-8.52 4.57zm0-8.14c-4.08 0-7.52 1.64-7.52 3.57s3.44 3.57 7.52 3.57 7.52-1.63 7.52-3.57-3.45-3.57-7.52-3.57z" transform="translate(-354.86 -1154.45)"/><path d="M454.56 1192.91c-4.78 0-8.52-2-8.52-4.57v-3h1s.17 3.39 7.53 3.57c7 0 7.49-3.48 7.51-3.63l1 .06v3c0 2.56-3.74 4.57-8.52 4.57zm-7.52-5.4v.83c0 1.93 3.44 3.57 7.52 3.57s7.52-1.64 7.52-3.57v-.93c-1.05 1.21-3.18 2.5-7.52 2.5s-6.48-1.27-7.56-2.4zm7.52-11.6c-4.78 0-8.52-2-8.52-4.57s3.74-4.57 8.52-4.57 8.52 2 8.52 4.57-3.74 4.57-8.52 4.57zm0-8.14c-4.08 0-7.52 1.64-7.52 3.57s3.44 3.57 7.52 3.57 7.52-1.63 7.52-3.57-3.45-3.57-7.52-3.57z" transform="translate(-354.86 -1154.45)"/><path d="M454.56 1178.91c-4.78 0-8.52-2-8.52-4.57v-3h1s.17 3.39 7.53 3.57c7 0 7.49-3.48 7.51-3.63l1 .06v3c0 2.56-3.74 4.57-8.52 4.57zm-7.52-5.4v.83c0 1.93 3.44 3.57 7.52 3.57s7.52-1.64 7.52-3.57v-.93c-1.05 1.21-3.18 2.5-7.52 2.5s-6.48-1.27-7.56-2.4zm39.96 87.08c-4.78 0-8.52-2-8.52-4.57s3.74-4.57 8.52-4.57 8.52 2 8.52 4.57-3.72 4.57-8.52 4.57zm0-8.14c-4.08 0-7.52 1.63-7.52 3.57s3.44 3.57 7.52 3.57 7.52-1.63 7.52-3.57-3.42-3.57-7.52-3.57z" transform="translate(-354.86 -1154.45)"/><path d="M487 1263.59c-4.78 0-8.52-2-8.52-4.57v-3h1s.17 3.38 7.53 3.57c7 0 7.5-3.48 7.51-3.63l1 .06v3c.02 2.56-3.72 4.57-8.52 4.57zm-7.52-5.41v.84c0 1.93 3.44 3.57 7.52 3.57s7.52-1.64 7.52-3.57v-.93c-1.05 1.2-3.18 2.5-7.52 2.5s-6.46-1.28-7.5-2.41zm7.52-11.59c-4.78 0-8.52-2-8.52-4.57s3.74-4.57 8.52-4.57 8.52 2 8.52 4.57-3.72 4.57-8.52 4.57zm0-8.14c-4.08 0-7.52 1.63-7.52 3.57s3.44 3.57 7.52 3.57 7.52-1.63 7.52-3.57-3.42-3.57-7.52-3.57z" transform="translate(-354.86 -1154.45)"/><path d="M487 1249.59c-4.78 0-8.52-2-8.52-4.57v-3h1s.17 3.38 7.53 3.57c7 0 7.5-3.48 7.51-3.63l1 .06v3c.02 2.56-3.72 4.57-8.52 4.57zm-7.52-5.41v.84c0 1.93 3.44 3.57 7.52 3.57s7.52-1.64 7.52-3.57v-.93c-1.05 1.2-3.18 2.5-7.52 2.5s-6.46-1.28-7.5-2.41zm7.52-11.59c-4.78 0-8.52-2-8.52-4.57s3.74-4.57 8.52-4.57 8.52 2 8.52 4.57-3.72 4.57-8.52 4.57zm0-8.14c-4.08 0-7.52 1.63-7.52 3.57s3.44 3.57 7.52 3.57 7.52-1.63 7.52-3.57-3.42-3.57-7.52-3.57z" transform="translate(-354.86 -1154.45)"/><path d="M487 1235.59c-4.78 0-8.52-2-8.52-4.57v-3h1s.17 3.38 7.53 3.57c7 0 7.5-3.48 7.51-3.63l1 .06v3c.02 2.56-3.72 4.57-8.52 4.57zm-7.52-5.41v.84c0 1.93 3.44 3.57 7.52 3.57s7.52-1.64 7.52-3.57v-.93c-1.05 1.2-3.18 2.5-7.52 2.5s-6.46-1.28-7.5-2.41zm7.52-11.59c-4.78 0-8.52-2-8.52-4.57s3.74-4.57 8.52-4.57 8.52 2 8.52 4.57-3.72 4.57-8.52 4.57zm0-8.14c-4.08 0-7.52 1.63-7.52 3.57s3.44 3.57 7.52 3.57 7.52-1.63 7.52-3.57-3.42-3.57-7.52-3.57z" transform="translate(-354.86 -1154.45)"/><path d="M487 1221.59c-4.78 0-8.52-2-8.52-4.57v-3h1s.17 3.38 7.53 3.57c7 0 7.5-3.48 7.51-3.63l1 .06v3c.02 2.56-3.72 4.57-8.52 4.57zm-7.52-5.41v.84c0 1.93 3.44 3.57 7.52 3.57s7.52-1.64 7.52-3.57v-.93c-1.05 1.2-3.18 2.5-7.52 2.5s-6.46-1.28-7.5-2.41zm7.52-10.59c-4.78 0-8.52-2-8.52-4.57s3.74-4.57 8.52-4.57 8.52 2 8.52 4.57-3.72 4.57-8.52 4.57zm0-8.14c-4.08 0-7.52 1.63-7.52 3.57s3.44 3.57 7.52 3.57 7.52-1.63 7.52-3.57-3.42-3.57-7.52-3.57z" transform="translate(-354.86 -1154.45)"/><path d="M487 1208.59c-4.78 0-8.52-2-8.52-4.57v-3h1s.17 3.38 7.53 3.57c7 0 7.5-3.48 7.51-3.63l1 .06v3c.02 2.56-3.72 4.57-8.52 4.57zm-7.52-5.41v.84c0 1.93 3.44 3.57 7.52 3.57s7.52-1.64 7.52-3.57v-.93c-1.05 1.2-3.18 2.5-7.52 2.5s-6.46-1.28-7.5-2.41zm7.52-11.59c-4.78 0-8.52-2-8.52-4.57s3.74-4.57 8.52-4.57 8.52 2 8.52 4.57-3.72 4.57-8.52 4.57zm0-8.14c-4.08 0-7.52 1.63-7.52 3.57s3.44 3.57 7.52 3.57 7.52-1.63 7.52-3.57-3.42-3.57-7.52-3.57z" transform="translate(-354.86 -1154.45)"/><path d="M487 1194.59c-4.78 0-8.52-2-8.52-4.57v-3h1s.17 3.38 7.53 3.57c7 0 7.5-3.48 7.51-3.63l1 .06v3c.02 2.56-3.72 4.57-8.52 4.57zm-7.52-5.41v.84c0 1.93 3.44 3.57 7.52 3.57s7.52-1.64 7.52-3.57v-.93c-1.05 1.2-3.18 2.5-7.52 2.5s-6.46-1.28-7.5-2.41zm7.52-11.59c-4.78 0-8.52-2-8.52-4.57s3.74-4.57 8.52-4.57 8.52 2 8.52 4.57-3.72 4.57-8.52 4.57zm0-8.14c-4.08 0-7.52 1.63-7.52 3.57s3.44 3.57 7.52 3.57 7.52-1.63 7.52-3.57-3.42-3.57-7.52-3.57z" transform="translate(-354.86 -1154.45)"/><path d="M487 1180.59c-4.78 0-8.52-2-8.52-4.57v-3h1s.17 3.38 7.53 3.57c7 0 7.5-3.48 7.51-3.63l1 .06v3c.02 2.56-3.72 4.57-8.52 4.57zm-7.52-5.41v.84c0 1.93 3.44 3.57 7.52 3.57s7.52-1.64 7.52-3.57v-.93c-1.05 1.2-3.18 2.5-7.52 2.5s-6.46-1.28-7.5-2.41zm7.52-11.59c-4.78 0-8.52-2-8.52-4.57s3.74-4.57 8.52-4.57 8.52 2 8.52 4.57-3.72 4.57-8.52 4.57zm0-8.14c-4.08 0-7.52 1.63-7.52 3.57s3.44 3.57 7.52 3.57 7.52-1.63 7.52-3.57-3.42-3.57-7.52-3.57z" transform="translate(-354.86 -1154.45)"/><path d="M487 1166.59c-4.78 0-8.52-2-8.52-4.57v-3h1s.17 3.38 7.53 3.57c7 0 7.5-3.48 7.51-3.63l1 .06v3c.02 2.56-3.72 4.57-8.52 4.57zm-7.52-5.41v.84c0 1.93 3.44 3.57 7.52 3.57s7.52-1.64 7.52-3.57v-.93c-1.05 1.2-3.18 2.5-7.52 2.5s-6.46-1.28-7.5-2.41zm40.4 116.14c-4.78 0-8.52-2-8.52-4.57s3.74-4.57 8.52-4.57 8.52 2 8.52 4.57-3.74 4.57-8.52 4.57zm0-8.14c-4.08 0-7.52 1.63-7.52 3.57s3.44 3.57 7.52 3.57 7.52-1.63 7.52-3.57-3.4-3.57-7.52-3.57z" transform="translate(-354.86 -1154.45)"/><path d="M519.88 1280.32c-4.78 0-8.52-2-8.52-4.57v-3h1s.17 3.39 7.53 3.57c7 0 7.5-3.48 7.52-3.63l1 .06v3c-.01 2.56-3.75 4.57-8.53 4.57zm-7.52-5.4v.83c0 1.93 3.44 3.57 7.52 3.57s7.52-1.64 7.52-3.57v-.93c-1 1.21-3.18 2.5-7.52 2.5s-6.48-1.32-7.52-2.4zm7.52-11.6c-4.78 0-8.52-2-8.52-4.57s3.74-4.57 8.52-4.57 8.52 2 8.52 4.57-3.74 4.57-8.52 4.57zm0-8.14c-4.08 0-7.52 1.63-7.52 3.57s3.44 3.57 7.52 3.57 7.52-1.63 7.52-3.57-3.4-3.57-7.52-3.57z" transform="translate(-354.86 -1154.45)"/><path d="M519.88 1266.32c-4.78 0-8.52-2-8.52-4.57v-3h1s.17 3.39 7.53 3.57c7 0 7.5-3.48 7.52-3.63l1 .06v3c-.01 2.56-3.75 4.57-8.53 4.57zm-7.52-5.4v.83c0 1.93 3.44 3.57 7.52 3.57s7.52-1.64 7.52-3.57v-.93c-1 1.21-3.18 2.5-7.52 2.5s-6.48-1.32-7.52-2.4zm7.52-11.6c-4.78 0-8.52-2-8.52-4.57s3.74-4.57 8.52-4.57 8.52 2 8.52 4.57-3.74 4.57-8.52 4.57zm0-8.14c-4.08 0-7.52 1.63-7.52 3.57s3.44 3.57 7.52 3.57 7.52-1.63 7.52-3.57-3.4-3.57-7.52-3.57z" transform="translate(-354.86 -1154.45)"/><path d="M519.88 1252.32c-4.78 0-8.52-2-8.52-4.57v-3h1s.17 3.39 7.53 3.57c7 0 7.5-3.48 7.52-3.63l1 .06v3c-.01 2.56-3.75 4.57-8.53 4.57zm-7.52-5.4v.83c0 1.93 3.44 3.57 7.52 3.57s7.52-1.64 7.52-3.57v-.93c-1 1.21-3.18 2.5-7.52 2.5s-6.48-1.32-7.52-2.4zm7.52-11.6c-4.78 0-8.52-2-8.52-4.57s3.74-4.57 8.52-4.57 8.52 2 8.52 4.57-3.74 4.57-8.52 4.57zm0-8.14c-4.08 0-7.52 1.63-7.52 3.57s3.44 3.57 7.52 3.57 7.52-1.63 7.52-3.57-3.4-3.57-7.52-3.57z" transform="translate(-354.86 -1154.45)"/><path d="M519.88 1238.32c-4.78 0-8.52-2-8.52-4.57v-3h1s.17 3.39 7.53 3.57c7 0 7.5-3.48 7.52-3.63l1 .06v3c-.01 2.56-3.75 4.57-8.53 4.57zm-7.52-5.4v.83c0 1.93 3.44 3.57 7.52 3.57s7.52-1.64 7.52-3.57v-.93c-1 1.21-3.18 2.5-7.52 2.5s-6.48-1.32-7.52-2.4zm7.52-10.6c-4.78 0-8.52-2-8.52-4.57s3.74-4.57 8.52-4.57 8.52 2 8.52 4.57-3.74 4.57-8.52 4.57zm0-8.14c-4.08 0-7.52 1.63-7.52 3.57s3.44 3.57 7.52 3.57 7.52-1.63 7.52-3.57-3.4-3.57-7.52-3.57z" transform="translate(-354.86 -1154.45)"/><path d="M519.88 1225.32c-4.78 0-8.52-2-8.52-4.57v-3h1s.17 3.39 7.53 3.57c7 0 7.5-3.48 7.52-3.63l1 .06v3c-.01 2.56-3.75 4.57-8.53 4.57zm-7.52-5.4v.83c0 1.93 3.44 3.57 7.52 3.57s7.52-1.64 7.52-3.57v-.93c-1 1.21-3.18 2.5-7.52 2.5s-6.48-1.32-7.52-2.4zm7.52-11.6c-4.78 0-8.52-2-8.52-4.57s3.74-4.57 8.52-4.57 8.52 2 8.52 4.57-3.74 4.57-8.52 4.57zm0-8.14c-4.08 0-7.52 1.63-7.52 3.57s3.44 3.57 7.52 3.57 7.52-1.63 7.52-3.57-3.4-3.57-7.52-3.57z" transform="translate(-354.86 -1154.45)"/><path d="M519.88 1211.32c-4.78 0-8.52-2-8.52-4.57v-3h1s.17 3.39 7.53 3.57c7 0 7.5-3.48 7.52-3.63l1 .06v3c-.01 2.56-3.75 4.57-8.53 4.57zm-7.52-5.4v.83c0 1.93 3.44 3.57 7.52 3.57s7.52-1.64 7.52-3.57v-.93c-1 1.21-3.18 2.5-7.52 2.5s-6.48-1.32-7.52-2.4zm7.52-11.6c-4.78 0-8.52-2-8.52-4.57s3.74-4.57 8.52-4.57 8.52 2 8.52 4.57-3.74 4.57-8.52 4.57zm0-8.14c-4.08 0-7.52 1.63-7.52 3.57s3.44 3.57 7.52 3.57 7.52-1.63 7.52-3.57-3.4-3.57-7.52-3.57z" transform="translate(-354.86 -1154.45)"/><path d="M519.88 1197.32c-4.78 0-8.52-2-8.52-4.57v-3h1s.17 3.39 7.53 3.57c7 0 7.5-3.48 7.52-3.63l1 .06v3c-.01 2.56-3.75 4.57-8.53 4.57zm-7.52-5.4v.83c0 1.93 3.44 3.57 7.52 3.57s7.52-1.64 7.52-3.57v-.93c-1 1.21-3.18 2.5-7.52 2.5s-6.48-1.32-7.52-2.4zm7.52-11.6c-4.78 0-8.52-2-8.52-4.57s3.74-4.57 8.52-4.57 8.52 2 8.52 4.57-3.74 4.57-8.52 4.57zm0-8.14c-4.08 0-7.52 1.63-7.52 3.57s3.44 3.57 7.52 3.57 7.52-1.63 7.52-3.57-3.4-3.57-7.52-3.57z" transform="translate(-354.86 -1154.45)"/><path d="M519.88 1183.32c-4.78 0-8.52-2-8.52-4.57v-3h1s.17 3.39 7.53 3.57c7 0 7.5-3.48 7.52-3.63l1 .06v3c-.01 2.56-3.75 4.57-8.53 4.57zm-7.52-5.4v.83c0 1.93 3.44 3.57 7.52 3.57s7.52-1.64 7.52-3.57v-.93c-1 1.21-3.18 2.5-7.52 2.5s-6.48-1.32-7.52-2.4zm40.2 114.33c-4.78 0-8.52-2-8.52-4.57s3.74-4.57 8.52-4.57 8.52 2 8.52 4.57-3.74 4.57-8.52 4.57zm0-8.14c-4.08 0-7.52 1.63-7.52 3.57s3.44 3.57 7.52 3.57 7.52-1.63 7.52-3.57-3.45-3.57-7.52-3.57z" transform="translate(-354.86 -1154.45)"/><path d="M552.56 1295.25c-4.78 0-8.52-2-8.52-4.57v-3h1s.17 3.38 7.53 3.57c7 0 7.51-3.59 7.51-3.63l1 .06v3c0 2.56-3.74 4.57-8.52 4.57zm-7.52-5.4v.83c0 1.93 3.44 3.57 7.52 3.57s7.52-1.64 7.52-3.57v-.93c-1.05 1.2-3.18 2.5-7.52 2.5s-6.48-1.25-7.56-2.4zm7.52-11.6c-4.78 0-8.52-2-8.52-4.57s3.74-4.57 8.52-4.57 8.52 2 8.52 4.57-3.74 4.57-8.52 4.57zm0-8.14c-4.08 0-7.52 1.63-7.52 3.57s3.44 3.57 7.52 3.57 7.52-1.63 7.52-3.57-3.45-3.57-7.52-3.57z" transform="translate(-354.86 -1154.45)"/><path d="M552.56 1281.25c-4.78 0-8.52-2-8.52-4.57v-3h1s.17 3.38 7.53 3.57c7 0 7.51-3.59 7.51-3.63l1 .06v3c0 2.56-3.74 4.57-8.52 4.57zm-7.52-5.4v.83c0 1.93 3.44 3.57 7.52 3.57s7.52-1.64 7.52-3.57v-.93c-1.05 1.2-3.18 2.5-7.52 2.5s-6.48-1.25-7.56-2.4zm7.52-11.6c-4.78 0-8.52-2-8.52-4.57s3.74-4.57 8.52-4.57 8.52 2 8.52 4.57-3.74 4.57-8.52 4.57zm0-8.14c-4.08 0-7.52 1.63-7.52 3.57s3.44 3.57 7.52 3.57 7.52-1.63 7.52-3.57-3.45-3.57-7.52-3.57z" transform="translate(-354.86 -1154.45)"/><path d="M552.56 1267.25c-4.78 0-8.52-2-8.52-4.57v-3h1s.17 3.38 7.53 3.57c7 0 7.51-3.59 7.51-3.63l1 .06v3c0 2.56-3.74 4.57-8.52 4.57zm-7.52-5.4v.83c0 1.93 3.44 3.57 7.52 3.57s7.52-1.64 7.52-3.57v-.93c-1.05 1.2-3.18 2.5-7.52 2.5s-6.48-1.25-7.56-2.4zm7.52-11.6c-4.78 0-8.52-2-8.52-4.57s3.74-4.57 8.52-4.57 8.52 2 8.52 4.57-3.74 4.57-8.52 4.57zm0-8.14c-4.08 0-7.52 1.63-7.52 3.57s3.44 3.57 7.52 3.57 7.52-1.63 7.52-3.57-3.45-3.57-7.52-3.57z" transform="translate(-354.86 -1154.45)"/><path d="M552.56 1253.25c-4.78 0-8.52-2-8.52-4.57v-3h1s.17 3.38 7.53 3.57c7 0 7.51-3.59 7.51-3.63l1 .06v3c0 2.56-3.74 4.57-8.52 4.57zm-7.52-5.4v.83c0 1.93 3.44 3.57 7.52 3.57s7.52-1.64 7.52-3.57v-.93c-1.05 1.2-3.18 2.5-7.52 2.5s-6.48-1.25-7.56-2.4zm7.52-10.6c-4.78 0-8.52-2-8.52-4.57s3.74-4.57 8.52-4.57 8.52 2 8.52 4.57-3.74 4.57-8.52 4.57zm0-8.14c-4.08 0-7.52 1.63-7.52 3.57s3.44 3.57 7.52 3.57 7.52-1.63 7.52-3.57-3.45-3.57-7.52-3.57z" transform="translate(-354.86 -1154.45)"/><path d="M552.56 1240.25c-4.78 0-8.52-2-8.52-4.57v-3h1s.17 3.38 7.53 3.57c7 0 7.51-3.59 7.51-3.63l1 .06v3c0 2.56-3.74 4.57-8.52 4.57zm-7.52-5.4v.83c0 1.93 3.44 3.57 7.52 3.57s7.52-1.64 7.52-3.57v-.93c-1.05 1.2-3.18 2.5-7.52 2.5s-6.48-1.25-7.56-2.4zm7.52-11.6c-4.78 0-8.52-2-8.52-4.57s3.74-4.57 8.52-4.57 8.52 2 8.52 4.57-3.74 4.57-8.52 4.57zm0-8.14c-4.08 0-7.52 1.63-7.52 3.57s3.44 3.57 7.52 3.57 7.52-1.63 7.52-3.57-3.45-3.57-7.52-3.57z" transform="translate(-354.86 -1154.45)"/><path d="M552.56 1226.25c-4.78 0-8.52-2-8.52-4.57v-3h1s.17 3.38 7.53 3.57c7 0 7.51-3.59 7.51-3.63l1 .06v3c0 2.56-3.74 4.57-8.52 4.57zm-7.52-5.4v.83c0 1.93 3.44 3.57 7.52 3.57s7.52-1.64 7.52-3.57v-.93c-1.05 1.2-3.18 2.5-7.52 2.5s-6.48-1.25-7.56-2.4zm7.52-11.6c-4.78 0-8.52-2-8.52-4.57s3.74-4.57 8.52-4.57 8.52 2 8.52 4.57-3.74 4.57-8.52 4.57zm0-8.14c-4.08 0-7.52 1.63-7.52 3.57s3.44 3.57 7.52 3.57 7.52-1.63 7.52-3.57-3.45-3.57-7.52-3.57z" transform="translate(-354.86 -1154.45)"/><path d="M552.56 1212.25c-4.78 0-8.52-2-8.52-4.57v-3h1s.17 3.38 7.53 3.57c7 0 7.51-3.59 7.51-3.63l1 .06v3c0 2.56-3.74 4.57-8.52 4.57zm-7.52-5.4v.83c0 1.93 3.44 3.57 7.52 3.57s7.52-1.64 7.52-3.57v-.93c-1.05 1.2-3.18 2.5-7.52 2.5s-6.48-1.25-7.56-2.4zm7.52-11.6c-4.78 0-8.52-2-8.52-4.57s3.74-4.57 8.52-4.57 8.52 2 8.52 4.57-3.74 4.57-8.52 4.57zm0-8.14c-4.08 0-7.52 1.63-7.52 3.57s3.44 3.57 7.52 3.57 7.52-1.63 7.52-3.57-3.45-3.57-7.52-3.57z" transform="translate(-354.86 -1154.45)"/><path d="M552.56 1198.25c-4.78 0-8.52-2-8.52-4.57v-3h1s.17 3.38 7.53 3.57c7 0 7.51-3.59 7.51-3.63l1 .06v3c0 2.56-3.74 4.57-8.52 4.57zm-7.52-5.4v.83c0 1.93 3.44 3.57 7.52 3.57s7.52-1.64 7.52-3.57v-.93c-1.05 1.2-3.18 2.5-7.52 2.5s-6.48-1.25-7.56-2.4zM585 1308.93c-4.78 0-8.52-2-8.52-4.57s3.74-4.58 8.52-4.58 8.52 2 8.52 4.58-3.72 4.57-8.52 4.57zm0-8.15c-4.08 0-7.52 1.64-7.52 3.58s3.44 3.57 7.52 3.57 7.52-1.64 7.52-3.57-3.43-3.58-7.52-3.58z" transform="translate(-354.86 -1154.45)"/><path d="M585 1311.93c-4.78 0-8.52-2-8.52-4.58v-3h1s.17 3.38 7.53 3.57c7 0 7.49-3.48 7.51-3.63l1 .06v3c.02 2.57-3.72 4.58-8.52 4.58zm-7.52-5.41v.83c0 1.94 3.44 3.58 7.52 3.58s7.52-1.64 7.52-3.58v-.92c-1 1.2-3.18 2.5-7.52 2.5s-6.46-1.28-7.5-2.41zm7.52-11.59c-4.78 0-8.52-2-8.52-4.57s3.74-4.58 8.52-4.58 8.52 2 8.52 4.58-3.72 4.57-8.52 4.57zm0-8.15c-4.08 0-7.52 1.64-7.52 3.58s3.44 3.57 7.52 3.57 7.52-1.64 7.52-3.57-3.43-3.58-7.52-3.58z" transform="translate(-354.86 -1154.45)"/><path d="M585 1297.93c-4.78 0-8.52-2-8.52-4.58v-3h1s.17 3.38 7.53 3.57c7 0 7.49-3.48 7.51-3.63l1 .06v3c.02 2.57-3.72 4.58-8.52 4.58zm-7.52-5.41v.83c0 1.94 3.44 3.58 7.52 3.58s7.52-1.64 7.52-3.58v-.92c-1 1.2-3.18 2.5-7.52 2.5s-6.46-1.28-7.5-2.41zm7.52-11.59c-4.78 0-8.52-2-8.52-4.57s3.74-4.58 8.52-4.58 8.52 2 8.52 4.58-3.72 4.57-8.52 4.57zm0-8.15c-4.08 0-7.52 1.64-7.52 3.58s3.44 3.57 7.52 3.57 7.52-1.64 7.52-3.57-3.43-3.58-7.52-3.58z" transform="translate(-354.86 -1154.45)"/><path d="M585 1283.93c-4.78 0-8.52-2-8.52-4.58v-3h1s.17 3.38 7.53 3.57c7 0 7.49-3.48 7.51-3.63l1 .06v3c.02 2.57-3.72 4.58-8.52 4.58zm-7.52-5.41v.83c0 1.94 3.44 3.58 7.52 3.58s7.52-1.64 7.52-3.58v-.92c-1 1.2-3.18 2.5-7.52 2.5s-6.46-1.28-7.5-2.41zm7.52-11.59c-4.78 0-8.52-2-8.52-4.57s3.74-4.58 8.52-4.58 8.52 2 8.52 4.58-3.72 4.57-8.52 4.57zm0-8.15c-4.08 0-7.52 1.64-7.52 3.58s3.44 3.57 7.52 3.57 7.52-1.64 7.52-3.57-3.43-3.58-7.52-3.58z" transform="translate(-354.86 -1154.45)"/><path d="M585 1269.93c-4.78 0-8.52-2-8.52-4.58v-3h1s.17 3.38 7.53 3.57c7 0 7.49-3.48 7.51-3.63l1 .06v3c.02 2.57-3.72 4.58-8.52 4.58zm-7.52-5.41v.83c0 1.94 3.44 3.58 7.52 3.58s7.52-1.64 7.52-3.58v-.92c-1 1.2-3.18 2.5-7.52 2.5s-6.46-1.28-7.5-2.41zm7.52-10.59c-4.78 0-8.52-2-8.52-4.57s3.74-4.58 8.52-4.58 8.52 2 8.52 4.58-3.72 4.57-8.52 4.57zm0-8.15c-4.08 0-7.52 1.64-7.52 3.58s3.44 3.57 7.52 3.57 7.52-1.64 7.52-3.57-3.43-3.58-7.52-3.58z" transform="translate(-354.86 -1154.45)"/><path d="M585 1256.93c-4.78 0-8.52-2-8.52-4.58v-3h1s.17 3.38 7.53 3.57c7 0 7.49-3.48 7.51-3.63l1 .06v3c.02 2.57-3.72 4.58-8.52 4.58zm-7.52-5.41v.83c0 1.94 3.44 3.58 7.52 3.58s7.52-1.64 7.52-3.58v-.92c-1 1.2-3.18 2.5-7.52 2.5s-6.46-1.28-7.5-2.41zm7.52-11.59c-4.78 0-8.52-2-8.52-4.57s3.74-4.58 8.52-4.58 8.52 2 8.52 4.58-3.72 4.57-8.52 4.57zm0-8.15c-4.08 0-7.52 1.64-7.52 3.58s3.44 3.57 7.52 3.57 7.52-1.64 7.52-3.57-3.43-3.58-7.52-3.58z" transform="translate(-354.86 -1154.45)"/><path d="M585 1242.93c-4.78 0-8.52-2-8.52-4.58v-3h1s.17 3.38 7.53 3.57c7 0 7.49-3.48 7.51-3.63l1 .06v3c.02 2.57-3.72 4.58-8.52 4.58zm-7.52-5.41v.83c0 1.94 3.44 3.58 7.52 3.58s7.52-1.64 7.52-3.58v-.92c-1 1.2-3.18 2.5-7.52 2.5s-6.46-1.28-7.5-2.41zm7.52-11.59c-4.78 0-8.52-2-8.52-4.57s3.74-4.58 8.52-4.58 8.52 2 8.52 4.58-3.72 4.57-8.52 4.57zm0-8.15c-4.08 0-7.52 1.64-7.52 3.58s3.44 3.57 7.52 3.57 7.52-1.64 7.52-3.57-3.43-3.58-7.52-3.58z" transform="translate(-354.86 -1154.45)"/><path d="M585 1228.93c-4.78 0-8.52-2-8.52-4.58v-3h1s.17 3.38 7.53 3.57c7 0 7.49-3.48 7.51-3.63l1 .06v3c.02 2.57-3.72 4.58-8.52 4.58zm-7.52-5.41v.83c0 1.94 3.44 3.58 7.52 3.58s7.52-1.64 7.52-3.58v-.92c-1 1.2-3.18 2.5-7.52 2.5s-6.46-1.28-7.5-2.41zm7.52-11.59c-4.78 0-8.52-2-8.52-4.57s3.74-4.58 8.52-4.58 8.52 2 8.52 4.58-3.72 4.57-8.52 4.57zm0-8.15c-4.08 0-7.52 1.64-7.52 3.58s3.44 3.57 7.52 3.57 7.52-1.64 7.52-3.57-3.43-3.58-7.52-3.58z" transform="translate(-354.86 -1154.45)"/><path d="M585 1214.93c-4.78 0-8.52-2-8.52-4.58v-3h1s.17 3.38 7.53 3.57c7 0 7.49-3.48 7.51-3.63l1 .06v3c.02 2.57-3.72 4.58-8.52 4.58zm-7.52-5.41v.83c0 1.94 3.44 3.58 7.52 3.58s7.52-1.64 7.52-3.58v-.92c-1 1.2-3.18 2.5-7.52 2.5s-6.46-1.28-7.5-2.41zm40.22 114.34c-4.78 0-8.53-2-8.53-4.57s3.75-4.58 8.53-4.58 8.52 2 8.52 4.58-3.74 4.57-8.52 4.57zm0-8.15c-4.08 0-7.53 1.64-7.53 3.58s3.45 3.57 7.53 3.57 7.52-1.64 7.52-3.57-3.45-3.58-7.52-3.58z" transform="translate(-354.86 -1154.45)"/><path d="M617.7 1326.85c-4.78 0-8.53-2-8.53-4.57v-3h1s.17 3.38 7.54 3.57c7 0 7.49-3.49 7.51-3.63l1 .06v3c0 2.57-3.74 4.57-8.52 4.57zm-7.53-5.4v.83c0 1.94 3.45 3.57 7.53 3.57s7.52-1.63 7.52-3.57v-.93c-1.05 1.21-3.18 2.51-7.52 2.51s-6.48-1.28-7.53-2.41zm7.53-11.59c-4.78 0-8.53-2-8.53-4.57s3.75-4.58 8.53-4.58 8.52 2 8.52 4.58-3.74 4.57-8.52 4.57zm0-8.15c-4.08 0-7.53 1.64-7.53 3.58s3.45 3.57 7.53 3.57 7.52-1.64 7.52-3.57-3.45-3.58-7.52-3.58z" transform="translate(-354.86 -1154.45)"/><path d="M617.7 1312.85c-4.78 0-8.53-2-8.53-4.57v-3h1s.17 3.38 7.54 3.57c7 0 7.49-3.49 7.51-3.63l1 .06v3c0 2.57-3.74 4.57-8.52 4.57zm-7.53-5.4v.83c0 1.94 3.45 3.57 7.53 3.57s7.52-1.63 7.52-3.57v-.93c-1.05 1.21-3.18 2.51-7.52 2.51s-6.48-1.28-7.53-2.41zm7.53-11.59c-4.78 0-8.53-2-8.53-4.57s3.75-4.58 8.53-4.58 8.52 2 8.52 4.58-3.74 4.57-8.52 4.57zm0-8.15c-4.08 0-7.53 1.64-7.53 3.58s3.45 3.57 7.53 3.57 7.52-1.64 7.52-3.57-3.45-3.58-7.52-3.58z" transform="translate(-354.86 -1154.45)"/><path d="M617.7 1298.85c-4.78 0-8.53-2-8.53-4.57v-3h1s.17 3.38 7.54 3.57c7 0 7.49-3.49 7.51-3.63l1 .06v3c0 2.57-3.74 4.57-8.52 4.57zm-7.53-5.4v.83c0 1.94 3.45 3.57 7.53 3.57s7.52-1.63 7.52-3.57v-.93c-1.05 1.21-3.18 2.51-7.52 2.51s-6.48-1.28-7.53-2.41zm7.53-11.59c-4.78 0-8.53-2-8.53-4.57s3.75-4.58 8.53-4.58 8.52 2 8.52 4.58-3.74 4.57-8.52 4.57zm0-8.15c-4.08 0-7.53 1.64-7.53 3.58s3.45 3.57 7.53 3.57 7.52-1.64 7.52-3.57-3.45-3.58-7.52-3.58z" transform="translate(-354.86 -1154.45)"/><path d="M617.7 1284.85c-4.78 0-8.53-2-8.53-4.57v-3h1s.17 3.38 7.54 3.57c7 0 7.49-3.49 7.51-3.63l1 .06v3c0 2.57-3.74 4.57-8.52 4.57zm-7.53-5.4v.83c0 1.94 3.45 3.57 7.53 3.57s7.52-1.63 7.52-3.57v-.93c-1.05 1.21-3.18 2.51-7.52 2.51s-6.48-1.28-7.53-2.41zm7.53-10.59c-4.78 0-8.53-2-8.53-4.57s3.75-4.58 8.53-4.58 8.52 2 8.52 4.58-3.74 4.57-8.52 4.57zm0-8.15c-4.08 0-7.53 1.64-7.53 3.58s3.45 3.57 7.53 3.57 7.52-1.64 7.52-3.57-3.45-3.58-7.52-3.58z" transform="translate(-354.86 -1154.45)"/><path d="M617.7 1271.85c-4.78 0-8.53-2-8.53-4.57v-3h1s.17 3.38 7.54 3.57c7 0 7.49-3.49 7.51-3.63l1 .06v3c0 2.57-3.74 4.57-8.52 4.57zm-7.53-5.4v.83c0 1.94 3.45 3.57 7.53 3.57s7.52-1.63 7.52-3.57v-.93c-1.05 1.21-3.18 2.51-7.52 2.51s-6.48-1.28-7.53-2.41zm7.53-11.59c-4.78 0-8.53-2-8.53-4.57s3.75-4.58 8.53-4.58 8.52 2 8.52 4.58-3.74 4.57-8.52 4.57zm0-8.15c-4.08 0-7.53 1.64-7.53 3.58s3.45 3.57 7.53 3.57 7.52-1.64 7.52-3.57-3.45-3.58-7.52-3.58z" transform="translate(-354.86 -1154.45)"/><path d="M617.7 1257.85c-4.78 0-8.53-2-8.53-4.57v-3h1s.17 3.38 7.54 3.57c7 0 7.49-3.49 7.51-3.63l1 .06v3c0 2.57-3.74 4.57-8.52 4.57zm-7.53-5.4v.83c0 1.94 3.45 3.57 7.53 3.57s7.52-1.63 7.52-3.57v-.93c-1.05 1.21-3.18 2.51-7.52 2.51s-6.48-1.28-7.53-2.41zm7.53-11.59c-4.78 0-8.53-2-8.53-4.57s3.75-4.58 8.53-4.58 8.52 2 8.52 4.58-3.74 4.57-8.52 4.57zm0-8.15c-4.08 0-7.53 1.64-7.53 3.58s3.45 3.57 7.53 3.57 7.52-1.64 7.52-3.57-3.45-3.58-7.52-3.58z" transform="translate(-354.86 -1154.45)"/><path d="M617.7 1243.85c-4.78 0-8.53-2-8.53-4.57v-3h1s.17 3.38 7.54 3.57c7 0 7.49-3.49 7.51-3.63l1 .06v3c0 2.57-3.74 4.57-8.52 4.57zm-7.53-5.4v.83c0 1.94 3.45 3.57 7.53 3.57s7.52-1.63 7.52-3.57v-.93c-1.05 1.21-3.18 2.51-7.52 2.51s-6.48-1.28-7.53-2.41zm7.53-11.59c-4.78 0-8.53-2-8.53-4.57s3.75-4.58 8.53-4.58 8.52 2 8.52 4.58-3.74 4.57-8.52 4.57zm0-8.15c-4.08 0-7.53 1.64-7.53 3.58s3.45 3.57 7.53 3.57 7.52-1.64 7.52-3.57-3.45-3.58-7.52-3.58z" transform="translate(-354.86 -1154.45)"/><path d="M617.7 1229.85c-4.78 0-8.53-2-8.53-4.57v-3h1s.17 3.38 7.54 3.57c7 0 7.49-3.49 7.51-3.63l1 .06v3c0 2.57-3.74 4.57-8.52 4.57zm-7.53-5.4v.83c0 1.94 3.45 3.57 7.53 3.57s7.52-1.63 7.52-3.57v-.93c-1.05 1.21-3.18 2.51-7.52 2.51s-6.48-1.28-7.53-2.41zm41.47 86.09c-4.78 0-8.53-2-8.53-4.57s3.75-4.58 8.53-4.58 8.52 2 8.52 4.58-3.74 4.57-8.52 4.57zm0-8.15c-4.08 0-7.53 1.64-7.53 3.58s3.45 3.57 7.53 3.57 7.52-1.64 7.52-3.57-3.45-3.58-7.52-3.58z" transform="translate(-354.86 -1154.45)"/><path d="M651.64 1313.54c-4.78 0-8.53-2-8.53-4.58v-3h1s.17 3.38 7.54 3.57c7 0 7.49-3.49 7.51-3.63l1 .06v3c0 2.57-3.74 4.58-8.52 4.58zm-7.53-5.41v.83c0 1.94 3.45 3.58 7.53 3.58s7.52-1.64 7.52-3.58v-.96c-1 1.2-3.18 2.5-7.52 2.5s-6.48-1.24-7.53-2.37zm7.53-11.59c-4.78 0-8.53-2-8.53-4.57s3.75-4.58 8.53-4.58 8.52 2 8.52 4.58-3.74 4.57-8.52 4.57zm0-8.15c-4.08 0-7.53 1.64-7.53 3.58s3.45 3.57 7.53 3.57 7.52-1.64 7.52-3.57-3.45-3.58-7.52-3.58z" transform="translate(-354.86 -1154.45)"/><path d="M651.64 1299.54c-4.78 0-8.53-2-8.53-4.58v-3h1s.17 3.38 7.54 3.57c7 0 7.49-3.49 7.51-3.63l1 .06v3c0 2.57-3.74 4.58-8.52 4.58zm-7.53-5.41v.83c0 1.94 3.45 3.58 7.53 3.58s7.52-1.64 7.52-3.58v-.96c-1 1.2-3.18 2.5-7.52 2.5s-6.48-1.24-7.53-2.37zm7.53-10.59c-4.78 0-8.53-2-8.53-4.57s3.75-4.58 8.53-4.58 8.52 2 8.52 4.58-3.74 4.57-8.52 4.57zm0-8.15c-4.08 0-7.53 1.64-7.53 3.58s3.45 3.57 7.53 3.57 7.52-1.64 7.52-3.57-3.45-3.58-7.52-3.58z" transform="translate(-354.86 -1154.45)"/><path d="M651.64 1286.54c-4.78 0-8.53-2-8.53-4.58v-3h1s.17 3.38 7.54 3.57c7 0 7.49-3.49 7.51-3.63l1 .06v3c0 2.57-3.74 4.58-8.52 4.58zm-7.53-5.41v.83c0 1.94 3.45 3.58 7.53 3.58s7.52-1.64 7.52-3.58v-.96c-1 1.2-3.18 2.5-7.52 2.5s-6.48-1.24-7.53-2.37zm7.53-11.59c-4.78 0-8.53-2-8.53-4.57s3.75-4.58 8.53-4.58 8.52 2 8.52 4.58-3.74 4.57-8.52 4.57zm0-8.15c-4.08 0-7.53 1.64-7.53 3.58s3.45 3.57 7.53 3.57 7.52-1.64 7.52-3.57-3.45-3.58-7.52-3.58z" transform="translate(-354.86 -1154.45)"/><path d="M651.64 1272.54c-4.78 0-8.53-2-8.53-4.58v-3h1s.17 3.38 7.54 3.57c7 0 7.49-3.49 7.51-3.63l1 .06v3c0 2.57-3.74 4.58-8.52 4.58zm-7.53-5.41v.83c0 1.94 3.45 3.58 7.53 3.58s7.52-1.64 7.52-3.58v-.96c-1 1.2-3.18 2.5-7.52 2.5s-6.48-1.24-7.53-2.37zm7.53-11.59c-4.78 0-8.53-2-8.53-4.57s3.75-4.58 8.53-4.58 8.52 2 8.52 4.58-3.74 4.57-8.52 4.57zm0-8.15c-4.08 0-7.53 1.64-7.53 3.58s3.45 3.57 7.53 3.57 7.52-1.64 7.52-3.57-3.45-3.58-7.52-3.58z" transform="translate(-354.86 -1154.45)"/><path d="M651.64 1258.54c-4.78 0-8.53-2-8.53-4.58v-3h1s.17 3.38 7.54 3.57c7 0 7.49-3.49 7.51-3.63l1 .06v3c0 2.57-3.74 4.58-8.52 4.58zm-7.53-5.41v.83c0 1.94 3.45 3.58 7.53 3.58s7.52-1.64 7.52-3.58v-.96c-1 1.2-3.18 2.5-7.52 2.5s-6.48-1.24-7.53-2.37zm7.53-11.59c-4.78 0-8.53-2-8.53-4.57s3.75-4.58 8.53-4.58 8.52 2 8.52 4.58-3.74 4.57-8.52 4.57zm0-8.15c-4.08 0-7.53 1.64-7.53 3.58s3.45 3.57 7.53 3.57 7.52-1.64 7.52-3.57-3.45-3.58-7.52-3.58z" transform="translate(-354.86 -1154.45)"/><path d="M651.64 1244.54c-4.78 0-8.53-2-8.53-4.58v-3h1s.17 3.38 7.54 3.57c7 0 7.49-3.49 7.51-3.63l1 .06v3c0 2.57-3.74 4.58-8.52 4.58zm-7.53-5.41v.83c0 1.94 3.45 3.58 7.53 3.58s7.52-1.64 7.52-3.58v-.96c-1 1.2-3.18 2.5-7.52 2.5s-6.48-1.24-7.53-2.37zm73.04 46.77c-4.78 0-8.53-2-8.53-4.58s3.75-4.57 8.53-4.57 8.52 2 8.52 4.57-3.75 4.58-8.52 4.58zm0-8.15c-4.08 0-7.53 1.64-7.53 3.57s3.45 3.58 7.53 3.58 7.52-1.64 7.52-3.58-3.45-3.57-7.52-3.57z" transform="translate(-354.86 -1154.45)"/><path d="M717.15 1288.89c-4.78 0-8.53-2-8.53-4.57v-3h1s.17 3.39 7.54 3.58c7 0 7.49-3.49 7.51-3.63h1v3c0 2.61-3.75 4.62-8.52 4.62zm-7.53-5.4v.83c0 1.94 3.45 3.57 7.53 3.57s7.52-1.63 7.52-3.57v-.93c-1 1.21-3.18 2.51-7.52 2.51s-6.48-1.28-7.53-2.41zm7.53-11.59c-4.78 0-8.53-2-8.53-4.58s3.75-4.57 8.53-4.57 8.52 2 8.52 4.57-3.75 4.58-8.52 4.58zm0-8.15c-4.08 0-7.53 1.64-7.53 3.57s3.45 3.58 7.53 3.58 7.52-1.64 7.52-3.58-3.45-3.57-7.52-3.57z" transform="translate(-354.86 -1154.45)"/><path d="M717.15 1274.89c-4.78 0-8.53-2-8.53-4.57v-3h1s.17 3.39 7.54 3.58c7 0 7.49-3.49 7.51-3.63h1v3c0 2.61-3.75 4.62-8.52 4.62zm-7.53-5.4v.83c0 1.94 3.45 3.57 7.53 3.57s7.52-1.63 7.52-3.57v-.93c-1 1.21-3.18 2.51-7.52 2.51s-6.48-1.28-7.53-2.41zm-25.31 28.98c-4.77 0-8.52-2-8.52-4.58s3.75-4.57 8.52-4.57 8.53 2 8.53 4.57-3.75 4.58-8.53 4.58zm0-8.15c-4.07 0-7.52 1.64-7.52 3.57s3.45 3.58 7.52 3.58 7.53-1.64 7.53-3.58-3.45-3.57-7.53-3.57z" transform="translate(-354.86 -1154.45)"/><path d="M684.31 1301.46c-4.77 0-8.52-2-8.52-4.57v-3h1s.17 3.39 7.54 3.58c7 0 7.49-3.49 7.51-3.64l1 .06v3c0 2.57-3.75 4.57-8.53 4.57zm-7.52-5.4v.83c0 1.94 3.45 3.57 7.52 3.57s7.53-1.63 7.53-3.57v-.89c-1.05 1.21-3.19 2.51-7.53 2.51s-6.48-1.32-7.52-2.45zm7.52-11.59c-4.77 0-8.52-2-8.52-4.58s3.75-4.57 8.52-4.57 8.53 2 8.53 4.57-3.75 4.58-8.53 4.58zm0-8.15c-4.07 0-7.52 1.64-7.52 3.57s3.45 3.58 7.52 3.58 7.53-1.64 7.53-3.58-3.45-3.57-7.53-3.57z" transform="translate(-354.86 -1154.45)"/><path d="M684.31 1287.46c-4.77 0-8.52-2-8.52-4.57v-3h1s.17 3.39 7.54 3.58c7 0 7.49-3.49 7.51-3.64l1 .06v3c0 2.57-3.75 4.57-8.53 4.57zm-7.52-5.4v.83c0 1.94 3.45 3.57 7.52 3.57s7.53-1.63 7.53-3.57v-.89c-1.05 1.21-3.19 2.51-7.53 2.51s-6.48-1.32-7.52-2.45zm7.52-11.59c-4.77 0-8.52-2-8.52-4.58s3.75-4.57 8.52-4.57 8.53 2 8.53 4.57-3.75 4.58-8.53 4.58zm0-8.15c-4.07 0-7.52 1.64-7.52 3.57s3.45 3.58 7.52 3.58 7.53-1.64 7.53-3.58-3.45-3.57-7.53-3.57z" transform="translate(-354.86 -1154.45)"/><path d="M684.31 1273.46c-4.77 0-8.52-2-8.52-4.57v-3h1s.17 3.39 7.54 3.58c7 0 7.49-3.49 7.51-3.64l1 .06v3c0 2.57-3.75 4.57-8.53 4.57zm-7.52-5.4v.83c0 1.94 3.45 3.57 7.52 3.57s7.53-1.63 7.53-3.57v-.89c-1.05 1.21-3.19 2.51-7.53 2.51s-6.48-1.32-7.52-2.45zm7.52-11.59c-4.77 0-8.52-2-8.52-4.58s3.75-4.57 8.52-4.57 8.53 2 8.53 4.57-3.75 4.58-8.53 4.58zm0-8.15c-4.07 0-7.52 1.64-7.52 3.57s3.45 3.58 7.52 3.58 7.53-1.64 7.53-3.58-3.45-3.57-7.53-3.57z" transform="translate(-354.86 -1154.45)"/><path d="M684.31 1259.46c-4.77 0-8.52-2-8.52-4.57v-3h1s.17 3.39 7.54 3.58c7 0 7.49-3.49 7.51-3.64l1 .06v3c0 2.57-3.75 4.57-8.53 4.57zm-7.52-5.4v.83c0 1.94 3.45 3.57 7.52 3.57s7.53-1.63 7.53-3.57v-.89c-1.05 1.21-3.19 2.51-7.53 2.51s-6.48-1.32-7.52-2.45z" transform="translate(-354.86 -1154.45)"/><path d="M262.63 178.13L.18 54.84l.24-.99 262.63 123.38-.42.9z"/><path transform="rotate(-21.3 -2564.019 1673.18)" d="M612.92 1306.24h139.82v1H612.92z"/><path transform="rotate(-64.18 -361.457 981.534)" d="M736.07 1263.17h1v25.34h-1z"/><path transform="rotate(-64.26 -394.528 964.838)" d="M701.58 1248.77h1v21.63h-1z"/><path transform="rotate(-64.17 -428.99 950.35)" d="M668.58 1234.05h1V1255h-1z"/><path transform="rotate(-65.2 -441.18 928.644)" d="M635.78 1217.21h1v23.25h-1z"/><path transform="rotate(-65.73 -467.343 911.447)" d="M602.96 1202.57h1v22.87h-1z"/><path transform="rotate(-63.79 -534.04 906.657)" d="M570.36 1187.28h1v22.91h-1z"/><path transform="rotate(-66.18 -525.368 878.217)" d="M537.28 1172.31h1v21.59h-1z"/><path transform="rotate(-63.68 -601.617 875.592)" d="M504.89 1155.59h1v23.1h-1z"/><path transform="rotate(-20.35 -2924.275 1575.895)" d="M459.18 1164.22h20.45v1h-20.45z"/><path transform="rotate(-21.2 -2824.952 1547.4)" d="M426.52 1176.14h20.71v1h-20.71z"/><path transform="rotate(-23.11 -2597.29 1480.43)" d="M392.01 1189.31h22.76v1h-22.76z"/><path transform="rotate(-21.05 -2916.515 1581.85)" d="M354.17 1203.4h27v1h-27z"/><path d="M262.34 177.68h1v11.4h-1zM.71 65.97l-.71.46.03-12.59.68.47v11.66zm392.58 74.31l-.67-.47v-12.9l.71-.45-.04 13.82z"/><path transform="rotate(-20.7 -2655.169 1713.171)" d="M613.19 1318.39h139.28v1H613.19z"/><path transform="rotate(-21.05 -2601.297 1690.78)" d="M613.06 1312.32h139.55v1H613.06z"/><path d="M263.02 189.55L0 66.43l.42-.91 262.63 123.11-.03.92z"/><path transform="rotate(-65.08 -595.795 977.305)" d="M485.88 1131.71h1v289.6h-1z"/></svg>