<svg id="Слой_1" data-name="Слой 1" xmlns="http://www.w3.org/2000/svg" viewBox="0 0 350.9 235.84"><g id="_6" data-name="6"><path fill="#fff" d="M.5 46.15L186.2.54"/><path d="M.62 46.64L0 45.81 186.3 0l.02 1.02L.62 46.64z"/><path transform="rotate(-13.55 -4315.102 2288.975)" d="M537.12 1272.75h191.7v1h-191.7z"/><path transform="rotate(-54.05 -838.43 1039.338)" d="M457.52 1135.43h1v202.02h-1z"/><path d="M350.11 120.18L185.91.94l.39-.94 164.6 119.51-.79.67zm-186.56 44.56h1v27.37h-1z"/><path d="M350.9 146.92l-1-.43v-26.71l1-.27v27.41z"/><path d="M164.17 192.59l-.24-.97 186.35-45.61.62.91-186.73 45.67zM1 72.21l-1 .26V45.81l1 .34v26.06z"/><path d="M163.75 192.51L0 72.47l.8-.66L164.34 191.7l-.59.81z"/><path d="M33.21 96.56h1v45.7h-1zm24.06 40.22l-1-.28v-23.04h1v23.32zM6.68 123.15l-.79.41-.34-47.4 1 .39.13 46.6z"/><path d="M33.84 142.74L5.89 123.56l.57-.83L34 141.85l-.16.89z"/><path d="M33.84 142.74l-.25-.97 23.06-5.75.62.76-23.43 5.96zm65.15 2.04h1v47.33h-1zm-26.94 26.15l-.8.4-.2-47.03h1v46.63zm51.61 14.55l-1-.38v-22.97h1v23.35z"/><path d="M99.63 192.58l-28.38-21.25.6-.8 27.94 21.18-.16.87z"/><path d="M99.63 192.58l-.29-.95 23.68-7.01.64.86-24.03 7.1zm63.92-.48h1v43.17h-1zm-24.22 26.07l-1 .21v-44.76h1v44.55z"/><path d="M163.98 235.84l-25.65-17.46.78-.63 25.22 17.11-.35.98zm26.32-10.75l-1-.24V185.8h1v39.29z"/><path d="M163.98 235.84l-.12-1.03 25.75-10.43.69.71-26.32 10.75zm40.05-33.31l-.8.39-.2-20.48h1v20.09zm26.52-26.82h1v48.49h-1zm48.39 33.54l-1-.37v-44.77h1v45.14z"/><path d="M231.2 224.67l-.3-.95 47.39-15.31.65.84-47.74 15.42z"/><path d="M231.2 224.67l-27.97-21.75.61-.78 27.52 21.66-.16.87zm88.3-70.74h1v49.57h-1zm25.6 40.88l-1-.43v-46.47h1v46.9zm-52.8-34.22h1v20.92h-1z"/><path d="M319.96 204.11l-27.48-22.2.63-.78 27.21 21.99-.36.99z"/><path d="M319.96 204.11l-.13-1.07 24.6-9.12.67.89-25.14 9.3z"/></g></svg>