<svg id="Слой_1" data-name="Слой 1" xmlns="http://www.w3.org/2000/svg" viewBox="0 0 345.19 202.45"><defs><style>.cls-1{fill:#fff}</style></defs><g id="_5" data-name="5"><path class="cls-1" d="M344.67 128.13L68.69 159.9"/><path class="cls-1" transform="rotate(-6.56 -9622.818 4023.92)" d="M446.76 1291.83h277.8v1h-277.8z"/><path class="cls-1" d="M2.09 31.21L275.99.37M2.15 31.71l-.4-.96L276.32 0l-.28.87L2.15 31.71zm340.31 28.66l-66.47-60"/><path class="cls-1" d="M342.12 60.74l-66.47-60 .67-.74 66.76 59.7-.96 1.04zM69.2 91.99L342.58 59.7"/><path class="cls-1" transform="rotate(-6.74 -9355.39 3867.235)" d="M447.23 1223.66h275.28v1H447.23z"/><path class="cls-1" d="M2.09 31.21L69.2 91.99"/><path class="cls-1" transform="rotate(-47.83 -1069.563 1063.122)" d="M414.12 1164.65h1v90.54h-1z"/><path class="cls-1" d="M2.09 31.21l-.17 36.53m.5 0l-1-.01.33-36.98.84.46-.17 36.53zM69.2 91.99l-.17 36.42"/><path class="cls-1" transform="rotate(-89.78 -317.82 874.546)" d="M429.88 1258.02h36.42v1h-36.42z"/><path class="cls-1" d="M1.92 67.74l67.11 60.67m-.33.37L1.42 67.73l.83-.36 67.12 60.67-.67.74zM342.58 59.7l-.19 41.66m.5.49l-1-.49.19-41.67 1 .01-.19 42.15zM74 132.29l268.39-30.93"/><path class="cls-1" d="M74.05 132.79l-.11-.99 268.4-30.94.55.99-268.84 30.94zm-5.36 27.11l-.45 42.05"/><path class="cls-1" transform="rotate(-89.33 -322.981 946.79)" d="M426.42 1328.74h42.05v1h-42.05z"/><path class="cls-1" d="M.94 97.7L.5 138.74m.5 0l-1-.01.45-41.53.99.51L1 138.74zm343.67-10.61l-.46 42.33m.5.44l-1 .12.46-42.9 1.02-.19-.48 42.97zM68.24 201.95l275.97-31.49"/><path class="cls-1" transform="rotate(-6.5 -9715.446 4097.567)" d="M446.32 1334.02h277.77v1H446.32z"/><path class="cls-1" d="M.51 138.12l67.73 63.83m.06.49L0 138.73l.85-.97 67.73 63.82-.28.86zM.94 97.7l67.75 62.2"/><path class="cls-1" transform="rotate(-47.45 -1082.212 1134.003)" d="M413.3 1231.13h1v91.97h-1z"/><path class="cls-1" d="M11.7 86.96l-.15 14.11m.5.01l-.84.36-.01-14.99 1 .51-.15 14.12zm62.03 42.37l-.17 15.85"/><path class="cls-1" transform="rotate(-89.33 -317.45 917.244)" d="M445.05 1299.19h15.85v1h-15.85z"/><path class="cls-1" d="M11.7 86.96l62.38 56.49"/><path class="cls-1" transform="rotate(-48 -1065.281 1115.267)" d="M421.37 1221.44h1v84.16h-1z"/><path class="cls-1" d="M11.55 101.07l62.36 58.23"/><path class="cls-1" transform="rotate(-46.97 -1089.289 1140.35)" d="M421.21 1235.85h1v85.32h-1z"/><path class="cls-1" d="M.94 97.7l10.64.12m0 .5L.94 98.2l-.49-1 11.14.12-.01 1zm.12-11.36l11.62.12m-.01.5l-11.61-.12-.5-1.01 12.12.13-.01 1zm50.77 55.87l129.84-15.32"/><path class="cls-1" transform="rotate(-6.74 -9422.308 3927.113)" d="M452.61 1283.61h130.74v1H452.61z"/><path class="cls-1" d="M203.98 144.32l.17-16.19"/><path class="cls-1" transform="rotate(-89.33 -187.379 902.094)" d="M574.95 1284.05h16.2v1h-16.2z"/><path class="cls-1" d="M69.03 128.41l10.64 10.87"/><path class="cls-1" transform="rotate(-44.38 -1143.75 1172.607)" d="M452.83 1274.56h1v15.2h-1z"/><path class="cls-1" d="M203.92 128.13l-6.48-2.9"/><path class="cls-1" transform="rotate(-65.95 -494.739 992.952)" d="M579.16 1271.45h1v7.1h-1z"/><path class="cls-1" d="M79.67 139.28l117.77-14.05"/><path class="cls-1" transform="rotate(-6.79 -9350.286 3900.922)" d="M458.23 1280.07h118.6v1h-118.6z"/><path class="cls-1" d="M204.27 116.83l-.06 6.09"/><path class="cls-1" transform="rotate(-89.33 -187.208 885.742)" d="M580.17 1267.69h6.09v1h-6.09z"/><path class="cls-1" d="M335.58 102.14l-.06 5.25m.5.45l-1-.45.06-5.25 1 .01-.06 5.69zm-131.81 15.08l131.31-15.53"/><path class="cls-1" d="M204.27 123.41l-.12-.99 131.31-15.52.56.94-131.75 15.57zm-3.59-5.72l.06 2.8"/><path class="cls-1" transform="rotate(-1.36 -47985.613 16657.894)" d="M579.19 1266.01h1v2.8h-1z"/><path class="cls-1" d="M204.21 122.92l-3.47-2.43"/><path class="cls-1" transform="rotate(-54.99 -711.156 1059.991)" d="M580.96 1267.91h1v4.23h-1z"/><path class="cls-1" d="M323.75 108.78l20.92 19.35m-.34.36l-20.92-19.34.68-.73 21.1 19.51-.86.56zm-28.6-18.76l19.57 18.29"/><path class="cls-1" transform="rotate(-46.94 -807.426 1129.402)" d="M703.99 1253.8h1v26.79h-1z"/><path class="cls-1" d="M307.49 110.71l13.98 13.47"/><path class="cls-1" transform="rotate(-46.06 -846.762 1137.311)" d="M692.96 1256.05h1v19.42h-1z"/><path class="cls-1" d="M299.49 111.65l12 11.23"/><path class="cls-1" transform="rotate(-46.91 -828.33 1128.168)" d="M683.97 1257.37h1v16.44h-1z"/><path class="cls-1" d="M204.08 135.3l107.41-12.42m-107.36 12.91l-.11-.99 107.82-12.28-.78.91-106.93 12.36zm-.03 4.06l-.13-.99 117.85-15.04-.28.86-117.44 15.17zm-.05 3.43l-.11-1 131.7-14.62-.73.81-130.86 14.81z"/></g></svg>