<svg id="Слой_1" data-name="Слой 1" xmlns="http://www.w3.org/2000/svg" viewBox="0 0 345.07 381.14"><defs><style>.cls-1{fill:#fff}</style></defs><g id="_1" data-name="1"><path class="cls-1" d="M344.57 115.65L68.95 150.4"/><path class="cls-1" transform="rotate(-7.18 -8037.679 3682.239)" d="M446.8 1190.81h277.8v1H446.8z"/><path class="cls-1" d="M1.18 34.42L274.85.54M1.24 34.92l-.56-.91L275.15 0l-.24 1.04L1.24 34.92zm340.72 25.57L274.85.54"/><path class="cls-1" d="M341.63 60.86L274.51.91l.64-.91 67.32 60.29-.84.57zM68.95 95.67l273.01-35.18"/><path class="cls-1" transform="rotate(-7.35 -7843.698 3556.783)" d="M446.77 1135.86h275.27v1H446.77z"/><path class="cls-1" d="M1.18 34.42l67.77 61.25"/><path class="cls-1" transform="rotate(-47.89 -966.983 1020.886)" d="M413.51 1077.66h1V1169h-1z"/><path class="cls-1" d="M1.18 34.42v24.55m.5 0l-1 .21V34.01l1 .41v24.55zm67.27 36.7v23.24m-.5-23.24h1v23.24h-1zM1.18 58.97l67.77 59.94"/><path class="cls-1" d="M68.62 119.29L.69 59.18l.82-.59 67.77 59.95-.66.75zm273.34-58.8v24.54m.5.41l-1-.41V60.49l1-.2v25.15zM68.95 118.91l273.01-33.88"/><path class="cls-1" d="M69.01 119.41l-.12-.99L341.9 84.53l.56.91-273.45 33.97zm-.06 30.99v230.23m-.5-230.23h1v230.23h-1zM.53 88.94v232.18m.5 0l-1 .17V88.44l1 .5v232.18zm343.54-205.47v231.1m.5.43l-1-.43v-231.1l1-.21v231.74zM68.95 380.63l275.62-33.88"/><path class="cls-1" d="M68.77 381.13l.12-1 275.62-33.88.56.93-276.3 33.95zM.53 321.12l68.42 59.51"/><path class="cls-1" d="M68.75 381.14L0 321.29l.86-.55 68.42 59.51-.53.89zM.53 88.94l68.42 61.46"/><path class="cls-1" transform="rotate(-48.06 -962.533 1073.836)" d="M413.19 1131.97h1v91.97h-1z"/><path class="cls-1" d="M11.17 78.08V92.2m.5 0l-1 .24V77.58l1 .5V92.2zm62.49 41.7v15.84m-.5-15.84h1v15.85h-1zM11.17 78.08l62.99 55.82"/><path class="cls-1" transform="rotate(-48.45 -943.838 1056.278)" d="M421.11 1122.19h1v84.16h-1z"/><path class="cls-1" d="M11.17 92.2l62.99 57.54m-.34.37L10.7 92.42l.81-.59 62.99 57.55-.68.73zM.53 88.94h10.64m0 .5H.53l-.5-1h11.14v1zm0-11.36h11.62m0 .5H11.17l-.5-1h12.12v1zm51.37 55.32l129.67-16.73"/><path class="cls-1" transform="rotate(-7.35 -7910.136 3604.184)" d="M452.57 1183.32h130.74v1H452.57z"/><path class="cls-1" d="M204.06 133.37v-16.2m-.5 0h1v16.2h-1zm-134.61 1.74l10.75 10.75"/><path class="cls-1" transform="rotate(-45 -1013.637 1110.882)" d="M452.77 1174.97h1v15.2h-1z"/><path class="cls-1" d="M203.83 117.17l-6.52-2.82"/><path class="cls-1" transform="rotate(-66.57 -415.947 933.528)" d="M579.01 1170.5h1v7.1h-1z"/><path class="cls-1" d="M79.7 129.66l117.61-15.31"/><path class="cls-1" transform="rotate(-7.41 -7843.561 3577.115)" d="M458.15 1179.79h118.6v1h-118.6z"/><path class="cls-1" d="M204.06 101.97v9.99m-.5-9.99h1v9.99h-1zm131.64-16.1v9.15m.5.45l-1-.45v-9.15h1v9.6zm-131.64 16.49L335.2 95.02"/><path class="cls-1" d="M204.12 112.46l-.13-.99 131.14-16.95.57.95-131.58 16.99zm-3.55-9.88v6.99m-.5-6.99h1v7h-1zm3.99 9.38l-3.49-2.39"/><path class="cls-1" transform="rotate(-55.61 -611.587 999.224)" d="M580.76 1166.94h1v4.23h-1z"/><path class="cls-1" d="M323.44 96.54l21.13 19.11m-.34.37l-21.12-19.11.67-.74 21.28 19.27-.83.58zm-9.37 0l-19.77-18.08.67-.74 19.63 17.94-.53.88zM307.2 98.64l14.13 13.32m-.21.5L306.86 99l.68-.73 14.24 13.44-.66.75zM311 111.14l-12.12-11.1.67-.74 11.99 10.97-.54.87z"/><path class="cls-1" d="M204.12 124.84l-.12-1 107.53-13.57-.6.99-106.81 13.58zm0 7.71l-.12-.99 131.36-16.4-.55.99-130.69 16.4zm-.11-4.56l-.13-.99 117.38-15.53-.14.99-117.11 15.53z"/></g></svg>