<svg id="icons" height="512" viewBox="0 0 64 64" width="512" xmlns="http://www.w3.org/2000/svg"><path d="M57 42.504H1a1 1 0 1 0 0 2h56c1.654 0 3-1.346 3-3s-1.346-3-3-3H1a1 1 0 1 0 0 2h56a1 1 0 0 1 0 2z" fill="#de4a4b"/><path d="M58.009 34.585v-8.079a1 1 0 0 0-1-1h-6.982c-.007 0-.013-.004-.02-.004s-.013.004-.02.004h-2.961c-.007 0-.013-.004-.02-.004s-.013.004-.02.004h-6.982a1 1 0 0 0-1 1v7.998h-2V16.496a1 1 0 0 0-1-1H19.001a1 1 0 0 0-1 1v18.008H16v-9a1 1 0 0 0-1-1H2a1 1 0 0 0-1 1v9a1 1 0 0 0-1 1v1a1 1 0 1 0 2 0h5a1 1 0 1 0 2 0h5a1 1 0 1 0 2 0h5a1 1 0 1 0 2 0h5a1 1 0 1 0 2 0h5a1 1 0 1 0 2 0h5a1 1 0 1 0 2 0h5a1 1 0 1 0 2 0h5a1 1 0 0 0 1 1 .99.99 0 0 0 .98-.901 5.017 5.017 0 0 1 3.921 3.921c-.504.052-.901.462-.901.98s.397.928.901.98a5.017 5.017 0 0 1-3.921 3.921.99.99 0 0 0-.98-.901 1 1 0 0 0-1 1h-5a1 1 0 1 0-2 0h-5a1 1 0 1 0-2 0h-5a1 1 0 1 0-2 0h-5a1 1 0 1 0-2 0h-5a1 1 0 1 0-2 0h-5a1 1 0 1 0-2 0H9a1 1 0 1 0-2 0H2a1 1 0 1 0-2 0v1a1 1 0 0 0 1 1h56c3.859 0 7-3.141 7-7 0-3.516-2.609-6.427-5.991-6.919zM8.001 26.504h1v1h-1zm5.999 8H3v-8h3.001v2a1 1 0 0 0 1 1h3a1 1 0 0 0 1-1v-2H14zm13.003-17.008h1v1.006h-1zm8.002 17.008H20.001V17.496h5.002v2.006a1 1 0 0 0 1 1h3a1 1 0 0 0 1-1v-2.006h5.002zm13.002-6.998h1v.996h-1zm8.002 6.998H41.005v-6.998h5.002v1.996a1 1 0 0 0 1 1h3a1 1 0 0 0 1-1v-1.996h5.002z" fill="#de4a4b"/></svg>