<svg version="1.1" id="Capa_1" xmlns="http://www.w3.org/2000/svg" x="0" y="0" viewBox="0 0 480.044 480.044" xml:space="preserve"><path d="M408.022 176h-192a8 8 0 0 0-8 8v150.56c-.112 33.365 18.755 63.891 48.648 78.712l51.776 25.928a8 8 0 0 0 7.152 0l51.776-25.888c29.906-14.827 48.775-45.373 48.648-78.752V184a8 8 0 0 0-8-8zm-104 243.056l-40.2-20.096a71.616 71.616 0 0 1-39.8-64.4V312h80v107.056zm0-123.056h-80V192h80v104zm96 38.56a71.616 71.616 0 0 1-39.8 64.4l-40.2 20.096V312h80v22.56zm0-38.56h-80V192h80v104z" fill="#de4a4b"/><path d="M440.022 144h-56V72a8 8 0 0 0-8-8h-24V40a8 8 0 0 0-8-8h-216c0-17.673-14.327-32-32-32s-32 14.327-32 32h-24a8 8 0 0 0-8 8v400a8 8 0 0 0 8 8h206.16c.208.104.392.224.6.328l61.664 30.872a8 8 0 0 0 7.152 0l61.664-30.832c43.494-21.566 70.939-65.989 70.76-114.536V152a8 8 0 0 0-8-8zm-88-64h16v64h-16V80zm-256-64c8.837 0 16 7.163 16 16h-32c0-8.837 7.163-16 16-16zm-48 416V48h64v24a8 8 0 0 1-16 0v-8h-16v8c0 13.255 10.745 24 24 24s24-10.745 24-24V48h208v96h-152a8 8 0 0 0-8 8v181.832A127.2 127.2 0 0 0 221.894 432H48.022zm384-98.168c.147 42.464-23.865 81.317-61.912 100.176l-58.088 29.048-58.088-29.048c-38.047-18.859-62.059-57.712-61.912-100.176V160h240v173.832z" fill="#de4a4b"/><path fill="#de4a4b" d="M88.022 152h16v16h-16zm32 0h32v16h-32zm-48 32h80v16h-80zm120-112h16v16h-16zm32 0h88v16h-88zm-48 32h120v16h-120zm-104 112h80v16h-80zm0 32h64v16h-64zm16 48h16v16h-16zm32 0h32v16h-32zm-48 32h80v16h-80zm0 32h80v16h-80zm0 32h64v16h-64zm-40 72c-8.837 0-16-7.163-16-16V296h-16v152c0 17.673 14.327 32 32 32h64v-16h-64zm-32-200h16v16h-16zm448-152h-16v16h16c8.837 0 16 7.163 16 16v152h16V144c0-17.673-14.327-32-32-32zm16 200h16v16h-16z"/></svg>