<svg id="_x33_0" height="512" viewBox="0 0 64 64" width="512" xmlns="http://www.w3.org/2000/svg"><path d="M32.706 32.292l-.708-.703-.704.704c-.047.046-4.715 4.634-11.141 3.64L19 35.755V42c0 12.58 12.562 16.83 12.689 16.871l.311.102.311-.102C32.438 58.83 45 54.58 45 42v-6.245l-1.152.178c-6.391.986-11.096-3.595-11.142-3.641zM43 42c0 10.192-9.128 14.154-10.996 14.857C30.194 56.157 21 52.1 21 42v-3.961c5.372.389 9.426-2.408 11-3.703 1.574 1.297 5.64 4.088 11 3.703z" fill="#fff"/><path d="M30 49.507l-3.293-3.293-1.414 1.414L30 52.335l9.707-9.707-1.414-1.414z" fill="#fff"/><path d="M63.618 47H55v-2c0-1.103-.897-2-2-2h-4.03c.012-.314.03-.625.03-.948V41h6c1.103 0 2-.897 2-2V3c0-1.103-.897-2-2-2H9c-1.103 0-2 .897-2 2v36c0 1.103.897 2 2 2h6v1.052c0 .323.017.634.03.948H11c-1.103 0-2 .897-2 2v2H.382l2.5 5-2.5 5H14c1.103 0 2-.897 2-2v-2h2v-.045c4.787 7.663 13.635 9.985 13.757 10.015l.243.061.243-.062c.122-.03 8.971-2.351 13.757-10.015V53h2v2c0 1.103.897 2 2 2h13.618l-2.5-5zM25 3h14v8.586l-3-3-4 4-4-4-3 3zM9 39V3h14v13.414l5-5 4 4 4-4 5 5V3h14v36h-6v-8.219l-1.382.572c-8.215 3.393-14.599-3.71-14.866-4.013l-.754-.856-.75.857c-.065.075-6.624 7.417-14.865 4.012L15 30.781V39zm5 16H3.618l1.5-3-1.5-3H9v2c0 1.103.897 2 2 2h3zm-3-4v-6h4.185a19.81 19.81 0 0 0 1.744 6zm21.004 9.963C30.065 60.39 17 56.003 17 42.052v-8.358c7.178 2.15 12.993-2.408 15-4.28 2.006 1.872 7.82 6.427 15 4.28v8.358c0 14.082-12.958 18.33-14.996 18.911zM48.815 45H53v6h-5.929a19.84 19.84 0 0 0 1.744-6zm11.567 10H50v-2h3c1.103 0 2-.897 2-2v-2h5.382l-1.5 3z" fill="#fff"/></svg>