<svg version="1.1" id="Capa_1" xmlns="http://www.w3.org/2000/svg" x="0" y="0" viewBox="0 0 480 480" xml:space="preserve"><path d="M359.96 91.706a6.172 6.172 0 0 0-.096-.664 7.869 7.869 0 0 0-.592-2.192c-.064-.144-.048-.288-.112-.424s-.128-.136-.168-.216a7.998 7.998 0 0 0-1.712-2.192c-.136-.12-.296-.192-.44-.304a8.684 8.684 0 0 0-1.264-.872l-112-56a8 8 0 0 0-7.152 0l-112 56a8.001 8.001 0 0 0-4.424 7.16v144a8 8 0 0 0 4.424 7.2l112 56c.072 0 .152 0 .224.048a7.49 7.49 0 0 0 6.704 0c.072 0 .152 0 .224-.048l112-56a8 8 0 0 0 4.424-7.2v-144c0-.104-.04-.192-.04-.296zM344 231.058l-96 48v-19.056a8 8 0 0 0-16 0v19.056l-96-48V96.946l104-52 94.112 47.056-94.192 47.096-80-38.312a7.999 7.999 0 0 0-10.42 4.407 8 8 0 0 0 3.516 9.993L232 153.042v74.96a8 8 0 0 0 16 0v-75.056l96-48v126.112z" fill="#de4a4b"/><path d="M472 388.002H312a8 8 0 0 0-5.656 2.336l-13.656 13.664H187.312l-13.656-13.664a8 8 0 0 0-5.656-2.336H32v-288c0-8.837 7.163-16 16-16h48a8 8 0 0 0 0-16H48c-17.673 0-32 14.327-32 32v288H8a8 8 0 0 0-8 8v24c0 17.673 14.327 32 32 32h304a8 8 0 0 0 0-16H32c-8.837 0-16-7.163-16-16v-16h148.688l13.656 13.656a8 8 0 0 0 5.656 2.344h112a8 8 0 0 0 5.656-2.344l13.656-13.656H464v16c0 8.837-7.163 16-16 16h-32a8 8 0 0 0 0 16h32c17.673 0 32-14.327 32-32v-24a8 8 0 0 0-8-8z" fill="#de4a4b"/><path d="M384 436.002h-16a8 8 0 0 0 0 16h16a8 8 0 0 0 0-16zm32-328h-24a8 8 0 0 0 0 16h16v216H72v-216h16a8 8 0 0 0 0-16H64a8 8 0 0 0-8 8v232a8 8 0 0 0 8 8h352a8 8 0 0 0 8-8v-232a8 8 0 0 0-8-8z" fill="#de4a4b"/><path d="M432 68.002h-48a8 8 0 0 0 0 16h48c8.837 0 16 7.163 16 16v264a8 8 0 0 0 16 0v-264c0-17.673-14.327-32-32-32zm-184 304h-16a8 8 0 0 0 0 16h16a8 8 0 0 0 0-16z" fill="#de4a4b"/></svg>