<svg version="1.1" id="Layer_1" xmlns="http://www.w3.org/2000/svg" x="0" y="0" width="820" height="108" xml:space="preserve"><path fill="#414042" d="M376.098 100.153c-12.662 0-23.329-4.214-31.98-12.651s-12.971-19.34-12.971-32.706 4.299-24.247 12.907-32.642c8.608-8.384 19.286-12.577 32.044-12.577 13.899 0 25.217 5.419 33.954 16.246l-8.651 5.515c-2.795-3.68-6.443-6.603-10.945-8.79-4.502-2.176-9.291-3.275-14.358-3.275-9.697 0-17.74 3.318-24.119 9.963s-9.569 15.158-9.569 25.559c0 10.315 3.221 18.806 9.643 25.495 6.422 6.688 14.433 10.027 24.044 10.027 4.811 0 9.312-.939 13.505-2.816 4.192-1.877 7.563-4.086 10.091-6.624V63.191h-30.146v-9.707h40.898v31.458c-9.002 10.144-20.448 15.211-34.347 15.211zm127.281-1.707h-12.843L468.38 63.713h-17.569v34.733H439.93V11.017h35.138c8.128 0 14.742 2.4 19.852 7.211 5.12 4.8 7.67 11.179 7.67 19.137 0 7.51-2.208 13.494-6.614 17.953-4.416 4.459-9.814 6.955-16.193 7.478l23.596 35.65zm-29.622-44.301c5.152 0 9.366-1.579 12.651-4.726 3.275-3.147 4.907-7.158 4.907-12.054 0-4.982-1.632-9.003-4.907-12.065-3.286-3.051-7.499-4.587-12.651-4.587h-22.945v33.431h22.945zm207.531 45.869c-11.542 0-20.364-3.158-26.476-9.494-6.123-6.336-9.184-15.009-9.184-26.028V11.017h11.019v53.219c0 8.128 2.112 14.507 6.358 19.137 4.235 4.63 10.326 6.944 18.284 6.944 7.947 0 14.07-2.315 18.348-6.944 4.278-4.63 6.422-11.009 6.422-19.137V11.017h11.009v53.347c0 11.105-3.051 19.82-9.174 26.156-6.115 6.337-14.99 9.494-26.606 9.494zm78.895-1.568h-10.881V11.017h35.138c8.47 0 15.158 2.539 20.054 7.606 4.886 5.067 7.339 11.318 7.339 18.742s-2.475 13.675-7.403 18.742c-4.939 5.067-11.606 7.606-19.99 7.606h-24.257v34.733zm22.945-44.44c5.152 0 9.344-1.547 12.577-4.651s4.854-7.094 4.854-11.99-1.621-8.896-4.854-12.001c-3.232-3.093-7.424-4.651-12.577-4.651h-22.945v33.292h22.945zM11.833 98.425V11.039h35.106c17.558 0 27.383 12.054 27.383 26.337S64.231 63.703 46.939 63.703H22.703v34.722h-10.87zm51.224-61.049c0-9.825-7.072-16.641-17.42-16.641H22.703v33.282h22.935c10.347 0 17.419-6.816 17.419-16.641zm89.875 61.049l-33.143-39.298-8.779 9.953v29.346h-10.87V11.039h10.87v45.197l38.647-45.197h13.633l-36.429 41.538 39.565 45.848h-13.494zm27.23-43.629c0-27.116 20.044-45.197 44.941-45.197 15.457 0 26.199 6.816 33.932 16.374l-8.651 5.376c-5.504-7.072-14.806-12.054-25.281-12.054-19.126 0-33.666 14.678-33.666 35.501 0 20.705 14.539 35.639 33.666 35.639 10.475 0 19.126-5.11 23.447-9.43V63.18h-29.996v-9.686h40.866v31.564c-8.118 9.046-20.044 15.073-34.316 15.073-24.898 0-44.942-18.209-44.942-45.335z"/><path fill="#E12726" d="M610.935 54.108c.607 25.646-16.251 45.324-42.029 45.934-25.648.607-43.549-18.249-44.156-43.895-.607-25.648 16.383-45.329 42.031-45.936 25.777-.61 43.547 18.249 44.154 43.897zm-74.99 1.774c.481 20.309 13.333 34.986 32.733 34.527 19.527-.462 31.542-15.728 31.061-36.036-.478-20.181-13.204-34.991-32.731-34.529-19.399.459-31.54 15.857-31.063 36.038z"/><path opacity=".7" d="M573.195 90.022s7.523-.973 14.813-5.399c4.114-2.498 9.213-6.59 12.009-9.118 2.69-2.433 8.232-8.025 10.069-10.446a51.732 51.732 0 0 1-.805 3.586c-.416 1.561-.884 2.944-.884 2.944s-7.841 9.111-15.698 12.788c-6.034 2.823-14.055 5.118-19.504 5.645z"/><path fill="#E12726" d="M565.848 100.056c-5.026 0-3.994-9.856-3.994-9.856 3.239.664 8.268.63 13.592-.453 6.32-1.285 13.104-3.937 18.489-7.085 10.794-6.311 17.295-12.191 21.391-22.374l7.218-1.966c-4 13.858-11.719 24.921-23.855 32.23-8.047 4.847-13.631 6.789-21.261 8.544-4.196.965-8.386.96-11.58.96z"/></svg>