<svg id="Слой_1" data-name="Слой 1" xmlns="http://www.w3.org/2000/svg" viewBox="0 0 384.92 325.35"><defs><style>.cls-1{fill:none;stroke:#000;stroke-miterlimit:10;stroke-width:.35px}.cls-5{fill:#e12726}</style></defs><g id="_12" data-name="12"><path class="cls-1" d="M451.45 1664.18c-8.74 2.76-217 40.25-228.54 42.78s-21.78 6.49-39.8-8.51l-41.17-34.27s-8.52-3.22-10.26-18.51C129.32 1625.09 115 1474.4 115 1474.4l60.73 6.9 309.2-7.85s-17.93 149.9-20.6 170-4.14 17.97-12.88 20.73z" transform="translate(-106.18 -1384.23)"/><path class="cls-1" d="M90.98 323.03L69.57 97.07"/><path class="cls-1" d="M482.37 1473.52l-306.62 7.78-60.75-6.9s-5.8-2-6.15-10.5-2.13-54.83-2.13-54.83-2.3-4.37 4.37-7.13 59.12-15.65 59.12-15.65 5.52-2.23 18.4-1.84l288 8.74s14.88-.92 14.26 10.82-2.76 51.06-2.76 61-5.74 8.51-5.74 8.51z" transform="translate(-106.18 -1384.23)"/><path d="M69.57 97.07l-60.75-6.9s-5.8-2-6.15-10.5S.92 34.77.92 34.77l67.27-13.11z" fill="#af1a29" stroke-miterlimit="10" stroke-width=".35" stroke="#000"/><path class="cls-1" d="M68.19 21.62l1.38 75.45M.92 34.73l67.27-13.11m315.97 8.73L68.19 21.62"/><path d="M281.44 53.36s.07 2.92-5.14 2.92h-48.77c-5.22 0-5.22-2.92-5.22-2.92V25.88l59.13 1.63z" fill="#bc1b2c" stroke="#141414" stroke-miterlimit="10" stroke-width=".35"/></g><path d="M334.57 1577.13a7.14 7.14 0 0 1-5.76-2 8.09 8.09 0 0 1-2.33-6.12 9.47 9.47 0 0 1 2.32-6.5 8.49 8.49 0 0 1 5.77-3 6.56 6.56 0 0 1 6.11 2.6l-1.56 1.22a4.71 4.71 0 0 0-2-1.54 5.24 5.24 0 0 0-2.58-.4 6.15 6.15 0 0 0-4.34 2.33 7.74 7.74 0 0 0-1.73 5.1 6.58 6.58 0 0 0 1.74 4.78 5.16 5.16 0 0 0 4.33 1.61 5.83 5.83 0 0 0 2.43-.74 6.55 6.55 0 0 0 1.81-1.43v-3.46l-5.42.45v-1.88l7.36-.63v6.16a8.28 8.28 0 0 1-6.18 3.44zm22.91-2.06l-2.31.18-4-6.59-3.16.27v6.86l-2 .14v-17.22l6.32-.6a4.32 4.32 0 0 1 3.58 1.1 4.83 4.83 0 0 1 1.38 3.69 5.61 5.61 0 0 1-1.19 3.68 4.81 4.81 0 0 1-2.92 1.73zm-5.33-8.38a3.27 3.27 0 0 0 2.27-1.14 3.64 3.64 0 0 0 .89-2.47 3.05 3.05 0 0 0-.89-2.33 2.82 2.82 0 0 0-2.27-.7l-4.13.39v6.6l4.13-.35zm37.35 6.31a5.5 5.5 0 0 1-4.76-1.6 7.44 7.44 0 0 1-1.66-5.21v-11l2-.19v11a5.76 5.76 0 0 0 1.14 3.85 3.69 3.69 0 0 0 3.29 1.17 4.33 4.33 0 0 0 3.3-1.69 6.6 6.6 0 0 0 1.16-4.07v-11l2-.19v11.1a8.79 8.79 0 0 1-1.65 5.57 6.39 6.39 0 0 1-4.79 2.33zm14.2-1.4l-2 .15v-18.3l6.33-.6a4 4 0 0 1 3.61 1.26 5.61 5.61 0 0 1 1.32 3.85 6.51 6.51 0 0 1-1.33 4.08 4.84 4.84 0 0 1-3.6 1.91l-4.37.37zm4.13-9.67a3.16 3.16 0 0 0 2.27-1.18 4 4 0 0 0 .87-2.61 3.38 3.38 0 0 0-.87-2.45 2.68 2.68 0 0 0-2.27-.78l-4.13.39v7l4.13-.35zM269 1581.75V1566l6.32-.6a4.16 4.16 0 0 1 4.93 4.34 5.15 5.15 0 0 1-4.93 5.21l-4.36.36v6.27zm9.22-11.81a2.65 2.65 0 0 0-3.14-2.74l-4.12.38v6l4.12-.36a3.24 3.24 0 0 0 3.14-3.28zm16.18 9.89l-6-6.79-1.58 2v5.4l-2 .15v-16l2-.18v8.31l7-9 2.45-.24-6.55 8.29 7.12 7.93-2.43.18zm4.9-8.52a9 9 0 0 1 8.09-9.2 6.67 6.67 0 0 1 6.11 2.52l-1.56 1.17a5.19 5.19 0 0 0-4.55-1.87c-3.44.32-6.06 3.31-6.06 7.21s2.62 6.47 6.06 6.2a6.58 6.58 0 0 0 4.22-2.11v-3.38l-5.4.45v-1.82l7.36-.63v6a8.72 8.72 0 0 1-6.18 3.33c-4.48.33-8.09-2.8-8.09-7.87z" transform="translate(-106.18 -1384.23)" fill="#414042"/><path class="cls-5" d="M376.84 1564.57c.11 5.22-2.93 9.46-7.57 9.93s-7.84-3.06-7.94-8.2 2.94-9.36 7.56-9.92 7.84 2.97 7.95 8.19zm-13.5 1.51c.09 4.07 2.4 6.84 5.89 6.48s5.68-3.64 5.59-7.76-2.37-6.9-5.89-6.48-5.68 3.71-5.59 7.76z" transform="translate(-106.18 -1384.23)"/><path class="cls-5" d="M368.72 1574.55c-.9.07-.72-1.94-.72-1.94a6 6 0 0 0 2.45-.28 11.53 11.53 0 0 0 3.33-1.7 9.57 9.57 0 0 0 3.85-4.86l1.3-.51a12 12 0 0 1-4.3 6.91 11.77 11.77 0 0 1-3.82 2 8.92 8.92 0 0 1-2.09.38z" transform="translate(-106.18 -1384.23)"/><path d="M370.05 1572.42a7.61 7.61 0 0 0 2.66-1.3 18.64 18.64 0 0 0 2.16-2 25.48 25.48 0 0 0 1.82-2.27c-.05.25-.09.49-.15.74s-.16.61-.16.61a12.44 12.44 0 0 1-2.82 2.83 11.88 11.88 0 0 1-3.51 1.42z" transform="translate(-106.18 -1384.23)" style="isolation:isolate" opacity=".7"/></svg>