<svg id="Слой_1" data-name="Слой 1" xmlns="http://www.w3.org/2000/svg" viewBox="0 0 374.33 349.6"><defs><style>.cls-1{fill:none;stroke-miterlimit:10;stroke:#282828;stroke-width:.35px}.cls-6{fill:#e12726}</style></defs><g id="_13" data-name="13"><path class="cls-1" d="M610.53 1388.27s-2.74 11-23.41 7.39l-186.33-32.21s-10 1-11.5-15.64l-17.48-188.63s214.85 18.4 241.54 15.64l7.36-2.3 29.44 137.56z" transform="translate(-364.13 -1069.63)"/><path class="cls-1" d="M249.22 105.19l-6.72 218.44"/><path d="M612.89 1174.82c-23 3.68-241.54-15.64-241.54-15.64s-3.29-1.07-4.14-11.73-3.25-40.88-3.07-38.57 4.1 3.72 4.1 3.72l78.9 3.56 3.65 13.88s1.83 5.31 5.83 5.37 33.89.61 39.26.61 5.67-3.68 5.67-3.68l2.64-13.6s75 3.71 93.17 4.21 25.88-5.87 25.88-5.87l52.1-40.71v31.05s-44.36 30.71-50.72 35.25a13.09 13.09 0 0 0-5.29 11.91l.92 17.94a37.47 37.47 0 0 1-7.36 2.3z" transform="translate(-364.13 -1069.63)" fill="#bd2829"/><path class="cls-1" d="M366.44 1107.57c-2.3.62-1.64 2-1.64 2 .82 1.87 3.9 3 3.9 3l78.9 3.56 3.65 13.88s1.83 5.31 5.83 5.37 33.89.61 39.26.61 5.67-3.68 5.67-3.68l2.64-13.6s75 3.71 93.17 4.21 25.88-5.87 25.88-5.87l52.1-40.71-181.15-6.43-5.18-.13-112.91 34.62s-7.82 2.6-10.12 3.17z" transform="translate(-364.13 -1069.63)"/><path class="cls-1" d="M83.47 46.53l5.49.54"/><path class="cls-1" d="M501.19 1134.18s-39.9 0-43.69-2.83c-3-2.08-4.41-14.65-4.41-14.65" transform="translate(-364.13 -1069.63)"/><path d="M228.87 47.07S25.71 39.71 14.24 39.86s0-2.81 0-2.81L127.77 3.63l161.1 4.83s5.87-.3-.68 4.33-37.16 26-43.3 30.6-16.02 3.68-16.02 3.68zm105.41 287.76c-10.53 24.32-24.37 12.24-25.71 6.26l-22.55-100.64-29.44-137.56c.34-15.07-5.21-23.42 6.69-31.55l55.65-38s17.25-14 22.08 0c1 5.31 28.58 150.92 31.75 166.68s0 25.19 0 25.19-27.88 85.29-38.47 109.62z" stroke="#1b1b1b" fill="none" stroke-miterlimit="10" stroke-width=".35"/><path d="M336.78 328.77c-4.36 10.83-8.28-6.24-9.35-11.71s-18.4-84.89-18.4-84.89-28.64-136-26.11-125.71-6.69-18.57 2.79-26l44.39-34.87s11.42-9.57 12.26-5.64c.81 4.87 27.77 145.62 30.39 160 3 16.26 0 25.19 0 25.19s-26.53 80.15-35.97 103.63z" stroke-width=".3" stroke="#1b1b1b" fill="none" stroke-miterlimit="10"/></g><path d="M489.9 1283a6.48 6.48 0 0 1-4.63-2.67 9.35 9.35 0 0 1-1.88-5.93 8 8 0 0 1 1.87-5.6 5.38 5.38 0 0 1 4.64-1.87 6.24 6.24 0 0 1 4.92 3.27l-1.25.88a5.25 5.25 0 0 0-1.59-1.69 4.19 4.19 0 0 0-2.08-.74 3.93 3.93 0 0 0-3.49 1.49 6.58 6.58 0 0 0-1.39 4.4 7.57 7.57 0 0 0 1.4 4.62 4.76 4.76 0 0 0 3.48 2.1 3.82 3.82 0 0 0 2-.32 4.39 4.39 0 0 0 1.46-1v-3.15l-4.37-.38v-1.72l5.92.5v5.62a5.29 5.29 0 0 1-5 2.24zm18.43 1.47l-1.86-.18-3.21-6.58-2.54-.23v6.26l-1.58-.16v-15.7l5.09.39a3.91 3.91 0 0 1 2.88 1.52 5.56 5.56 0 0 1 1.11 3.57 4.79 4.79 0 0 1-1 3.18 3.06 3.06 0 0 1-2.34 1.15zM504 1276a2.09 2.09 0 0 0 1.83-.7 3.05 3.05 0 0 0 .72-2.13 3.44 3.44 0 0 0-.72-2.24 2.51 2.51 0 0 0-1.83-1l-3.32-.25v6l3.32.29zm30.06 11.2a5 5 0 0 1-3.84-2.14 8.51 8.51 0 0 1-1.33-5v-10l1.6.12v10a6.45 6.45 0 0 0 .92 3.66 3.37 3.37 0 0 0 2.65 1.55 2.77 2.77 0 0 0 2.65-1.05 5.72 5.72 0 0 0 .93-3.52v-10l1.6.12V1281a7.55 7.55 0 0 1-1.33 4.81 4.07 4.07 0 0 1-3.85 1.41zm11.42.83l-1.58-.16v-16.62l5.09.4a3.71 3.71 0 0 1 2.91 1.68 6.41 6.41 0 0 1 1.06 3.69 5.54 5.54 0 0 1-1.07 3.51 3.11 3.11 0 0 1-2.9 1.2l-3.51-.32zm3.32-8.18a2 2 0 0 0 1.82-.73 3.34 3.34 0 0 0 .71-2.24 3.87 3.87 0 0 0-.71-2.36 2.4 2.4 0 0 0-1.82-1l-3.32-.27v6.34l3.32.29zm-111.69-2.18v-14.47l5.09.38c2.54.19 4 2.31 4 4.71s-1.46 4.28-4 4.07l-3.51-.3v5.76zm7.42-9.51a2.77 2.77 0 0 0-2.52-3l-3.32-.25v5.52l3.32.28a2.3 2.3 0 0 0 2.56-2.51zm13 11.43l-4.8-7.1-1.27 1.57v5l-1.57-.15v-14.72l1.57.11v7.63l5.6-7.21 2 .15-5.27 6.64 5.73 8.3-2-.18zm3.95-7.1c0-4.63 2.9-7.51 6.51-7.24a6.28 6.28 0 0 1 4.91 3.21l-1.25.83A4.89 4.89 0 0 0 468 1267c-2.77-.21-4.88 2.14-4.88 5.71s2.11 6.31 4.88 6.56a4.2 4.2 0 0 0 3.39-1.32v-3.09l-4.34-.37v-1.67l5.91.5v5.48a5.56 5.56 0 0 1-5 2.15c-3.53-.39-6.43-3.78-6.43-8.42z" transform="translate(-364.13 -1069.63)" fill="#414042"/><path class="cls-6" d="M523.91 1277.74c.09 4.76-2.36 8.18-6.09 7.93s-6.3-4-6.39-8.63 2.37-8.09 6.08-7.92 6.31 3.88 6.4 8.62zm-10.86-.61c.07 3.72 1.93 6.58 4.74 6.76s4.57-2.48 4.5-6.24-1.92-6.62-4.74-6.76-4.57 2.54-4.5 6.24z" transform="translate(-364.13 -1069.63)"/><path class="cls-6" d="M517.38 1285.63c-.73-.08-.58-1.87-.58-1.87a4.13 4.13 0 0 0 2 .1 7.47 7.47 0 0 0 2.68-1 6.71 6.71 0 0 0 3.09-3.87l1.05-.27a8.92 8.92 0 0 1-3.46 5.66 7.53 7.53 0 0 1-3.07 1.28 6 6 0 0 1-1.71-.03z" transform="translate(-364.13 -1069.63)"/><path d="M518.44 1283.88a4.78 4.78 0 0 0 2.15-.79 13.37 13.37 0 0 0 1.74-1.53 15.67 15.67 0 0 0 1.45-1.8c0 .22-.07.44-.11.66s-.13.53-.13.53a8.43 8.43 0 0 1-2.27 2.16 7.57 7.57 0 0 1-2.83.77z" transform="translate(-364.13 -1069.63)" style="isolation:isolate" opacity=".7"/></svg>