<svg id="Слой_1" data-name="Слой 1" xmlns="http://www.w3.org/2000/svg" viewBox="0 0 399.36 266.3"><defs><style>.cls-1{fill:none;stroke:#1c1c1c;stroke-miterlimit:10;stroke-width:.51px}.cls-2{fill:#1c1c1c}</style></defs><g id="_10" data-name="10"><path class="cls-1" d="M398.96 101.17L186.31 239.92"/><path class="cls-2" d="M186.23 240.16L.22 182.35l-.22-.61 186.38 57.93-.15.49z"/><path class="cls-1" d="M186.36 266.05l212.6-137.61M186.31 239.92l.05 26.31m212.6-165.06v27.27"/><path class="cls-2" d="M.56 209.25l-.52-.13L0 181.74l.56.37v27.14z"/><path class="cls-1" d="M186.36 266.05L.3 208.92"/><path class="cls-1" d="M354.36 1490s-10.42-3.35-18.63-5.86-7 10.72-7 10.72 1.51 25.81 1.68 33.69a9 9 0 0 1-6.66 9.41l30.62 9.52z" transform="translate(-168.03 -1307.59)"/><path class="cls-1" d="M354.36 1490s19.58-12.9 27.12-17.59c6.37-4.53 5.51 6.53 5.51 6.53s-.15 21.7 0 29.58c.17 13.32 9.79 11.25 9.79 11.25l-42.47 27.71z" transform="translate(-168.03 -1307.59)"/><path class="cls-1" d="M384.53 1471.35l-21.43-5-31.28 18a4 4 0 0 1 2.49-.49l20.05 6.18s26.28-17.2 27.64-17.94a10.91 10.91 0 0 1 2.53-.75zm55.92-37.75s-10.41-3.35-18.62-5.87-7 10.73-7 10.73 1.51 25.8 1.68 33.68a9.07 9.07 0 0 1-6.67 9.42l30.63 9.51z" transform="translate(-168.03 -1307.59)"/><path class="cls-1" d="M440.45 1433.6s19.58-12.91 27.13-17.6c6.36-4.52 5.51 6.54 5.51 6.54s-.15 21.7 0 29.57c.16 13.33 9.79 11.26 9.79 11.26l-42.47 27.7z" transform="translate(-168.03 -1307.59)"/><path class="cls-1" d="M470.88 1415l-21.68-5.13s-30.57 17.67-30.89 17.82 1.69-.52 2.4-.3l19.74 6.19s26.5-17.44 28-18.13a4 4 0 0 1 2.43-.45zm52.76-35.51s-12.12-3-20.33-5.47-5.33 10.33-5.33 10.33 1.51 25.8 1.68 33.68a9.08 9.08 0 0 1-6.67 9.42l30.63 9.51zm0 0s19.59-12.91 27.13-17.6c6.36-4.52 5.51 6.54 5.51 6.54s-.15 21.7 0 29.57c.16 13.32 9.79 11.25 9.79 11.25L523.62 1437z" transform="translate(-168.03 -1307.59)"/><path class="cls-1" d="M553.78 1360.83l-21.39-5.06-32.54 18.23a4.72 4.72 0 0 1 2.54-.17l21.25 5.66 27.77-18a4.74 4.74 0 0 1 2.37-.66zM199.75 1442s-10.41-3.35-18.63-5.87-7 10.73-7 10.73 1.5 25.81 1.67 33.68a9.05 9.05 0 0 1-6.66 9.42l30.63 9.52z" transform="translate(-168.03 -1307.59)"/><path class="cls-1" d="M199.75 1442s19.58-12.9 27.12-17.6c6.37-4.52 5.51 6.54 5.51 6.54s-.15 21.7 0 29.58c.11 8.21 3.81 10.58 6.63 11.18l.11 2.06-39.41 25.72z" transform="translate(-168.03 -1307.59)"/><path class="cls-1" d="M230 1423.41c.43.15-21.53-5.09-21.53-5.09s-30.91 17.55-31.27 18a7.64 7.64 0 0 1 2.92-.4c1 .23 19.61 6.1 19.61 6.1s27-17.56 27.91-18a4.86 4.86 0 0 1 2.36-.61z" transform="translate(-168.03 -1307.59)"/><path class="cls-2" d="M286 1442l-10.5-3.26-1.69 1-19.1-5.83.35-.5a8.92 8.92 0 0 0 6.46-9.16c-.16-7.78-1.66-33.42-1.68-33.68s-.64-7.72 2.65-10.38a4.86 4.86 0 0 1 4.73-.6c8.11 2.48 18.52 5.83 18.62 5.87h.18zm-10.57-3.82l10.05 3.13v-55.4c-1.41-.46-10.92-3.5-18.45-5.81a4.41 4.41 0 0 0-4.25.51c-3.07 2.49-2.46 9.87-2.45 10 0 .26 1.51 25.91 1.67 33.7a9.31 9.31 0 0 1-6.07 9.41l17.78 5.53z" transform="translate(-168.03 -1307.59)"/><path class="cls-1" d="M285.72 1385.69s19.58-12.9 27.12-17.6c6.37-4.52 5.51 6.54 5.51 6.54s-.15 21.7 0 29.58c.08 6.77 2.56 9.51 4.67 10.48l.12 1.9.09 2.07-36 23.46-1.6-.49z" transform="translate(-168.03 -1307.59)"/><path class="cls-1" d="M316 1367.07l-21.54-5.07-31.18 17.92a6 6 0 0 1 2.79-.35l19.65 6.14s26.21-17.13 27.66-18a4.58 4.58 0 0 1 2.62-.64zm52.91-35.49s-10.42-3.35-18.63-5.87-7 10.73-7 10.73 1.51 25.8 1.68 33.68a9.05 9.05 0 0 1-6.66 9.42l30.62 9.52z" transform="translate(-168.03 -1307.59)"/><path class="cls-1" d="M368.91 1331.58s19.58-12.91 27.12-17.6c6.37-4.52 5.51 6.54 5.51 6.54s-.15 21.7 0 29.57c.09 7.39 3.09 10 5.74 10.94 0 0 .07.82.07 1.19s.09 1.66.09 1.66l-38.58 25.18z" transform="translate(-168.03 -1307.59)"/><path class="cls-1" d="M399.35 1312.9l-21.7-5s-25.87 15.2-31.23 18a4.62 4.62 0 0 1 2.84-.38c5.71 1 19.65 6.11 19.65 6.11s25.76-16.69 27.39-17.77a5 5 0 0 1 3.05-.96zm-114.63 155.51s-30.64-8.31-38.85-10.83-7 10.73-7 10.73 1.51 25.8 1.68 33.68-7.07 8-7.07 8l51.25 15.94z" transform="translate(-168.03 -1307.59)"/><path class="cls-1" d="M284.72 1468.41s22.22-13.49 29.76-18.19c3.61-2.93 2.87 7.13 2.87 7.13s-.15 21.7 0 29.57c.17 13.32 9.79 11.25 9.79 11.25l-42.47 27.71z" transform="translate(-168.03 -1307.59)"/><path class="cls-1" d="M315.3 1449.72l-28-7.6-11.88-3.69s-34.39 19.12-33 19.12a5 5 0 0 1 2.74-.16c9.4 2.26 39.61 11 39.61 11zm137.76-90.82s-30.64-8.31-38.85-10.82-7 10.72-7 10.72 1.51 25.81 1.68 33.68-7.07 7.77-7.07 8 41.58 13 41.58 13l5.84-3.51 3.84 1z" transform="translate(-168.03 -1307.59)"/><path class="cls-1" d="M453.06 1358.9s19.58-12.9 27.12-17.6c6.37-4.52 5.51 6.54 5.51 6.54s-.15 21.7 0 29.58c.17 13.32 9.79 11.25 9.79 11.25L459 1412.46l-6-1.6z" transform="translate(-168.03 -1307.59)"/><path class="cls-1" d="M482.3 1340.22l-40.72-10s-30.27 17.53-30.84 17.81 1.51-.49 2.68-.16l39.64 11zm-113.39 74.17s-30.63-8.31-38.85-10.82-7 10.72-7 10.72 1.5 25.81 1.67 33.68-7.32 7.49-7.06 8l41.33 12.82 4.1-2.47 5.79 1.47z" transform="translate(-168.03 -1307.59)"/><path class="cls-1" d="M368.91 1414.39s19.58-12.91 27.13-17.6c6.36-4.52 5.51 6.54 5.51 6.54s-.15 21.7 0 29.57c.16 13.33 9.79 11.26 9.79 11.26l-38 24.78-4.49-1.15z" transform="translate(-168.03 -1307.59)"/><path d="M398.94 1395.46l-42.5-10.27-30.38 18.27a8.58 8.58 0 0 1 4 .11l38.85 10.82s22.9-14.87 25.74-17 4.29-1.93 4.29-1.93z" transform="translate(-168.03 -1307.59)" fill="#cc1112"/><path class="cls-1" d="M64.3 140.13l22.74-14.07m63.22-41.4l19.97-12.72"/></g></svg>