<svg id="Слой_1" data-name="Слой 1" xmlns="http://www.w3.org/2000/svg" viewBox="0 0 539.96 405.88"><defs><style>.cls-1,.cls-2{fill:none;stroke:#1c1c1c;stroke-miterlimit:10;stroke-width:.49px}.cls-2{fill:#181818}.cls-7{fill:#e12726}</style></defs><g id="_11" data-name="11"><path class="cls-1" d="M70 127.08l69.17 16.5m104.7-11.74l-104.7 11.74m33.52-23.69L70 127.08m173.87 4.76l-71.18-11.95m23.92 17.25l-69.57-14.05m12.13 20.49V250.4m104.7-118.56v100.8M70 127.08v96.25m69.17 27.07L70 223.33m173.87 9.31l-104.7 17.76M95.7 273.04l93.07-15.44m-57.75 42.3H95.49m.21-26.86v26.86m93.07-42.3v23.9m-73.82-11.95v23.58m-19.46 6.77l19.46-6.77m16.07 6.77l-16.07-6.77m4.01-23.95l12.06 3.86m36.34-11.89l9.78 4.17m11.63-7.72l-6.98 6.76m-50.77 8.68l50.77-8.68m.05 25.02v-25.02m6.93 17.14l-6.93 7.88m-4.7-24.06v128.92m-11.43-127.13v132.21m-23.39-128.21v134.77m-11.3-132.84v129.45M120.45 299.9v95.82m61.39-106.34l-4.7 2.06m-77.69-8.04l11.42-2.06m-11.42 5.13l11.42-2.27m0-2.86v2.86m-11.42 2.27v-3.07m20.04-2.27v3.07m7.14-.8v3.07m-7.14-2.27l7.14 2.27m0-3.07l-7.14-2.27M428.22 73.14l39.19 7.14m-13.65-10.94l36.49 5.55m-22.84 5.39l22.84-5.39m-62.03-1.75l25.54-3.8m13.65 10.94v294.29m22.68-299.68v294.29m-11.26-291.6v294.29m-2.01-293.7v294.29M458.1 78.59v294.29m-1.96-294.71v294.29m-27.6-299.37v294.29m10.79-291.96v294.29M437 74.89v294.29M272.11 131.84l107.57 27.61m-107.57 62.58l108.52 37.68m47.91-9.83l-47.91 9.83m47.91-4.92l-251.4 53.15m0-10.79l195.9-40.07m-7.55-2.62l-188.35 38.73m11.63-29.96l134.03-23.6m7.08 2.46L188.77 268.7m110.15-36.06L22.4 281.5m73.3-.37l-61.13 10.95m60.92-7.14l-47.81 8.19m72.77 11L51.7 318.09m68.75-10.15l-55.32 11.21m55.32.64l-61.98 12.48m431.62-134.11l49.34-8.25m-49.34 19.83l48.55-8.57m-48.55 12.22l36.81-6.35m-36.81 23.16l38.55-8.17m-38.55 11.82l49.82-10.63m-49.82 18.25l37.92-8.09m-255.9-101.54v90.19m107.57-62.58l.95 100.26m47.91-126.92l-91.06-19.25m-50.14 2.33l103.23 26.87m37.97-5.08l-37.97 5.08m-53.09-29.2l-50.14 2.33m92.81 97.09l-108.04-32.57m108.04 65.57l-108.04-36.38"/><ellipse class="cls-2" cx="388.45" cy="151.73" rx="1.9" ry="2.64"/><ellipse class="cls-2" cx="418.81" cy="200.27" rx="4.12" ry="5.29"/><ellipse class="cls-2" cx="388.45" cy="252.79" rx="1.9" ry="2.6"/><ellipse class="cls-1" cx="407.6" cy="171.72" rx="5.39" ry="8.88"/><ellipse class="cls-1" cx="407.56" cy="171.68" rx="2.49" ry="5.26"/><path class="cls-1" d="M480.55 1595.59h-.05c-1.37 0-2.48-2.35-2.48-5.26s1.11-5.25 2.48-5.25h.05v-3.6c-3 0-5.4 4-5.4 8.89s2.42 8.88 5.4 8.88z" transform="translate(-52.01 -1421.38)"/><ellipse class="cls-1" cx="400.67" cy="232.85" rx="4.49" ry="5.08"/><ellipse class="cls-1" cx="400.67" cy="233.01" rx="2.06" ry="2.49"/><ellipse class="cls-1" cx="414.1" cy="230.41" rx="4.49" ry="5.08"/><ellipse class="cls-1" cx="414.1" cy="230.57" rx="2.06" ry="2.49"/><path class="cls-1" d="M480.55 1651.45a1.86 1.86 0 0 1-1.39.66 2.53 2.53 0 0 1 0-5 1.86 1.86 0 0 1 1.39.66v-3.16a4.07 4.07 0 0 0-1.39-.25 5.11 5.11 0 0 0 0 10.15 4.07 4.07 0 0 0 1.39-.25z" transform="translate(-52.01 -1421.38)"/><path d="M390.57 142.73l-103.23-26.86s-13.38 1-15.23 16l107.56 27.61c.11-13.15 10.9-16.75 10.9-16.75z" fill="#bf161f" stroke-width=".49" stroke="#1c1c1c" stroke-miterlimit="10"/><path class="cls-1" d="M310.31 1516.78s-31.65 2.94-43.94 4.26-11.6 13.55-11.6 13.55v11.73l41.11 6.9V1607l25.27-3.37V1527c0-11.93-10.84-10.22-10.84-10.22z" transform="translate(-52.01 -1421.38)"/><path class="cls-1" d="M269.15 182.24l2.96-.42m-59.17-75.52l50.13-5.71m-43.31 9.99l40.61-4.6m-47.43.32l6.82 4.28m-7.01 16.04l.19-20.32m6.52 21.44l.3-17.16m40.61-4.6v77.39m2.56-.3v-82.48m-2.56 5.39l2.7-5.39m-31.57 29.17v-7.6m6.34 8.67v-9.06m-6.34.39l6.34-.39m-3.89 8.4l-.09-6.26m1.76 6.55v-6.55m-1.76 0h1.76m11.03-3.49v47.36m6.11-47.68v47.36m-6.11-47.04l6.11-.32m-6.11 47.68l6.11-.32m-4.05-45.08v43.33m1.59-43.46v43.46m-1.86-43.22l2.01-.03m-1.74 43.25h1.59m-62.75 50.78v17.44m0-17.44v17.44m1.12-17.6l.09 15.46m1.25-15.66v15.42m1.19-15.59v15.35m1.27-15.54v17.53m1.19-17.93v15.47m1.15-15.4v15m1.23-15.18v15.18m.99-15.41v14.93m1.22-15.02v14.87m1.24-15.04v14.76m1.19-14.95v14.75m1.27-14.93v14.93m1.19-15.1v14.47m1.15-14.64v14.64m1.23-14.82v16.56M70 213.88L.03 223.64"/><path d="M212.15 100.05l-72.16-18.13s-9 .7-10.29 11.16l73.1 19.43a13.15 13.15 0 0 1 9.35-12.46z" stroke-width=".33" fill="#bf161f" stroke="#1c1c1c" stroke-miterlimit="10"/><path d="M129.65 93.08v29.73m10.29-40.89l43.97-2.27m74.4 15.75l-74.4-15.75M164.39 5.24v75.42M146.78 2.07v79.48m28.08-78.53v77.09M146.78 2.07l17.61 3.17m10.47-2.22l-10.47 2.22m-17.61-3.17l11.27-1.9m16.81 2.85L158.05.17m1.57 4.21v76.51m-8.4-78.02v78.41" stroke-width=".33" stroke="#1c1c1c" stroke-miterlimit="10" fill="none"/></g><path d="M243.83 1607.08a2.72 2.72 0 0 1-2.27-.72 3.14 3.14 0 0 1-.92-2.4 4 4 0 0 1 .92-2.62 3.47 3.47 0 0 1 2.27-1.27 2.47 2.47 0 0 1 2.41.93l-.61.52a1.77 1.77 0 0 0-.78-.59 2.06 2.06 0 0 0-1-.11 2.53 2.53 0 0 0-1.71 1 3.2 3.2 0 0 0-.68 2 2.55 2.55 0 0 0 .69 1.88 1.94 1.94 0 0 0 1.7.57 2.39 2.39 0 0 0 1-.33 2.86 2.86 0 0 0 .71-.59V1604l-2.13.26v-.75l2.9-.36v2.45a3.44 3.44 0 0 1-2.44 1.47zm9-1.16l-.91.1-1.57-2.57-1.25.16v2.73l-.77.09v-6.87l2.49-.34a1.66 1.66 0 0 1 1.41.39 1.88 1.88 0 0 1 .54 1.45 2.35 2.35 0 0 1-.47 1.49 1.92 1.92 0 0 1-1.15.73zm-2.1-3.27a1.35 1.35 0 0 0 .89-.49 1.47 1.47 0 0 0 .35-1 1.15 1.15 0 0 0-.35-.91 1.08 1.08 0 0 0-.89-.25l-1.63.22v2.63l1.63-.2zm14.71 2a2 2 0 0 1-1.87-.57 2.9 2.9 0 0 1-.66-2.06v-4.4l.79-.1v4.38a2.29 2.29 0 0 0 .45 1.53 1.39 1.39 0 0 0 1.29.42 1.74 1.74 0 0 0 1.3-.73 2.7 2.7 0 0 0 .46-1.64V1597l.78-.1v4.45a3.69 3.69 0 0 1-.65 2.26 2.57 2.57 0 0 1-1.89 1zm5.6-.76l-.77.09v-7.35l2.49-.34a1.53 1.53 0 0 1 1.42.45 2.2 2.2 0 0 1 .52 1.53 2.78 2.78 0 0 1-.52 1.66 2 2 0 0 1-1.42.82l-1.72.21zm1.62-3.95a1.29 1.29 0 0 0 .9-.5 1.69 1.69 0 0 0 .34-1.07 1.32 1.32 0 0 0-.34-1 1 1 0 0 0-.9-.28l-1.62.22v2.8l1.62-.2zm-54.69 10v-6.2l2.49-.34a1.57 1.57 0 0 1 1.94 1.64 2.12 2.12 0 0 1-1.94 2.13l-1.72.21v2.47zm3.63-4.8a1 1 0 0 0-1.23-1l-1.63.22v2.36l1.63-.2a1.34 1.34 0 0 0 1.26-1.44zm6.38 3.66l-2.35-2.59-.63.8v2.13l-.77.09v-6.34l.77-.1v3.21l2.74-3.65 1-.14-2.58 3.39 2.8 3-1 .11zm1.93-3.44a3.73 3.73 0 0 1 3.18-3.78 2.51 2.51 0 0 1 2.41.91l-.61.48a2 2 0 0 0-1.8-.66 2.86 2.86 0 0 0-2.38 3 2.14 2.14 0 0 0 2.38 2.36 2.7 2.7 0 0 0 1.67-.9v-1.34l-2.13.26v-.72l2.9-.36v2.38a3.64 3.64 0 0 1-2.44 1.41 2.79 2.79 0 0 1-3.15-3.1z" transform="translate(-52.01 -1421.38)" fill="#414042"/><path class="cls-7" d="M260.48 1601.43a3.77 3.77 0 0 1-3 4.09c-1.82.25-3.08-1.11-3.13-3.16a3.82 3.82 0 0 1 3-4.08c1.83-.28 3.09 1.07 3.13 3.15zm-5.31.81c0 1.63.94 2.7 2.32 2.5s2.23-1.54 2.2-3.19-.94-2.72-2.32-2.5a2.91 2.91 0 0 0-2.2 3.19z" transform="translate(-52.01 -1421.38)"/><path class="cls-7" d="M257.29 1605.54c-.36 0-.29-.76-.29-.76a2.36 2.36 0 0 0 1-.15 4.34 4.34 0 0 0 1.31-.73 4.07 4.07 0 0 0 1.52-2l.51-.22a5.13 5.13 0 0 1-1.69 2.83 4.9 4.9 0 0 1-1.51.86 2.86 2.86 0 0 1-.85.17z" transform="translate(-52.01 -1421.38)"/><path d="M257.81 1604.67a3.14 3.14 0 0 0 1.05-.56 7.52 7.52 0 0 0 .85-.84 9.67 9.67 0 0 0 .71-.94c0 .1 0 .2-.05.3s-.07.25-.07.25a5 5 0 0 1-1.11 1.17 4.72 4.72 0 0 1-1.38.62z" transform="translate(-52.01 -1421.38)" style="isolation:isolate" opacity=".7"/></svg>