<svg id="Слой_1" data-name="Слой 1" xmlns="http://www.w3.org/2000/svg" viewBox="0 0 240.34 265.49"><defs><style>.cls-1{fill:#fff}</style></defs><g id="_9" data-name="9"><path class="cls-1" d="M240.17 80.47L47.9 104.72"/><path d="M47.92 104.89l-.04-.35L240.14 80.3l.05.35-192.27 24.24z"/><path class="cls-1" d="M.63 23.81L191.53.18"/><path d="M.65 23.99l-.19-.34L191.51 0l.04.35L.65 23.99z"/><path class="cls-1" d="M238.35 41.99L191.53.18"/><path d="M238.23 42.12L191.41.31l.1-.31 47.02 41.99-.3.13z"/><path class="cls-1" d="M47.9 66.54l190.45-24.55"/><path transform="rotate(-8.1 -11207.43 2180.582)" d="M249 1545.63h192.02v.35H249z"/><path class="cls-1" d="M.63 23.81L47.9 66.54"/><path transform="rotate(-47.89 -1554.132 1018.281)" d="M225.98 1504.86h.35v63.72h-.35z"/><path class="cls-1" d="M.63 23.81v17.12"/><path d="M.81 40.93l-.29.13-.06-17.41.35.16v17.12z"/><path class="cls-1" d="M47.9 66.54v16.21"/><path d="M47.73 66.54h.35v16.21h-.35z"/><path class="cls-1" d="M.63 40.93L47.9 82.75"/><path transform="rotate(-48.5 -1530.283 1031.787)" d="M225.98 1521.83h.35v63.11h-.35z"/><path class="cls-1" d="M238.35 41.99v17.12"/><path d="M238.53 59.27l-.36-.16V41.99h.36v17.28z"/><path class="cls-1" d="M47.9 82.75l190.45-23.64"/><path d="M47.92 82.92l-.04-.35 190.45-23.63.2.33L47.92 82.92z"/><path class="cls-1" d="M47.9 104.72v160.6"/><path d="M47.73 104.72h.35v160.6h-.35z"/><path class="cls-1" d="M.18 61.84V223.8"/><path d="M.35 223.8H0V61.66l.35.18V223.8zM239.99 80.47h.35v161.21h-.35z"/><path class="cls-1" d="M47.9 265.32l192.27-23.64"/><path transform="rotate(-6.99 -11965.926 2651.376)" d="M249.06 1744.86h193.71v.35H249.06z"/><path class="cls-1" d="M.18 223.8l47.72 41.52"/><path d="M47.79 265.45L.06 223.94l.23-.27 47.73 41.51-.23.27z"/><path class="cls-1" d="M.18 61.84l47.72 42.88"/><path transform="rotate(-48.06 -1547.632 1055.543)" d="M225.75 1542.74h.35v64.16h-.35z"/><path class="cls-1" d="M7.6 54.26v9.85"/><path d="M7.78 64.11l-.3.13-.06-10.15.36.17v9.85z"/><path class="cls-1" d="M51.54 93.2v11.06"/><path d="M51.36 93.2h.35v11.05h-.35z"/><path class="cls-1" d="M7.6 54.26L51.54 93.2"/><path transform="rotate(-48.45 -1526.935 1043.913)" d="M231.28 1535.92h.35v58.71h-.35z"/><path class="cls-1" d="M7.6 64.11l43.94 40.15"/><path d="M253.3 1595.93s-43.9-40.07-43.93-40.14.24-.27.24-.27l43.93 40.15z" transform="translate(-201.89 -1491.54)"/><path class="cls-1" d="M.18 61.84H7.6"/><path d="M7.6 62.02H.18L0 61.66h7.6v.36z"/><path class="cls-1" d="M7.6 54.26h8.1"/><path d="M15.7 54.44H7.6l-.18-.35h8.28v.35z"/><path class="cls-1" d="M51.54 93.2l90.45-11.66"/><path transform="rotate(-8.1 -11253.106 2212.376)" d="M253.05 1578.73h91.2v.35h-91.2z"/><path class="cls-1" d="M142.15 92.83V81.54"/><path d="M141.97 81.54h.35v11.3h-.35z"/><path class="cls-1" d="M47.9 82.75l7.5 7.5"/><path transform="rotate(-45 -1647.894 1075.91)" d="M253.36 1572.74h.35v10.61h-.35z"/><path class="cls-1" d="M141.99 81.54l-4.55-1.97"/><path transform="rotate(-66.58 -895.138 980.019)" d="M341.43 1569.62h.35v4.95h-.35z"/><path class="cls-1" d="M55.4 90.25l82.04-10.68"/><path d="M55.42 90.42l-.04-.35 82.04-10.68.05.35-82.05 10.68z"/><path class="cls-1" d="M142.15 70.93v6.97"/><path d="M141.97 70.93h.35v6.97h-.35z"/><path class="cls-1" d="M233.63 59.7v6.38"/><path d="M233.81 66.24l-.36-.16V59.7h.36v6.54z"/><path class="cls-1" d="M142.15 77.9l91.48-11.82"/><path d="M142.17 78.07l-.04-.35 91.48-11.81.2.33-91.64 11.83z"/><path class="cls-1" d="M139.72 71.35v4.88"/><path d="M139.54 71.35h.35v4.88h-.35z"/><path class="cls-1" d="M142.15 77.9l-2.43-1.67"/><path transform="rotate(-55.62 -1172.043 1014.17)" d="M342.64 1567.13h.35v2.95h-.35z"/><path class="cls-1" d="M225.43 67.14l14.74 13.33"/><path d="M240.05 80.61l-14.74-13.34.24-.26 14.79 13.46-.29.14z"/><path class="cls-1" d="M219.84 67.86l13.79 12.61"/><path transform="rotate(-47.56 -1364.92 1048.887)" d="M428.44 1556.37h.35v18.69h-.35z"/><path class="cls-1" d="M214.1 68.6l9.85 9.3"/><path d="M223.83 78.03l-9.85-9.3.24-.25 9.91 9.42-.3.13z"/><path class="cls-1" d="M208.53 69.32l8.46 7.75"/><path transform="rotate(-47.53 -1380.028 1048.17)" d="M414.47 1559.01h.35v11.47h-.35z"/><path class="cls-1" d="M142.15 86.54l74.84-9.47"/><path d="M142.17 86.71l-.04-.35 74.97-9.42-.09.3-74.84 9.47zm0 5.38l-.04-.35 91.62-11.4-.1.31-91.48 11.44zm-.08-3.18l-.04-.35 81.88-10.84.05.35-81.89 10.84z"/><path d="M223.78 77.9h.35v3.82h-.35z"/><path fill="#ce1112" d="M142.15 86.53l-.16-5-4.55-1.96L55.4 90.25l-7.5-7.5 91.82-11.4v4.88l2.43 1.67 37.42-4.84v8.74l-37.42 4.73z"/></g></svg>