<svg id="Слой_1" data-name="Слой 1" xmlns="http://www.w3.org/2000/svg" viewBox="0 0 347.89 300.7"><defs><style>.cls-1{fill:none;stroke:#1c1c1c;stroke-miterlimit:10;stroke-width:.3px}</style></defs><g id="_14" data-name="14"><path class="cls-1" d="M297.71 1445.11l-11.17 6.89c-2.12 1.31-.57 2.11 0 2.23s238.46 49.3 245.76 50.64 9.81-1.08 9.81-1.08 71.1-60.74 74.2-63.33.81-2.66.81-2.66l-7.15-1.48" transform="translate(-285.31 -1273.67)"/><path class="cls-1" d="M285.56 1453.57s1 39.16 1.95 51.7 7.26 13.62 7.84 13.74 229.6 53.47 236.95 54.8 9.81-1.07 9.81-1.07 69-71.67 72.13-74.26 2.88-9.19 2.88-9.19l.82-50.77" transform="translate(-285.31 -1273.67)"/><path class="cls-1" d="M253.37 231.43v68.95"/><path d="M325.34 162.6s-66.44 56.29-69.84 59.3-9.32 1.55-9.32 1.55L12.69 174.69v-5.95l232.71 48.49s5.86 1.76 8.94-1l71-62.74z" fill="#b22525" stroke="#1c1c1c" stroke-miterlimit="10" stroke-width=".3"/><path class="cls-1" d="M298 1442.41s75.76-47.79 80.23-50.57a11.34 11.34 0 0 1 8.35-1.75l224.07 37.1" transform="translate(-285.31 -1273.67)"/><path class="cls-1" d="M97.39 116.23v60.41m-13.07 7.02l13.07-7.02m164.88 32.61L97.39 176.64"/><path class="cls-1" d="M381 1390.53s-18.47-90-19.44-95 1.88-7.41 3.11-7.25c39.58 5.37 216.93 28.42 230.57 30.37 15.45 2.2 15.45 10.1 15.45 10.1s13.07 140.5 14.16 150.81-7.69 9.77-7.69 9.77" transform="translate(-285.31 -1273.67)"/><path class="cls-1" d="M388.59 1390.42s-18.72-85.8-19.69-90.85-1.68-7.34 7.92-6 200.5 27.5 214.18 29.43c15.44 2.2 15.44 10.1 15.44 10.1s7.24 93.87 8.32 104.19" transform="translate(-285.31 -1273.67)"/><path class="cls-1" d="M394.23 1391.36s-18.63-85.9-19.7-91.4 3.94-6.19 3.94-6.19" transform="translate(-285.31 -1273.67)"/><path class="cls-1" d="M364.05 1288.24l9.77-10.88s2.56-4.77 14.7-3.24 196.48 24.67 215.62 27.78 17.86 17.87 17.86 17.87 10.19 135 10.92 143.23-2.37 12.56-2.37 12.56l-5.66 7.77" transform="translate(-285.31 -1273.67)"/></g></svg>