<svg version="1.1" id="Layer_1" xmlns="http://www.w3.org/2000/svg" x="0" y="0" viewBox="0 0 1200 800" xml:space="preserve"><style>.st0{fill:none;stroke:#7c7c7c;stroke-miterlimit:10}.st1{fill:#c91b1b}</style><g id="_x31_6"><circle class="st0" cx="612.9" cy="441.1" r="3.5"/><circle class="st0" cx="528.4" cy="396.5" r="3.1"/><ellipse transform="rotate(-1.6 615.245 397.231) scale(.99999)" class="st0" cx="615.3" cy="397.2" rx="3.1" ry="5.2"/><ellipse transform="rotate(-1.6 585.693 424.409) scale(.99999)" class="st0" cx="585.7" cy="424.4" rx="3.1" ry="4.7"/><circle class="st0" cx="584.2" cy="403.6" r="2.2"/><circle class="st0" cx="580.2" cy="384.4" r="2.5"/><circle class="st0" cx="553.3" cy="394.1" r="3.2"/><ellipse transform="rotate(-1.6 531.8 416.14) scale(.99999)" class="st0" cx="531.8" cy="416.1" rx="2.9" ry="3.8"/><ellipse transform="rotate(-1.6 561.562 432.333) scale(.99999)" class="st0" cx="561.6" cy="432.3" rx="4.1" ry="2.5"/><circle class="st0" cx="547.1" cy="452.6" r="1.9"/><circle class="st0" cx="538" cy="441.9" r="2.6"/><ellipse transform="rotate(-1.6 544.265 427.93) scale(.99999)" class="st0" cx="544.3" cy="427.9" rx="4.1" ry="2.4"/><circle class="st0" cx="507.8" cy="432.6" r="3.7"/><ellipse transform="rotate(-1.6 468.42 439.522) scale(.99999)" class="st0" cx="468.4" cy="439.5" rx="3" ry="2.1"/><circle class="st0" cx="504.7" cy="397.1" r="1.6"/><circle class="st0" cx="518.7" cy="372.2" r="1.8"/><circle class="st0" cx="522.8" cy="378.6" r="2"/><circle class="st0" cx="552.4" cy="370" r="3"/><circle class="st0" cx="555.1" cy="358.2" r="2.8"/><circle class="st0" cx="531.7" cy="360.3" r="1.4"/><circle class="st0" cx="529.3" cy="352.6" r="2.2"/><circle class="st0" cx="535.3" cy="346.1" r="2.6"/><circle class="st0" cx="498.8" cy="362.9" r="1.7"/><ellipse transform="rotate(-1.6 469.592 370.056) scale(.99999)" class="st0" cx="469.6" cy="370" rx="3.1" ry="1.6"/><circle class="st0" cx="455.4" cy="370.4" r="1.6"/><circle class="st0" cx="450.4" cy="365.5" r="1.5"/><circle class="st0" cx="460.7" cy="393.3" r="3"/><circle class="st0" cx="473" cy="386.8" r="3.1"/><circle class="st0" cx="466.4" cy="384.6" r="2.4"/><circle class="st0" cx="461.6" cy="383.5" r="1.2"/><circle class="st0" cx="442.5" cy="397.4" r="1.6"/><circle class="st0" cx="432.6" cy="411.4" r="1.4"/><circle class="st0" cx="449.2" cy="428.5" r="3"/><circle class="st0" cx="468" cy="449.2" r="2.7"/><circle class="st0" cx="492.7" cy="460.7" r="3"/><circle class="st0" cx="487.1" cy="470.5" r="1.3"/><circle class="st0" cx="478" cy="474.4" r="2.4"/><circle class="st0" cx="478" cy="489.9" r="2.1"/><circle class="st0" cx="487" cy="489.6" r="2.1"/><circle class="st0" cx="505.4" cy="483.6" r="1.6"/><circle class="st0" cx="504.8" cy="474.8" r="1.2"/><circle class="st0" cx="504.1" cy="492.9" r="1.7"/><circle class="st0" cx="507" cy="501.2" r="2.7"/><circle class="st0" cx="495.7" cy="513.4" r="1.5"/><circle class="st0" cx="491.4" cy="539.2" r="3.6"/><circle class="st0" cx="515.1" cy="507.6" r="1.6"/><circle class="st0" cx="516.3" cy="502.3" r="1.3"/><circle class="st0" cx="515.9" cy="486.3" r="1.3"/><circle class="st0" cx="508.3" cy="488" r="1"/><circle class="st0" cx="501.2" cy="486.1" r=".7"/><circle class="st0" cx="518.7" cy="467.6" r="2"/><circle class="st0" cx="531.8" cy="462.7" r="1.6"/><circle class="st0" cx="499.8" cy="408.8" r="3.2"/><circle class="st0" cx="492.6" cy="402.1" r="1.5"/><circle class="st0" cx="480" cy="407.9" r="1.4"/><circle class="st0" cx="486" cy="409.5" r="1.8"/><circle class="st0" cx="475.8" cy="412.3" r="2.1"/><circle class="st0" cx="576.7" cy="370.5" r="1.8"/><circle class="st0" cx="575.9" cy="363.2" r="1.2"/><circle class="st0" cx="583.5" cy="352.9" r="1.7"/><circle class="st0" cx="595.9" cy="372.3" r="2.3"/><circle class="st0" cx="604.6" cy="375" r="2.9"/><circle class="st0" cx="655.2" cy="357.3" r="3.5"/><circle class="st0" cx="617" cy="444.9" r="3.1"/><ellipse transform="rotate(-5.789 611.134 357.891)" class="st0" cx="611.3" cy="358.2" rx="5.2" ry="3.1"/><ellipse transform="rotate(-5.789 640.397 385.352)" class="st0" cx="640.6" cy="385.6" rx="4.7" ry="3.1"/><circle class="st0" cx="619.9" cy="388.6" r="2.2"/><circle class="st0" cx="601.1" cy="394.1" r="2.5"/><circle class="st0" cx="612.8" cy="420.2" r="3.2"/><ellipse transform="rotate(-5.789 636.114 439.688)" class="st0" cx="636.3" cy="440" rx="3.8" ry="2.9"/><ellipse transform="rotate(-5.789 650.072 408.828)" class="st0" cx="650.3" cy="409.1" rx="2.5" ry="4.1"/><circle class="st0" cx="671.5" cy="422.1" r="1.9"/><circle class="st0" cx="661.6" cy="431.9" r="2.6"/><ellipse transform="rotate(-5.789 646.954 426.392)" class="st0" cx="647.1" cy="426.7" rx="2.4" ry="4.1"/><circle class="st0" cx="654.5" cy="462.8" r="3.7"/><ellipse transform="rotate(-5.789 664.08 501.15)" class="st0" cx="664.2" cy="501.5" rx="2.1" ry="3"/><circle class="st0" cx="619.3" cy="468.5" r="1.6"/><circle class="st0" cx="593.4" cy="456.3" r="1.8"/><circle class="st0" cx="599.5" cy="451.8" r="2"/><circle class="st0" cx="588.8" cy="422.8" r="3"/><circle class="st0" cx="576.8" cy="421" r="2.8"/><circle class="st0" cx="580.6" cy="444.2" r="1.4"/><circle class="st0" cx="573.1" cy="447.1" r="2.2"/><circle class="st0" cx="566.2" cy="441.6" r="2.6"/><circle class="st0" cx="585.6" cy="476.9" r="1.7"/><ellipse transform="rotate(-5.789 594.743 505.086)" class="st0" cx="594.9" cy="505.4" rx="1.6" ry="3.1"/><circle class="st0" cx="596.3" cy="519.6" r="1.6"/><circle class="st0" cx="591.8" cy="524.9" r="1.5"/><circle class="st0" cx="618.7" cy="512.6" r="3"/><circle class="st0" cx="611.4" cy="500.8" r="3.1"/><circle class="st0" cx="609.6" cy="507.6" r="2.4"/><circle class="st0" cx="608.9" cy="512.4" r="1.2"/><circle class="st0" cx="624.1" cy="530.5" r="1.6"/><circle class="st0" cx="638.9" cy="539.3" r="1.4"/><circle class="st0" cx="654.7" cy="521.5" r="3"/><circle class="st0" cx="673.9" cy="501.3" r="2.7"/><circle class="st0" cx="683.6" cy="475.7" r="3"/><circle class="st0" cx="693.7" cy="480.6" r="1.3"/><circle class="st0" cx="698.3" cy="489.4" r="2.4"/><circle class="st0" cx="713.8" cy="488.3" r="2.1"/><circle class="st0" cx="712.9" cy="479.3" r="2.1"/><circle class="st0" cx="705.6" cy="461.4" r="1.6"/><circle class="st0" cx="696.8" cy="462.7" r="1.2"/><circle class="st0" cx="714.9" cy="462" r="1.7"/><circle class="st0" cx="723" cy="458.5" r="2.7"/><circle class="st0" cx="735.9" cy="468.9" r="1.5"/><circle class="st0" cx="762" cy="471.3" r="3.6"/><circle class="st0" cx="728.7" cy="450" r="1.6"/><circle class="st0" cx="723.4" cy="449.1" r="1.3"/><circle class="st0" cx="707.5" cy="450.8" r="1.3"/><circle class="st0" cx="709.7" cy="458.2" r="1"/><circle class="st0" cx="708.3" cy="465.4" r=".7"/><circle class="st0" cx="688.6" cy="449.3" r="2"/><circle class="st0" cx="682.7" cy="436.6" r="1.6"/><circle class="st0" cx="631.3" cy="472.5" r="3.2"/><circle class="st0" cx="625.2" cy="480.2" r="1.5"/><circle class="st0" cx="631.9" cy="492.3" r="1.4"/><circle class="st0" cx="633.1" cy="486.2" r="1.8"/><circle class="st0" cx="636.6" cy="496.1" r="2.1"/><circle class="st0" cx="587.5" cy="398.5" r="1.8"/><circle class="st0" cx="580.3" cy="400" r="1.2"/><circle class="st0" cx="569.4" cy="393.1" r="1.7"/><circle class="st0" cx="587.9" cy="379.3" r="2.3"/><circle class="st0" cx="590" cy="370.4" r="2.9"/><circle class="st0" cx="468.9" cy="291.5" r="3.5"/><circle class="st0" cx="547.9" cy="345.3" r="3.1"/><ellipse transform="rotate(-85.137 461.645 334.852)" class="st0" cx="461.6" cy="334.9" rx="5.2" ry="3.1"/><ellipse transform="rotate(-85.137 494.064 311.174)" class="st0" cx="494.1" cy="311.2" rx="4.7" ry="3.1"/><circle class="st0" cx="493.2" cy="332" r="2.2"/><circle class="st0" cx="495.1" cy="351.5" r="2.5"/><circle class="st0" cx="522.9" cy="344.9" r="3.2"/><ellipse transform="rotate(-85.137 546.689 325.453)" class="st0" cx="546.7" cy="325.5" rx="3.8" ry="2.9"/><ellipse transform="rotate(-85.137 518.935 306.012)" class="st0" cx="518.9" cy="306" rx="2.5" ry="4.1"/><circle class="st0" cx="535.6" cy="287.5" r="1.9"/><circle class="st0" cx="543.4" cy="299.1" r="2.6"/><ellipse transform="rotate(-85.137 535.626 312.333)" class="st0" cx="535.6" cy="312.3" rx="2.4" ry="4.1"/><circle class="st0" cx="572.4" cy="311.8" r="3.7"/><ellipse transform="rotate(-85.137 612.294 309.35)" class="st0" cx="612.3" cy="309.4" rx="2.1" ry="3"/><circle class="st0" cx="571.5" cy="347.4" r="1.6"/><circle class="st0" cx="554.7" cy="370.6" r="1.8"/><circle class="st0" cx="551.4" cy="363.8" r="2"/><circle class="st0" cx="521" cy="368.9" r="3"/><circle class="st0" cx="517" cy="380.4" r="2.8"/><circle class="st0" cx="540.5" cy="380.9" r="1.4"/><circle class="st0" cx="542" cy="388.8" r="2.2"/><circle class="st0" cx="535.3" cy="394.7" r="2.6"/><circle class="st0" cx="573.5" cy="382.1" r="1.7"/><ellipse transform="rotate(-85.137 603.314 378.243)" class="st0" cx="603.3" cy="378.2" rx="1.6" ry="3.1"/><circle class="st0" cx="617.5" cy="379.4" r="1.6"/><circle class="st0" cx="621.8" cy="384.9" r="1.5"/><circle class="st0" cx="614.8" cy="356.1" r="3"/><circle class="st0" cx="601.8" cy="361.2" r="3.1"/><circle class="st0" cx="608.1" cy="364.2" r="2.4"/><circle class="st0" cx="612.7" cy="365.8" r="1.2"/><circle class="st0" cx="633.4" cy="354.1" r="1.6"/><circle class="st0" cx="644.7" cy="341.3" r="1.4"/><circle class="st0" cx="630.2" cy="322.4" r="3"/><circle class="st0" cx="613.9" cy="299.8" r="2.7"/><circle class="st0" cx="590.6" cy="285.5" r="3"/><circle class="st0" cx="597.2" cy="276.5" r="1.3"/><circle class="st0" cx="606.7" cy="273.6" r="2.4"/><circle class="st0" cx="608.5" cy="258.2" r="2.1"/><circle class="st0" cx="599.5" cy="257.5" r="2.1"/><circle class="st0" cx="580.5" cy="261.3" r="1.6"/><circle class="st0" cx="580.2" cy="270.2" r="1.2"/><circle class="st0" cx="582.9" cy="252.3" r="1.7"/><circle class="st0" cx="580.9" cy="243.7" r="2.7"/><circle class="st0" cx="593.5" cy="232.9" r="1.5"/><circle class="st0" cx="600.7" cy="207.7" r="3.6"/><circle class="st0" cx="573.6" cy="236.5" r="1.6"/><circle class="st0" cx="571.8" cy="241.5" r="1.3"/><circle class="st0" cx="570.4" cy="257.5" r="1.3"/><circle class="st0" cx="578.2" cy="256.7" r="1"/><circle class="st0" cx="585" cy="259.4" r=".7"/><circle class="st0" cx="565.5" cy="275.8" r="2"/><circle class="st0" cx="552" cy="279.2" r="1.6"/><circle class="st0" cx="577.7" cy="336.3" r="3.2"/><circle class="st0" cx="584.1" cy="343.8" r="1.5"/><circle class="st0" cx="597.2" cy="339.4" r="1.4"/><circle class="st0" cx="591.5" cy="337.2" r="1.8"/><circle class="st0" cx="601.9" cy="335.6" r="2.1"/><circle class="st0" cx="496.9" cy="365.7" r="1.8"/><circle class="st0" cx="497" cy="373.1" r="1.2"/><circle class="st0" cx="488.2" cy="382.5" r="1.7"/><circle class="st0" cx="478.1" cy="361.8" r="2.3"/><circle class="st0" cx="469.7" cy="358.1" r="2.9"/><circle class="st0" cx="605.1" cy="402.4" r="3.5"/><circle class="st0" cx="696.6" cy="374.8" r="3.1"/><ellipse transform="rotate(-46.122 634.249 435.289)" class="st0" cx="634.2" cy="435.3" rx="3.1" ry="5.2"/><ellipse transform="rotate(-46.122 636.257 395.19)" class="st0" cx="636.2" cy="395.2" rx="3.1" ry="4.7"/><circle class="st0" cx="651.9" cy="409" r="2.2"/><circle class="st0" cx="668.2" cy="419.8" r="2.5"/><circle class="st0" cx="680.6" cy="394" r="3.2"/><ellipse transform="rotate(-46.122 680.482 363.285)" class="st0" cx="680.4" cy="363.3" rx="2.9" ry="3.8"/><ellipse transform="rotate(-46.122 647.903 372.613)" class="st0" cx="647.8" cy="372.6" rx="4.1" ry="2.5"/><circle class="st0" cx="644" cy="348" r="1.9"/><circle class="st0" cx="657.9" cy="349.2" r="2.6"/><ellipse transform="rotate(-46.122 663.322 363.623)" class="st0" cx="663.3" cy="363.6" rx="4.1" ry="2.4"/><circle class="st0" cx="686" cy="334.6" r="3.7"/><ellipse transform="rotate(-46.122 709.269 302.167)" class="st0" cx="709.2" cy="302.2" rx="3" ry="2.1"/><circle class="st0" cx="713.1" cy="357.8" r="1.6"/><circle class="st0" cx="720.6" cy="385.5" r="1.8"/><circle class="st0" cx="713.2" cy="383.7" r="2"/><circle class="st0" cx="698" cy="410.6" r="3"/><circle class="st0" cx="704.4" cy="420.9" r="2.8"/><circle class="st0" cx="719.7" cy="403" r="1.4"/><circle class="st0" cx="726.7" cy="406.8" r="2.2"/><circle class="st0" cx="727" cy="415.7" r="2.6"/><circle class="st0" cx="741.3" cy="378" r="1.7"/><ellipse transform="rotate(-46.122 757.151 352.515)" class="st0" cx="757.1" cy="352.5" rx="3.1" ry="1.6"/><circle class="st0" cx="766.9" cy="342.3" r="1.6"/><circle class="st0" cx="773.9" cy="342.3" r="1.5"/><circle class="st0" cx="747.1" cy="329.7" r="3"/><circle class="st0" cx="742.9" cy="342.9" r="3.1"/><circle class="st0" cx="749.2" cy="339.9" r="2.4"/><circle class="st0" cx="753.3" cy="337.3" r="1.2"/><circle class="st0" cx="757.3" cy="314" r="1.6"/><circle class="st0" cx="754.4" cy="297.1" r="1.4"/><circle class="st0" cx="730.6" cy="296.5" r="3"/><circle class="st0" cx="702.8" cy="294.9" r="2.7"/><circle class="st0" cx="677" cy="304" r="3"/><circle class="st0" cx="674.2" cy="293.2" r="1.3"/><circle class="st0" cx="677.9" cy="284" r="2.4"/><circle class="st0" cx="667.1" cy="272.9" r="2.1"/><circle class="st0" cx="660.8" cy="279.5" r="2.1"/><circle class="st0" cx="651.9" cy="296.6" r="1.6"/><circle class="st0" cx="658.5" cy="302.5" r="1.2"/><circle class="st0" cx="646.4" cy="289.1" r="1.7"/><circle class="st0" cx="638.4" cy="285.2" r="2.7"/><circle class="st0" cx="638" cy="268.6" r="1.5"/><circle class="st0" cx="622.9" cy="247.1" r="3.6"/><circle class="st0" cx="628.2" cy="286.4" r="1.6"/><circle class="st0" cx="631" cy="291" r="1.3"/><circle class="st0" cx="642.5" cy="302" r="1.3"/><circle class="st0" cx="646.8" cy="295.5" r="1"/><circle class="st0" cx="653.2" cy="291.9" r=".7"/><circle class="st0" cx="653.7" cy="317.3" r="2"/><circle class="st0" cx="647.8" cy="330.1" r="1.6"/><circle class="st0" cx="708.4" cy="346" r="3.2"/><circle class="st0" cx="718.2" cy="345.7" r="1.5"/><circle class="st0" cx="723.1" cy="332.8" r="1.4"/><circle class="st0" cx="717.7" cy="335.8" r="1.8"/><circle class="st0" cx="723" cy="326.7" r="2.1"/><circle class="st0" cx="680.4" cy="427.3" r="1.8"/><circle class="st0" cx="686.1" cy="431.9" r="1.2"/><circle class="st0" cx="687.9" cy="444.6" r="1.7"/><circle class="st0" cx="665.4" cy="439.4" r="2.3"/><circle class="st0" cx="657.4" cy="443.6" r="2.9"/><circle class="st1" cx="531.7" cy="438.7" r="3.5"/><circle class="st1" cx="623.3" cy="411.2" r="3.1"/><ellipse transform="rotate(-46.122 560.896 471.664)" class="st1" cx="560.8" cy="471.6" rx="3.1" ry="5.2"/><ellipse transform="rotate(-46.122 562.905 431.565)" class="st1" cx="562.9" cy="431.5" rx="3.1" ry="4.7"/><circle class="st1" cx="578.5" cy="445.4" r="2.2"/><circle class="st1" cx="594.8" cy="456.1" r="2.5"/><circle class="st1" cx="607.2" cy="430.4" r="3.2"/><ellipse transform="rotate(-46.122 607.13 399.66)" class="st1" cx="607.1" cy="399.6" rx="2.9" ry="3.8"/><ellipse transform="rotate(-46.122 574.55 408.988)" class="st1" cx="574.5" cy="409" rx="4.1" ry="2.5"/><circle class="st1" cx="570.6" cy="384.4" r="1.9"/><circle class="st1" cx="584.6" cy="385.6" r="2.6"/><ellipse transform="rotate(-46.122 589.97 399.998)" class="st1" cx="589.9" cy="400" rx="4.1" ry="2.4"/><circle class="st1" cx="612.6" cy="371" r="3.7"/><ellipse transform="rotate(-46.122 635.916 338.543)" class="st1" cx="635.9" cy="338.5" rx="3" ry="2.1"/><circle class="st1" cx="639.8" cy="394.2" r="1.6"/><circle class="st1" cx="647.2" cy="421.8" r="1.8"/><circle class="st1" cx="639.9" cy="420.1" r="2"/><circle class="st1" cx="624.7" cy="447" r="3"/><circle class="st1" cx="631.1" cy="457.3" r="2.8"/><circle class="st1" cx="646.3" cy="439.4" r="1.4"/><circle class="st1" cx="653.4" cy="443.2" r="2.2"/><circle class="st1" cx="653.7" cy="452.1" r="2.6"/><circle class="st1" cx="668" cy="414.4" r="1.7"/><ellipse transform="rotate(-46.122 683.798 388.89)" class="st1" cx="683.7" cy="388.9" rx="3.1" ry="1.6"/><circle class="st1" cx="693.6" cy="378.6" r="1.6"/><circle class="st1" cx="700.6" cy="378.7" r="1.5"/><circle class="st1" cx="673.8" cy="366" r="3"/><circle class="st1" cx="669.5" cy="379.3" r="3.1"/><circle class="st1" cx="675.8" cy="376.3" r="2.4"/><circle class="st1" cx="680" cy="373.7" r="1.2"/><circle class="st1" cx="683.9" cy="350.4" r="1.6"/><circle class="st1" cx="681.1" cy="333.5" r="1.4"/><circle class="st1" cx="657.3" cy="332.9" r="3"/><circle class="st1" cx="629.4" cy="331.3" r="2.7"/><circle class="st1" cx="603.7" cy="340.4" r="3"/><circle class="st1" cx="600.8" cy="329.6" r="1.3"/><circle class="st1" cx="604.6" cy="320.4" r="2.4"/><circle class="st1" cx="593.7" cy="309.3" r="2.1"/><circle class="st1" cx="587.5" cy="315.8" r="2.1"/><circle class="st1" cx="578.5" cy="333" r="1.6"/><circle class="st1" cx="585.2" cy="338.8" r="1.2"/><circle class="st1" cx="573" cy="325.5" r="1.7"/><circle class="st1" cx="565.1" cy="321.6" r="2.7"/><circle class="st1" cx="564.7" cy="305" r="1.5"/><circle class="st1" cx="549.6" cy="283.5" r="3.6"/><circle class="st1" cx="554.9" cy="322.7" r="1.6"/><circle class="st1" cx="557.7" cy="327.3" r="1.3"/><circle class="st1" cx="569.2" cy="338.4" r="1.3"/><circle class="st1" cx="573.5" cy="331.9" r="1"/><circle class="st1" cx="579.8" cy="328.3" r=".7"/><circle class="st1" cx="580.3" cy="353.7" r="2"/><circle class="st1" cx="574.4" cy="366.4" r="1.6"/><circle class="st1" cx="635.1" cy="382.4" r="3.2"/><circle class="st1" cx="644.9" cy="382.1" r="1.5"/><circle class="st1" cx="649.8" cy="369.2" r="1.4"/><circle class="st1" cx="644.4" cy="372.2" r="1.8"/><circle class="st1" cx="649.7" cy="363.1" r="2.1"/><circle class="st1" cx="607" cy="463.6" r="1.8"/><circle class="st0" cx="686.1" cy="431.9" r="1.2"/><circle class="st1" cx="614.6" cy="481" r="1.7"/><circle class="st1" cx="592.1" cy="475.8" r="2.3"/><circle class="st1" cx="584" cy="480" r="2.9"/></g></svg>