<svg id="Слой_1" data-name="Слой 1" xmlns="http://www.w3.org/2000/svg" viewBox="0 0 358.2 294.79"><defs><style>.cls-1{fill:none;stroke-width:.3px;stroke:#1c1c1c;stroke-miterlimit:10}</style></defs><g id="_15" data-name="15"><path class="cls-1" d="M369.53 1420.86s-17.63 4.71-24.83 6.8-1.23 5.63-1.23 5.63 36.33 17.61 44.48 21.37c6.61 15.15 30.89 13.59 30.89 13.59l57 26.52s11.14 6.19 27.49-1.65l157.83-75.76" transform="translate(-332.64 -1313.48)"/><path class="cls-1" d="M341.15 1430.6v5.76c0 5.35 2 5.56 2 5.56l128.31 60.13s16.39 6.38 32.34-1.45l177.45-87.13" transform="translate(-332.64 -1313.48)"/><path class="cls-1" d="M341.15 1435.26s-1 .94-3.65 3.76 1.65 5 1.65 5l132.33 62.64s16.39 6.38 32.34-1.45c15.05-7.39 165.8-81.35 182.18-89.07 4.53-2.13 1.87-6.28 1.87-6.28" transform="translate(-332.64 -1313.48)"/><path class="cls-1" d="M336.67 1441.34l9.13 73.92s1.33 11.3 7 15c1.65 1.06 25.19 16.8 25.19 16.8l.08-6.9 29.71 18.46 23.5 14.57-.25 9.41 33.46 22.4s21.95 7.33 37.9-.5c15.06-7.39 163-108.92 173.18-116s12.34-73.78 12.34-73.78" transform="translate(-332.64 -1313.48)"/><path class="cls-1" d="M45.34 233.55l8.43-1.71"/><path class="cls-1" d="M341.15 1333.05s-8.36 1.69-8.36 10.62c0 14.51 8.32 25.13 3.84 15.41-2.42-4.27 51.32 95.58 51.32 95.58s3.43 14.13 30.89 13.59l262.43-54.78s8.68-.77 9.32-10.49c.59-9.48-1.84-11.4-1.84-11.4" transform="translate(-332.64 -1313.48)"/><path d="M353.16 74.35c-8.59-7-84.93-65.57-91.65-71C255.68-1 240.58.43 240.58.43S26.19 17.32 13.29 18.32c-12.27 1-4 11.59-4 11.59l56.87 95s6.23 10.68 24.47 7.78 258.59-49.45 258.59-49.45 12.53-1.9 3.94-8.89zm-16.46 4.17s-222.66 39.71-238.94 42.2-21.86-6.7-21.86-6.7L24.04 32.44s-6.85-9.28 4.66-10.2l211-16.9s13.34-1.28 18.55 2.46c6 4.72 72.26 58 79.93 64s-1.48 6.72-1.48 6.72z" fill="#bb2322" stroke-width=".34" stroke="#1c1c1c" stroke-miterlimit="10"/></g></svg>