<svg version="1.1" id="Capa_1" xmlns="http://www.w3.org/2000/svg" x="0" y="0" viewBox="0 0 472.029 472.029" xml:space="preserve"><path d="M64.004 264.002a8 8 0 0 0-8 8v32a8 8 0 0 0 16 0v-32a8 8 0 0 0-8-8zm32 16a8 8 0 0 0-8 8v32a8 8 0 0 0 16 0v-32a8 8 0 0 0-8-8zm291.792 42.936a8 8 0 0 0-8.96 13.248c21.99 14.806 27.813 44.635 13.008 66.624-14.806 21.99-44.635 27.814-66.624 13.008-21.99-14.806-27.814-44.635-13.008-66.624a48 48 0 0 1 39.792-21.192 8 8 0 0 0 0-16c-35.346.007-63.995 28.666-63.988 64.012.007 35.346 28.666 63.995 64.012 63.988 35.346-.007 63.995-28.666 63.988-64.012a64 64 0 0 0-28.22-53.052z" fill="#fff"/><path d="M444.235 349.43a95.96 95.96 0 0 0-52.231-60.628v-176.8a8 8 0 0 0-3.928-6.888l-176-104a8 8 0 0 0-8.144 0l-176 104c-.168.096-.288.24-.448.352-.16.112-.312.24-.472.368a7.886 7.886 0 0 0-1.768 1.952c0 .056-.096.088-.128.144v.056a8 8 0 0 0-.904 2.616c0 .24-.072.464-.096.704s-.112.456-.112.696v208a8 8 0 0 0 3.928 6.888l176 104c.211.102.427.193.648.272.218.109.443.205.672.288a7.136 7.136 0 0 0 5.504 0c.232-.083.459-.179.68-.288.208-.096.432-.152.64-.272l47.768-28.232c14.699 50.918 67.891 80.28 118.81 65.581 50.918-14.698 80.28-67.891 65.581-118.809zM208.004 17.29l41.6 24.584-61.68 36.448a8.005 8.005 0 0 0 8.144 13.784l69.272-40.904 41.6 24.584-160.272 94.68-41.6-24.584 67.016-39.6a8.005 8.005 0 0 0-8.144-13.784l-74.6 44.088-41.608-24.584L208.004 17.29zm-69.336 167.04v53.416L97.34 213.322v-53.416l41.328 24.424zm120.497 166.942a95.642 95.642 0 0 0-3.161 24.73 96.45 96.45 0 0 0 .528 10.024l-40.528 23.96v-25.984a8 8 0 0 0-16 0v25.984l-160-94.544V126.026L81.34 150.45v67.432a8 8 0 0 0 3.928 6.896l57.328 33.88a8 8 0 0 0 12.072-6.888v-57.992l45.336 26.792v131.432a8 8 0 0 0 16 0V220.57l144.992-85.68a8.002 8.002 0 0 0-8.144-13.776l-144.848 85.6-45.6-26.952L322.676 85.05l53.328 31.512v166.64c-51.061-13.467-103.372 17.008-116.839 68.07zm92.839 104.73c-44.183 0-80-35.817-80-80s35.817-80 80-80 80 35.817 80 80c-.048 44.163-35.837 79.951-80 80z" fill="#fff"/><path d="M381.464 354.346a8 8 0 0 0-11.116 0l-30.344 30.344-6.344-6.344a8 8 0 0 0-11.312.196 8 8 0 0 0 0 11.116l12 12a8 8 0 0 0 11.312 0l36-36a8 8 0 0 0-.196-11.312z" fill="#fff"/></svg>