<svg height="496pt" viewBox="0 -55 496 495" width="496pt" xmlns="http://www.w3.org/2000/svg"><path d="M248 .5L0 66.637v252.297l245.938 65.574 2.062.55 248-66.132V66.636zm0 128l-42.945-11.457 208.953-55.719 42.945 11.457zM109.047 91.445L318 35.723l64.953 17.32L174 108.766zM88 102.395l72 19.203v36.71l-72-19.64zm198.945-74.95L78 83.165 39.047 72.78 248 17.06zM16 83.195l56 14.938v52.758l104 28.363v-53.395l64 17.067v223.437l-64-17.062v-58.625L72 262.3v59.262l-56-14.934zm144 261.832l-72-19.199v-42.566l72 19.629zm96 21.336V142.926l224-59.738v223.44zm0 0" fill="#fff"/><path d="M448 280.781h16v16h-16zm-32 8h16v16h-16zm-32 8h16v16h-16zm0 0" fill="#fff"/></svg>