<svg height="511pt" viewBox="0 -7 512 511" width="511pt" xmlns="http://www.w3.org/2000/svg"><path d="M191.04 38.957h-.06l-62.152 81.402c-2.926 3.84-2.191 9.325 1.649 12.25.14.11.285.211.433.313l83.195 55.84a8.74 8.74 0 0 0 6.563 1.32 8.768 8.768 0 0 0 5.57-3.715l22.602-33.781 15.898 28.273-36.218 20.871a8.741 8.741 0 0 0-3.188 11.946 8.74 8.74 0 0 0 5.809 4.18l131.101 27.183a8.745 8.745 0 0 0 10.024-5.68l42.828-123.07a8.74 8.74 0 0 0-5.41-11.113 8.74 8.74 0 0 0-7.11.625l-32.582 18.187-50.96-84.308a8.746 8.746 0 0 0-7.485-4.22H197.926a8.74 8.74 0 0 0-6.887 3.497zm25.538 130.367l-68.172-45.781 48.453-63.469 42.41 75.39zm90.04-116.383l52.745 87.293a8.742 8.742 0 0 0 11.739 3.114l19.894-11.102-32.742 94.125-101.14-20.976 23.843-13.786c4.148-2.39 5.598-7.675 3.254-11.851L212.875 52.94zM104.02 90.793l8.742-9.711 12.988 11.695-8.742 9.711zm0 0" fill="#fff"/><path d="M193.078 17.98h74.77V.5h-78.66a8.724 8.724 0 0 0-6.493 2.895l-61.183 67.98L134.5 83.066zm139.387 272.829c-.8 2.18-.7 4.586.277 6.687l17.121 36.875-32.425-1.101.93-41.813a8.74 8.74 0 0 0-15.13-6.117l-91.328 97.816a8.746 8.746 0 0 0-.355 11.531l82.898 100.508a8.743 8.743 0 0 0 6.746 3.184 8.61 8.61 0 0 0 2.797-.465 8.743 8.743 0 0 0 5.938-7.953l1.398-37.285 98.473.281a8.63 8.63 0 0 0 7.5-4.195l59.027-97.086a8.686 8.686 0 0 0 .613-7.692h.07l-37.257-95.414c-1.754-4.496-6.824-6.722-11.32-4.968a7.92 7.92 0 0 0-.497.214l-90.898 42.063a8.733 8.733 0 0 0-4.578 4.93zm72.46 144.668l-101.995-.297a8.735 8.735 0 0 0-8.739 8.414l-.875 22.726-63.41-76.914 70.473-75.515-.613 27.543a8.741 8.741 0 0 0 8.445 8.921l145.414 4.95zm21.923-171.903l29.05 74.371-86.457-2.937-17.156-36.945zm34.269-15.855l16.738-5.031 3.762 12.511-16.742 5.031zm0 0" fill="#fff"/><path d="M493.79 356.633l-38.853 63.879 14.938 9.125 40.875-67.211a8.774 8.774 0 0 0 .875-7.051l-26.262-87.637-16.746 5.024zM68.355 442.441a8.742 8.742 0 0 0 6.766 3.75v.051l102.258 5.246h.445a8.742 8.742 0 0 0 8.742-8.742v-.086l-.96-100.207a8.738 8.738 0 0 0-2.626-6.16 8.912 8.912 0 0 0-6.21-2.492l-40.633.457 14.332-29.098 37.73 18.031a8.742 8.742 0 0 0 11.66-4.105 8.75 8.75 0 0 0 .176-7.16L148.38 188.453a8.735 8.735 0 0 0-10.356-5.058L12.297 217.637c-4.656 1.265-7.41 6.07-6.145 10.726a8.732 8.732 0 0 0 4.555 5.54l33.395 16.562L3.39 340.156a8.746 8.746 0 0 0 .742 8.555zm99.856-91.046l.785 82.16-79.742-4.102 38.238-77.601zM63.523 250.012a8.741 8.741 0 0 0-4.074-11.442l-20.406-10.136 96.14-26.223 39.872 95.27-24.856-11.88a8.743 8.743 0 0 0-11.61 4.028L74.325 420.234 21.38 342.902zm90.61 236.863l2.304-17.328 12.954 1.723-2.305 17.328zm0 0" fill="#fff"/><path d="M50.516 473.137l90.652 12.043 2.309-17.325L56.68 456.32l-42.293-61.644L0 404.527l44.46 64.887a8.742 8.742 0 0 0 6.056 3.723zm0 0" fill="#fff"/></svg>