<svg id="Layer_5" height="512" viewBox="0 0 64 64" width="512" xmlns="http://www.w3.org/2000/svg"><path d="M21.555 43.461l-1.898.629c.205.62.459 1.228.755 1.807l1.781-.908c-.25-.49-.464-1.005-.638-1.528zm19.612-9.543A10.952 10.952 0 0 1 43 40c0 6.065-4.935 11-11 11a11.04 11.04 0 0 1-8.937-4.584l-1.623 1.168A13.041 13.041 0 0 0 32 53c7.168 0 13-5.832 13-13 0-2.57-.75-5.056-2.167-7.189z" fill="#de4a4b"/><path d="M60 15c-1.654 0-3 1.346-3 3 0 .568.168 1.094.443 1.547l-5.433 6.64A2.972 2.972 0 0 0 51 26c-.147 0-.288.023-.43.043l-5.759-5.759-5.313 4.132A2.963 2.963 0 0 0 38 24c-.078 0-.151.017-.228.023l-.012-.005L36.883 17h-9.766l-.875 7.006c-.492.179-.984.385-1.474.617l-5.579-4.339-6.905 6.905 4.339 5.579c-.027.058-.046.116-.073.174l-9.562-3.825C6.99 29.078 7 29.04 7 29c0-1.654-1.346-3-3-3s-3 1.346-3 3 1.346 3 3 3a2.98 2.98 0 0 0 2.241-1.026l8.548 3.419L9 35.117v9.766l7.006.876c.179.491.385.983.617 1.473l-4.339 5.579 6.905 6.905 5.579-4.339c.489.232.981.438 1.474.617L27.117 63h9.766l.875-7.006c.492-.179.984-.385 1.474-.617l5.579 4.339 6.905-6.905-4.339-5.579c.232-.489.438-.981.617-1.473L55 44.883v-9.766l-7.006-.876a17.262 17.262 0 0 0-.617-1.473l1.389-1.786A2.979 2.979 0 0 0 51 32c1.654 0 3-1.346 3-3 0-.568-.167-1.094-.443-1.547l5.433-6.641A2.95 2.95 0 0 0 60 21c1.654 0 3-1.346 3-3s-1.346-3-3-3zM4 30a1.001 1.001 0 0 1 0-2 1.001 1.001 0 0 1 0 2zm44.743-2.955a3.01 3.01 0 0 0-.372.54l-7.428-1.143a2.929 2.929 0 0 0-.147-.502l3.848-2.993zM39 27a1.001 1.001 0 0 1-2 0 1.001 1.001 0 0 1 2 0zm-24.054.355l4.409-4.409 5.187 4.034.568-.295a14.844 14.844 0 0 1 2.348-.981l.61-.193.815-6.511h6.234l.739 5.908a2.987 2.987 0 0 0 .053 4.236l-1.071 2.321A8.98 8.98 0 0 0 32 31c-3.469 0-6.48 1.976-7.982 4.858l-2.026-.779c.001-.027.008-.052.008-.079 0-1.654-1.346-3-3-3-.14 0-.274.023-.409.041zm10.233 11.093l3.829 1.473c-.001.027-.008.052-.008.079 0 1.654 1.346 3 3 3s3-1.346 3-3c0-.841-.35-1.599-.909-2.144l1.717-3.721A6.994 6.994 0 0 1 39 40c0 3.859-3.14 7-7 7s-7-3.141-7-7c0-.534.065-1.052.179-1.552zM32 39a1.001 1.001 0 1 1-1 1c0-.552.449-1 1-1zm.271-1.973C32.18 37.019 32.093 37 32 37a2.98 2.98 0 0 0-2.267 1.057l-3.836-1.475A7.003 7.003 0 0 1 32 33c.693 0 1.361.105 1.994.293zM19 34a1.001 1.001 0 1 1-1 1c0-.552.449-1 1-1zm26.314-.889c.405.779.735 1.568.981 2.347l.193.611 6.512.814v6.234l-6.511.813-.193.611a14.992 14.992 0 0 1-.981 2.347l-.295.569 4.034 5.187-4.409 4.409-5.187-4.034-.568.295c-.778.404-1.568.734-2.348.981l-.61.193L35.117 61h-6.234l-.814-6.511-.61-.193c-.78-.247-1.57-.577-2.348-.981l-.568-.295-5.187 4.034-4.409-4.409 4.034-5.187-.295-.569a14.726 14.726 0 0 1-.981-2.347l-.193-.611L11 43.117v-6.234l5.268-.658A2.999 2.999 0 0 0 19 38a2.98 2.98 0 0 0 2.267-1.057l2.036.783A8.936 8.936 0 0 0 23 40c0 4.963 4.038 9 9 9s9-4.037 9-9c0-3.26-1.748-6.111-4.349-7.691l1.078-2.337c.091.009.178.028.271.028 1.14 0 2.121-.646 2.628-1.584l6.787 1.045-2.396 3.081zM51 30a1.001 1.001 0 0 1 0-2 1.001 1.001 0 0 1 0 2zm9-11a1.001 1.001 0 0 1 0-2 1.001 1.001 0 0 1 0 2zm-34.586-8H21V1h-2v12h1.586L15 18.586 9.414 13H11V5H9v6H4.586L15 21.414zM9 1h2v2H9z" fill="#de4a4b"/><path d="M43 19h2V9h-1.586L49 3.414 54.586 9H53v6h2v-4h4.414L49 .586 38.586 11H43zm10-2h2v2h-2z" fill="#de4a4b"/></svg>