<svg version="1.1" id="Capa_1" xmlns="http://www.w3.org/2000/svg" x="0" y="0" viewBox="0 0 471.984 471.984" xml:space="preserve"><path d="M449.911 377.176a29.151 29.151 0 0 0-15.92-16.344 28.623 28.623 0 0 0-22.4 0l-51.872 22.024c.139-.957.227-1.921.264-2.888 0-15.464-12.536-28-28-28h-62.056a40.734 40.734 0 0 1-18.08-4.264 187.987 187.987 0 0 0-83.584-19.736h-4.28a8 8 0 0 0 0 16h4.28a171.78 171.78 0 0 1 76.432 18.048 56.703 56.703 0 0 0 25.232 5.952h62.056c6.627.039 11.969 5.442 11.93 12.07a11.999 11.999 0 0 1-9.282 11.618c-1.048.096-2.08.312-3.144.312h-95.504a8 8 0 0 0 0 16h96c.16 0 .312-.048.48-.048a49.464 49.464 0 0 0 18.464-3.904l66.88-28.4a12.677 12.677 0 0 1 9.992 0 13.209 13.209 0 0 1 7.2 7.448 13.68 13.68 0 0 1-.216 10.64 13.184 13.184 0 0 1-7.4 7.088l-123.584 47.12a122.4 122.4 0 0 1-90.016-.976l-65.8-27.352v-91.616a8 8 0 0 0-8-8h-64a8 8 0 0 0-8 8h-40a8 8 0 0 0 0 16h40v40a8 8 0 0 0 16 0v-48h48v96h-48v-16a8 8 0 0 0-16 0v8h-40a8 8 0 0 0 0 16h40a8 8 0 0 0 8 8h64a8 8 0 0 0 8-8v-3.048l59.728 24.8a138.49 138.49 0 0 0 101.808 1.12l123.576-47.12a29.09 29.09 0 0 0 16.344-15.576 29.6 29.6 0 0 0 .472-22.968zm-6.272-315.352v-.28a7.89 7.89 0 0 0-1.408-2.52c-.184-.232-.4-.4-.6-.608a8.176 8.176 0 0 0-1.544-1.216 8.875 8.875 0 0 0-.912-.464 7.436 7.436 0 0 0-.72-.36l-176-56a8.007 8.007 0 0 0-4.848 0l-176 56a8 8 0 0 0-5.624 7.592v192a8 8 0 0 0 5.6 7.624l176 56a8.007 8.007 0 0 0 4.848 0l176-56a8 8 0 0 0 5.552-7.624v-192a7.958 7.958 0 0 0-.344-2.144zM259.983 16.368l149.6 47.6-30.944 9.848-149.592-47.608 30.936-9.84zm-57.328 18.24l149.6 47.6-30.936 9.848-149.6-47.6 30.936-9.848zm225.328 215.504l-160 50.912v-29.056a8 8 0 0 0-16 0v29.056l-160-50.904V69.816l53.336-16.968 149.6 47.608-34.936 11.112-133.6-42.496a8 8 0 0 0-10.048 5.2 8 8 0 0 0 5.2 10.048l130.448 41.496v114.152a8 8 0 0 0 16 0V125.816l45.336-14.4v53.072a8 8 0 0 0 8 8 8.18 8.18 0 0 0 2.4-.376l18.664-5.952a8 8 0 0 0 5.2-10.048 8 8 0 0 0-10.048-5.2l-8.24 2.624v-47.2l41.328-13.152v47.2l-9.088 2.888a8 8 0 0 0 2.4 15.624 7.787 7.787 0 0 0 2.4-.376l14.672-4.664a8 8 0 0 0 5.6-7.624V88.064l41.376-13.152v175.2z" fill="#de4a4b"/><path d="M115.983 199.968a8 8 0 0 0-8 8v24a8 8 0 0 0 16 0v-24a8 8 0 0 0-8-8zm32 8a8 8 0 0 0-8 8v24a8 8 0 0 0 16 0v-24a8 8 0 0 0-8-8z" fill="#de4a4b"/></svg>