<svg xmlns="http://www.w3.org/2000/svg" width="7" height="20"><path fill="#3ab54a" d="M1.732-.183l3.56 3.56.372-.373 1.33 1.331-.372.373.06.06L5.268 6.18l-.06-.06-2.085 2.087 2.169 2.169.372-.372 1.33 1.33-.372.373.06.06-1.414 1.413-.06-.06-2.086 2.087 3.56 3.56-1.414 1.413-4.95-4.95 1.414-1.414.06.06 2.085-2.086-3.56-3.56 1.415-1.414.06.06L3.876 4.79.317 1.23z"/><path fill="#7f1718" d="M1.732-.183l3.56 3.56.372-.373 1.33 1.331-.372.373.06.06L5.268 6.18l-.06-.06-2.085 2.087 2.169 2.169.372-.372 1.33 1.33-.372.373.06.06-1.414 1.413-.06-.06-2.086 2.087 3.56 3.56-1.414 1.413-4.95-4.95 1.414-1.414.06.06 2.085-2.086-3.56-3.56 1.415-1.414.06.06L3.876 4.79.317 1.23z"/></svg>