<svg version="1.1" id="Capa_1" xmlns="http://www.w3.org/2000/svg" x="0" y="0" viewBox="0 0 444.969 444.969" xml:space="preserve"><path d="M152 300H64c-17.673 0-32-14.327-32-32V140a8 8 0 0 0-16 0v128c.026 26.499 21.501 47.974 48 48h88a8 8 0 0 0 0-16zm152-56a8 8 0 0 0-8 8v16a8 8 0 0 0 16 0v-16a8 8 0 0 0-8-8zm-32 0a8 8 0 0 0-8 8v16a8 8 0 0 0 16 0v-16a8 8 0 0 0-8-8zm-32 0a8 8 0 0 0-8 8v16a8 8 0 0 0 16 0v-16a8 8 0 0 0-8-8z" fill="#de4a4b"/><path d="M437.656 398.344a8 8 0 0 0-11.312.196 8 8 0 0 0 0 11.116 8.971 8.971 0 0 1 0 12.688 8.971 8.971 0 0 1-12.688 0l-36-36a8.971 8.971 0 0 1 0-12.688 8.971 8.971 0 0 1 12.688 0l20 20a8 8 0 0 0 11.312-.196 8 8 0 0 0 0-11.116l-20-20a24.92 24.92 0 0 0-28.64-4.64l-20.28-20.28c42.838-44.511 41.482-115.321-3.028-158.159C320.611 151.262 278.68 141.116 240 152.72V84h48a8 8 0 0 0 0-16h-48V20h112v48h-32a8 8 0 0 0 0 16h16v72a8 8 0 0 0 16 0V84h8a8 8 0 0 0 8-8V12a8 8 0 0 0-8-8H8a8 8 0 0 0-8 8v64a8 8 0 0 0 8 8h8v24a8 8 0 0 0 16 0V84h96v80a8 8 0 0 0 16 0V84h80v72c.023.923.207 1.836.544 2.696a112.52 112.52 0 0 0-38.576 29.704A7.692 7.692 0 0 0 184 188h-48a8 8 0 0 0 0 16h39.152c-31.034 53.39-12.911 121.829 40.479 152.863 39.584 23.009 89.196 19.561 125.217-8.703l20.856 20.856a24.92 24.92 0 0 0 4.64 28.64l36 36c9.751 9.751 25.561 9.751 35.312 0 9.751-9.751 9.751-25.561 0-35.312zM128 68H16V20h112v48zm96 0h-80V20h80v48zm48 288c-53.019 0-96-42.981-96-96s42.981-96 96-96c52.996.057 95.943 43.004 96 96 0 53.019-42.981 96-96 96z" fill="#de4a4b"/><path d="M316.445 193.491c-36.735-24.549-86.416-14.671-110.965 22.064-17.981 26.906-17.981 61.995 0 88.901a8.003 8.003 0 0 0 11.104 2.192 8.003 8.003 0 0 0 2.192-11.104c-19.63-29.394-11.714-69.136 17.68-88.766s69.136-11.714 88.766 17.68c19.63 29.394 11.714 69.136-17.68 88.766-21.517 14.369-49.569 14.369-71.086 0a8.003 8.003 0 0 0-11.104 2.192 8.003 8.003 0 0 0 2.192 11.104c36.735 24.549 86.416 14.671 110.965-22.064 24.549-36.735 14.671-86.416-22.064-110.965z" fill="#de4a4b"/></svg>