<svg version="1.1" id="Capa_1" xmlns="http://www.w3.org/2000/svg" x="0" y="0" viewBox="0 0 448 448" xml:space="preserve"><path d="M424 384h-8.888l-31.2-264.936A8 8 0 0 0 376 112h-56V80h53.4c24.114.025 45.528-15.411 53.128-38.296l5.064-15.2A8 8 0 0 0 424 16h-48a8 8 0 0 0 0 16h36.904l-1.552 4.648C405.92 52.993 390.624 64.017 373.4 64H74.6c-17.217.003-32.504-11.011-37.952-27.344L35.096 32H304a8 8 0 0 0 0-16H24a8 8 0 0 0-7.592 10.528l5.064 15.2C29.08 64.604 50.492 80.028 74.6 80H128v32H72a8 8 0 0 0-7.944 7.064l-9.408 80a7.999 7.999 0 0 0 6.864 8.993 8 8 0 0 0 9.023-7.121l4.8-40.936H344a8 8 0 0 0 0-16H77.232l1.88-16h289.776L399 384H49l17.768-151.064a8 8 0 0 0-7.008-8.88 8 8 0 0 0-8.88 7.008L32.888 384H24c-13.255 0-24 10.745-24 24s10.745 24 24 24h360a8 8 0 0 0 0-16H24a8 8 0 0 1 0-16h400a8 8 0 0 1 0 16h-8a8 8 0 0 0 0 16h8c13.255 0 24-10.745 24-24s-10.745-24-24-24zM304 112H144V80h160v32z" fill="#fff"/><path d="M307.2 243.152a8 8 0 1 0-15.12 5.231c13.067 37.556-6.785 78.594-44.341 91.661-37.556 13.067-78.594-6.785-91.661-44.341-13.067-37.556 6.785-78.594 44.341-91.661a71.995 71.995 0 0 1 47.198-.042 8.001 8.001 0 0 0 5.336-15.084l-.103-.036v-.04c-45.927-15.898-96.047 8.446-111.944 54.373-15.898 45.927 8.446 96.047 54.373 111.944 45.927 15.898 96.047-8.446 111.944-54.373a88.012 88.012 0 0 0-.023-57.632z" fill="#fff"/><path d="M292.128 216.296a87.677 87.677 0 0 0-12.424-12.424A8 8 0 0 0 269.6 216.24a74.042 74.042 0 0 1 5.344 4.84c1.712 1.712 3.304 3.52 4.816 5.36a8 8 0 0 0 12.368-10.144zM224 216c-30.913.035-55.965 25.087-56 56a8 8 0 0 0 16 0c0-22.091 17.909-40 40-40s40 17.909 40 40a8 8 0 0 0 16 0c-.035-30.913-25.087-55.965-56-56z" fill="#fff"/><path d="M224 248a8 8 0 0 0-8 8v56a8 8 0 0 0 16 0v-56a8 8 0 0 0-8-8zM344 16h-8a8 8 0 0 0 0 16h8a8 8 0 0 0 0-16zm24 336h-8a8 8 0 0 0 0 16h8a8 8 0 0 0 0-16zm-40 0h-8a8 8 0 0 0 0 16h8a8 8 0 0 0 0-16z" fill="#fff"/></svg>